<?xml version="1.0" encoding="utf-8"?>
<!-- Generator: Adobe Illustrator 20.0.0, SVG Export Plug-In . SVG Version: 6.00 Build 0)  -->
<svg version="1.1" id="Layer_1" xmlns:sketch="http://www.bohemiancoding.com/sketch/ns"
	 xmlns="http://www.w3.org/2000/svg" xmlns:xlink="http://www.w3.org/1999/xlink" x="0px" y="0px" viewBox="0 0 20 20" width="20" height="20"
	 style="enable-background:new 0 0 20 20;" xml:space="preserve">
<style type="text/css">
	.st0{fill:#FFFFFF;}
</style>
<title></title>
<desc></desc>
<g id="Page-1">
	<g id="Core" transform="translate(-86.000000, -2.000000)">
		<g id="account-circle" transform="translate(86.000000, 2.000000)">
			<path id="Shape" class="st0" d="M10,0C4.5,0,0,4.5,0,10s4.5,10,10,10s10-4.5,10-10S15.5,0,10,0L10,0z M10,3c1.7,0,3,1.3,3,3
				s-1.3,3-3,3S7,7.7,7,6S8.3,3,10,3L10,3z M10,17.2c-2.5,0-4.7-1.3-6-3.2c0-2,4-3.1,6-3.1s6,1.1,6,3.1C14.7,15.9,12.5,17.2,10,17.2
				L10,17.2z"/>
		</g>
	</g>
</g>
</svg>
