<svg id="Layer_1" data-name="Layer 1" xmlns="http://www.w3.org/2000/svg" viewBox="0 0 35.2 35.2" width="35.2" height="35.2">
  <defs>
    <style>
      .cls-1 {
        fill: #ee3624;
      }

      .cls-2 {
        fill: #fff;
      }
    </style>
  </defs>
  <title>icon-instagram</title>
  <g>
    <path class="cls-1" d="M35.2,17.6A17.6,17.6,0,1,1,17.6,0,17.63,17.63,0,0,1,35.2,17.6Z"/>
    <path id="Camera" class="cls-2" d="M25.5,8.2H10.6a2.33,2.33,0,0,0-2.3,2.3h0V25.8a2.26,2.26,0,0,0,2.3,2.3H25.9a2.4,2.4,0,0,0,2.3-2.3V10.5C28.2,9.3,26.8,8.3,25.5,8.2Zm-7.3,6.4a3.6,3.6,0,1,1-3.6,3.6A3.59,3.59,0,0,1,18.2,14.6Zm7.3,9.6a1.32,1.32,0,0,1-1.3,1.3H12.3A1.32,1.32,0,0,1,11,24.2V16.6h1.6a4.68,4.68,0,0,0-.2,1.7,6,6,0,0,0,12,0,9.85,9.85,0,0,0-.2-1.7h1.6v7.6Zm0-12.6v2h0a.58.58,0,0,1-.6.6h-2a.67.67,0,0,1-.7-.6h0v-2h0a.68.68,0,0,1,.7-.7h2a.67.67,0,0,1,.6.7Z"/>
  </g>
</svg>
