<svg id="Layer_1" data-name="Layer 1" xmlns="http://www.w3.org/2000/svg" viewBox="0 0 35.2 35.2" width="35.2" height="35.2">
  <defs>
    <style>
      .cls-1 {
        fill: #ee3624;
      }

      .cls-2 {
        fill: #fff;
      }
    </style>
  </defs>
  <title>icon-fb</title>
  <g>
    <path class="cls-1" d="M35.2,17.6A17.6,17.6,0,1,1,17.6,0,17.63,17.63,0,0,1,35.2,17.6Z"/>
    <path class="cls-2" d="M12,12.6h2.5V11.3a11.91,11.91,0,0,1,.4-3.2,4,4,0,0,1,1.7-1.7,6.76,6.76,0,0,1,3.1-.7,11.48,11.48,0,0,1,3.7.6l-.6,3.1a7.47,7.47,0,0,0-2-.3,2,2,0,0,0-1.4.5,2.5,2.5,0,0,0-.4,1.7v1.2h3.3V16H19V29.3H14.6V16.1H12.1L12,12.6Z"/>
  </g>
</svg>
