<?xml version="1.0" encoding="utf-8"?>
<!-- Generator: Adobe Illustrator 20.0.0, SVG Export Plug-In . SVG Version: 6.00 Build 0)  -->
<svg version="1.1" id="Layer_1" xmlns="http://www.w3.org/2000/svg" xmlns:xlink="http://www.w3.org/1999/xlink" x="0px" y="0px"
	 viewBox="0 0 134.8 51.9" style="enable-background:new 0 0 134.8 51.9;" xml:space="preserve">
<style type="text/css">
	.st0{fill:#EE3624;}
	.st1{fill:#FFFFFF;}
	.st2{fill:#EF3824;}
</style>
<g>
	<g>
		<g>
			<g>
				<path class="st0" d="M85,25.7c0,9.7-7.9,17.6-17.6,17.6s-17.6-7.9-17.6-17.6S57.7,8.1,67.4,8.1C77.1,8.1,85,16,85,25.7z"/>
			</g>
			<g>
				<g>
					<path class="st1" d="M77.5,29.5c0,1.8-1.4,3.2-3.2,3.2H60.4c-1.8,0-3.2-1.4-3.2-3.2v-7.6c0-1.8,1.4-3.2,3.2-3.2h13.9
						c1.8,0,3.2,1.4,3.2,3.2V29.5z"/>
				</g>
				<g>
					<polygon class="st2" points="72.8,25.7 65.5,31 65.5,20.4 					"/>
				</g>
			</g>
		</g>
	</g>
	<g>
		<g>
			<g>
				<path class="st0" d="M43.4,25.7c0,9.7-7.9,17.6-17.6,17.6S8.2,35.4,8.2,25.7S16.1,8.1,25.8,8.1C35.6,8.1,43.4,16,43.4,25.7z"/>
			</g>
			<g>
				<path class="st1" d="M20.2,20.7h2.5v-1.3c0-1.4,0.2-2.5,0.4-3.2c0.3-0.7,0.9-1.2,1.7-1.7c0.8-0.4,1.8-0.7,3.1-0.7
					c1.3,0,2.5,0.2,3.7,0.6L31,17.5c-0.7-0.2-1.4-0.3-2-0.3s-1.1,0.2-1.4,0.5s-0.4,0.9-0.4,1.7v1.2h3.3v3.5h-3.3v13.3h-4.4V24.2
					h-2.5L20.2,20.7L20.2,20.7z"/>
			</g>
		</g>
	</g>
	<g>
		<g>
			<path class="st0" d="M126.5,25.9c0,9.7-7.9,17.6-17.6,17.6c-9.7,0-17.6-7.9-17.6-17.6s7.9-17.6,17.6-17.6
				C118.6,8.3,126.5,16.2,126.5,25.9z"/>
			<g>
				<path id="Camera" class="st1" d="M116.8,16.5c0,0-14.9,0-14.9,0c-1.3,0-2.3,1.1-2.3,2.3l0,0c0,0,0,15.3,0,15.3
					c0,1.3,1,2.3,2.3,2.3c0,0,15.3,0,15.3,0c1.2,0,2.3-1.1,2.3-2.3c0,0,0-15.3,0-15.3C119.5,17.6,118.1,16.6,116.8,16.5z
					 M109.5,22.9c2,0,3.6,1.6,3.6,3.6c0,2-1.6,3.6-3.6,3.6c-2,0-3.6-1.6-3.6-3.6C105.9,24.5,107.5,22.9,109.5,22.9z M116.8,32.5
					c0,0.7-0.6,1.3-1.3,1.3h-11.9c-0.7,0-1.3-0.6-1.3-1.3v-7.6h1.6c-0.2,0.5-0.2,1.1-0.2,1.7c0,3.3,2.7,6,6,6c3.3,0,6-2.7,6-6
					c0-0.6-0.1-1.1-0.2-1.7h1.6V32.5C116.8,32.5,116.8,32.5,116.8,32.5z M116.8,19.9v2h0c0,0.4-0.3,0.6-0.6,0.6v0h-2
					c-0.4,0-0.7-0.3-0.7-0.6h0v-2h0c0,0,0,0,0,0c0-0.4,0.3-0.7,0.7-0.7h2v0C116.5,19.2,116.8,19.5,116.8,19.9
					C116.8,19.9,116.8,19.9,116.8,19.9L116.8,19.9z"/>
			</g>
		</g>
	</g>
</g>
</svg>
