<?xml version="1.0" standalone="no"?>
<!DOCTYPE svg PUBLIC "-//W3C//DTD SVG 1.1//EN" "http://www.w3.org/Graphics/SVG/1.1/DTD/svg11.dtd" >
<svg>
<metadata>
Created by FontForge 20120731 at Wed Nov 14 15:11:10 2018
 By www-data
Copyright (c) 2011 by RMA. All rights reserved.
</metadata>
<defs>
<font id="JambonoVNLight" horiz-adv-x="300" >
  <font-face 
    font-family="JambonoVN Light"
    font-weight="400"
    font-stretch="normal"
    units-per-em="1000"
    panose-1="2 0 5 3 5 0 0 2 0 4"
    ascent="800"
    descent="-200"
    x-height="544.5"
    cap-height="767"
    bbox="-76 -242 1046 1185.02"
    underline-thickness="50"
    underline-position="-50"
    unicode-range="U+0020-FB04"
  />
<missing-glyph horiz-adv-x="1000" 
 />
    <glyph glyph-name=".notdef" horiz-adv-x="1000" 
 />
    <glyph glyph-name=".null" horiz-adv-x="0" 
 />
    <glyph glyph-name="nonmarkingreturn" horiz-adv-x="202" 
 />
    <glyph glyph-name="space" unicode=" " horiz-adv-x="242" 
 />
    <glyph glyph-name="numbersign" unicode="#" horiz-adv-x="580" 
d="M539 372q-22 -5 -44 -8t-65 -6q-4 -20 -7.5 -36t-6.5 -32.5t-6.5 -34t-6.5 -39.5q20 1 35 2.5t28 3t25 3.5t26 5l-2 -61q-23 -5 -48 -8t-71 -6q-5 -46 -6 -80t2 -64l-66 -8q-3 27 -1.5 61.5t6.5 88.5h-38.5t-32 0.5t-31.5 1t-37 0.5q-5 -47 -5.5 -81t2.5 -64l-65 -8
q-3 28 -3 63.5t6 90.5q-32 0 -51.5 -1.5t-41.5 -3.5l3 62q25 3 44.5 3.5t53.5 0.5q3 20 6 36.5t6.5 32.5t7 33t7.5 38q-36 0 -57.5 -0.5t-45.5 -2.5l2 61q14 1 26.5 2t25.5 2t27.5 1h32.5q8 42 12 72.5t5 55.5l65 8q-2 -32 -6 -64t-12 -74q22 -1 38.5 -1.5t32 -0.5h31h36.5
q8 43 12.5 75.5t5.5 58.5l65 7q-2 -32 -5.5 -63.5t-11.5 -74.5q26 2 50.5 5.5t49.5 8.5zM366 355h-39.5h-32t-31.5 0.5t-37 0.5q-4 -20 -7.5 -36.5t-7 -32t-6.5 -32.5t-6 -38q22 -1 39 -1.5t32.5 -1t31.5 -0.5h37q3 20 6 36.5t6.5 32.5t7 33.5t7.5 38.5z" />
    <glyph glyph-name="dollar" unicode="$" horiz-adv-x="486" 
d="M445 152q-3 -65 -60 -107t-154 -47l-8 -72h-68l7 72q-15 1 -34 3.5t-39.5 6.5t-40.5 9t-36 11l18 69q14 -6 35 -12.5t45 -11t49 -8t48 -3.5q33 -1 60.5 5t47.5 16.5t31 25t12 30.5q1 34 -21 54t-56 34t-74 25.5t-73.5 29.5t-55.5 45.5t-20 72.5q2 59 51 97.5t128 44.5
l7 68h67l-6 -69q36 -2 65 -6.5t62 -12.5l-3 -73q-37 14 -75.5 22t-76.5 9q-34 1 -59 -5t-41.5 -15.5t-25 -21.5t-8.5 -24q-1 -32 21.5 -50.5t56.5 -31t74 -24t74 -30t56 -48t20 -78.5z" />
    <glyph glyph-name="percent" unicode="%" horiz-adv-x="711" 
d="M653 171q0 -50 -14.5 -85.5t-37.5 -58t-51.5 -33.5t-56.5 -11q-25 0 -46 6.5t-36 21t-23.5 38.5t-8.5 59q0 43 12.5 77.5t34 58.5t51 36.5t63.5 12.5q24 0 44.5 -6.5t36 -20.5t24 -37.5t8.5 -57.5zM335 435q0 -50 -14.5 -85.5t-37.5 -58t-51.5 -33.5t-56.5 -11
q-25 0 -46 6.5t-36 21t-23.5 38.5t-8.5 59q0 43 12.5 77.5t34.5 58.5t51.5 36.5t63.5 12.5q48 0 80 -27t32 -95zM629 557q-64 -88 -122 -155.5t-114.5 -129.5t-115 -127t-124.5 -147l-68 -9q67 89 128 158.5t119 133t115 127.5t115 142zM270 422q0 91 -65 91
q-34 0 -55.5 -32t-23.5 -96q-2 -41 14.5 -66.5t48.5 -25.5q39 0 60 33t21 96zM587 158q0 91 -64 91q-34 0 -55.5 -32t-23.5 -96q-2 -41 14 -66.5t48 -25.5q39 0 60 33t21 96z" />
    <glyph glyph-name="ampersand" unicode="&#x26;" horiz-adv-x="807" 
d="M750 34q-10 -11 -21 -19.5t-21 -13.5q-11 -6 -22 -10q-38 20 -75 46.5t-75 57.5q-63 -51 -132.5 -81t-139.5 -30q-48 0 -85.5 15.5t-64 43t-39.5 66.5t-11 86q1 30 9.5 60.5t23.5 58.5t36 52t47 41q20 5 43 7.5t37 3.5q-25 50 -32 90t-6 66q1 48 16 85.5t40 62.5t57.5 38
t68.5 13q35 0 66.5 -7t59.5 -24l-23 -65q-47 33 -106 33q-18 0 -35 -7t-30.5 -21.5t-22 -37.5t-9.5 -54q-2 -44 16.5 -93.5t51.5 -101.5t77.5 -103.5t95.5 -98.5q42 43 79 96t69 115l45 -53q-54 -112 -143 -202q39 -33 78 -62.5t77 -52.5zM485 138q-66 61 -122.5 130
t-94.5 135q-26 -17 -48.5 -40t-39 -50.5t-26 -57.5t-9.5 -59q0 -34 10 -61t28 -45.5t42.5 -28.5t53.5 -10q49 0 101.5 22.5t104.5 64.5z" />
    <glyph glyph-name="quoteright" unicode="&#x2019;" horiz-adv-x="243" 
d="M196 748q3 -75 -16 -140t-64 -106l-29 15q17 29 25.5 58t12.5 58q4 26 4 50t-1 48l68 17v0z" />
    <glyph glyph-name="parenleft" unicode="(" horiz-adv-x="329" 
d="M270 747q-41 -109 -68.5 -219.5t-36.5 -222t2 -223t47 -221.5l-55 -21q-37 92 -54 202t-11 227t35 236t84 229l57 13v0z" />
    <glyph glyph-name="parenright" unicode=")" horiz-adv-x="329" 
d="M177 755q37 -92 54 -202t11 -227t-35 -236t-84 -229l-57 -13q41 109 68.5 219.5t36.5 222t-2 223t-47 221.5l55 21v0z" />
    <glyph glyph-name="asterisk" unicode="*" horiz-adv-x="521" 
d="M303 553l111 -119l-70 -54l-80 147l-112 -147l-56 55l132 118l-144 80l44 63l121 -103l-8 174l84 1l-36 -177l138 96l31 -66z" />
    <glyph glyph-name="plus" unicode="+" horiz-adv-x="580" 
d="M510 246q-45 -2 -91 -2.5t-97 1.5q-6 -64 -11.5 -124.5t-8.5 -115.5l-69 -9q2 58 7 120.5t11 131.5q-48 2 -91 2t-87 1l3 65q46 1 90 0.5t93 -2.5q5 57 10 112.5t10 106.5l67 3q-3 -54 -6.5 -108.5t-9.5 -115.5q48 -2 93.5 -3t89.5 0z" />
    <glyph glyph-name="comma" unicode="," horiz-adv-x="237" 
d="M157 107q2 -72 -22.5 -133.5t-69.5 -106.5l-31 29q24 40 34.5 90.5t8.5 101.5l80 19v0z" />
    <glyph glyph-name="hyphen" unicode="-" horiz-adv-x="369" 
d="M296 229q-29 -5 -57.5 -2t-58.5 8q-29 5 -58 8.5t-58 1.5l8 87q29 6 58 4t59 -7l58 -10t58 -3z" />
    <glyph glyph-name="period" unicode="." horiz-adv-x="226" 
d="M143 38q0 -29 -18 -48t-44 -19q-22 0 -33.5 13.5t-11.5 34.5q0 29 16 49t42 20q22 0 35.5 -14t13.5 -36z" />
    <glyph glyph-name="slash" unicode="/" horiz-adv-x="402" 
d="M422 752q-36 -100 -82 -188t-95.5 -175.5t-100 -180.5t-95.5 -202l-68 -11q38 100 84.5 188.5t96 176.5t99 181t93.5 203l68 8v0z" />
    <glyph glyph-name="zero" unicode="0" horiz-adv-x="663" 
d="M625 468q0 -54 -8.5 -111t-26 -110.5t-45.5 -101.5t-67 -83.5t-90 -56.5t-115 -21q-71 0 -117 25.5t-73 68.5t-37.5 99t-10.5 117q0 55 8 111.5t25.5 110t45.5 100.5t67 82t90 55.5t116 20.5q69 0 115 -25.5t73 -68t38.5 -97.5t11.5 -115zM532 458q0 44 -6.5 89.5t-25 83
t-52.5 61t-89 23.5q-48 0 -83.5 -20.5t-61.5 -55t-42.5 -78t-26.5 -89.5t-14 -90.5t-4 -80.5q0 -41 6 -85.5t24 -82t50 -62t84 -24.5q50 0 87.5 20t64 52.5t44 75.5t27.5 88.5t14 91t4 83.5z" />
    <glyph glyph-name="one" unicode="1" horiz-adv-x="486" 
d="M418 -1l-354 -12l4 66q28 1 73.5 2.5t90.5 3.5q1 29 5 77.5t9.5 105t11.5 117.5t11.5 115.5t9.5 97.5t5 65l-167 -54l-12 65l204 72l63 7q-1 -33 -5.5 -83.5t-10.5 -110.5t-13 -125.5t-13.5 -128.5t-11.5 -119.5t-7 -97.5q38 2 66 3t50 2z" />
    <glyph glyph-name="two" unicode="2" horiz-adv-x="509" 
d="M434 -13q-13 -1 -26 -1.5t-26 -0.5q-82 0 -166 6.5t-165 20.5l-11 67q29 23 65.5 49.5t74.5 56.5t74.5 64.5t64.5 73.5t45.5 82t17.5 92q0 47 -22.5 78.5t-56 50t-71.5 26t-69 7.5q-38 0 -81 -8l19 77q23 4 45.5 5.5t45.5 1.5q43 0 90 -10.5t86 -34t64.5 -62.5t27.5 -96
q2 -68 -12 -123t-37.5 -99.5t-54 -80t-62.5 -63t-62.5 -49t-53.5 -38.5q71 -10 139 -14t140 1z" />
    <glyph glyph-name="three" unicode="3" horiz-adv-x="509" 
d="M469 576q-1 -30 -13.5 -57.5t-34 -50t-51.5 -39.5t-66 -27q36 -3 66.5 -17.5t52.5 -38t34 -55t11 -67.5q-2 -61 -34.5 -105.5t-81 -73t-106 -42.5t-109.5 -14q-20 0 -39 2t-39 6l-4 78q48 -19 104 -19q36 0 74.5 9.5t70 29t52 50t22.5 72.5q1 42 -19 72t-52 47.5
t-70.5 23.5t-74.5 2l-2 71q6 -1 13 -1h13q31 0 65 7.5t62.5 23.5t47.5 40.5t20 58.5q1 36 -15 58.5t-42 35t-57.5 17t-60.5 4.5q-17 0 -34.5 -1.5t-34.5 -3.5l16 68q42 6 84 6q43 0 85 -8.5t75.5 -28t53.5 -52.5t18 -81z" />
    <glyph glyph-name="four" unicode="4" horiz-adv-x="580" 
d="M521 197q-8 -1 -21.5 -2t-29.5 -2t-32 -1.5t-29 -0.5q-3 -24 -5 -49t-4 -48.5t-3.5 -44t-1.5 -34.5l-79 -13q1 27 5 79t11 110q-38 0 -79.5 1.5t-80.5 3.5t-72.5 4.5t-53.5 5.5l-4 62q23 72 57 130.5t68 112.5t62.5 108.5t41.5 117.5l80 14q-16 -85 -48.5 -149
t-68 -118.5t-67 -104.5t-45.5 -108q20 -3 48 -5t58.5 -3.5t60 -2t53.5 -0.5q8 46 15 80t12.5 61t10.5 49.5t9 45.5l74 7q-4 -29 -8 -52.5t-9 -49.5t-11 -58.5t-15 -80.5q13 0 28.5 0.5t30.5 1.5t28.5 2.5l22.5 2.5z" />
    <glyph glyph-name="five" unicode="5" horiz-adv-x="540" 
d="M509 747q-4 -17 -7 -36t-7 -36q-28 -5 -63.5 -6.5t-72.5 -3t-72.5 -2.5t-62.5 -4q-15 -57 -25.5 -113.5t-13.5 -97.5q53 4 106 -3.5t95 -30.5t67 -62.5t22 -98.5q-3 -62 -31 -111.5t-71.5 -83.5t-98 -52t-111.5 -18q-28 0 -54 3t-46 12l-2 75q15 -9 43.5 -15.5t55.5 -6.5
q42 0 82 11.5t71.5 34.5t51.5 57t22 78q3 55 -26.5 87t-74.5 46t-95.5 12.5t-89.5 -12.5q6 83 21.5 176.5t39.5 179.5q39 4 82.5 6t88 4t89.5 4t87 7z" />
    <glyph glyph-name="six" unicode="6" horiz-adv-x="568" 
d="M514 700q-54 -11 -104.5 -37.5t-93 -64.5t-76 -84.5t-52.5 -97.5q21 10 54 20.5t58 15.5q45 0 81.5 -15.5t62.5 -43t40 -65t14 -81.5q0 -57 -16 -105.5t-47.5 -83t-77 -54t-105.5 -19.5q-50 0 -85 19t-57.5 50.5t-32.5 73t-10 85.5q0 87 28.5 175t81 162.5t125.5 128
t162 72.5zM414 228q0 34 -11.5 65.5t-32 55.5t-50 38.5t-65.5 14.5q-20 0 -39.5 -4.5t-38.5 -11.5q-23 -80 -23 -159q0 -29 5 -60.5t18 -58t36 -44t59 -17.5q37 0 64 16t44.5 42t25.5 58t8 65z" />
    <glyph glyph-name="seven" unicode="7" horiz-adv-x="528" 
d="M483 661q-56 -56 -109.5 -129t-98.5 -159t-78 -183.5t-47 -201.5l-73 27q7 84 35.5 173.5t70 175.5t92 163t101.5 134q-33 7 -72 10.5t-79.5 4t-82 -2t-78.5 -5.5l13 74q104 10 208.5 3.5t189.5 -25.5l8 -59v0z" />
    <glyph glyph-name="eight" unicode="8" horiz-adv-x="580" 
d="M530 589q0 -23 -7.5 -50t-22 -53t-34 -46.5t-43.5 -29.5q-4 -1 -13 -2.5t-20 -3t-22 -3.5t-20 -4q82 -42 127 -95t42 -123q-2 -40 -18.5 -75.5t-47.5 -61.5t-77 -41.5t-106 -15.5q-47 0 -84.5 12t-64.5 35t-41.5 56t-13.5 75q1 56 22 100t51 73q16 7 34 14q14 6 31.5 13
t33.5 14q-60 40 -90 85.5t-29 105.5q1 41 17 75.5t45 60t69 40t88 14.5q97 0 145 -47t49 -122zM433 166q1 39 -14 68t-40 52t-57 41.5t-63 36.5q-45 -28 -76 -74t-35 -97q-5 -67 31.5 -110.5t102.5 -43.5q32 0 59.5 8.5t47.5 25t31.5 40t12.5 53.5zM453 583q0 30 -11 52.5
t-29 37.5t-40.5 22.5t-44.5 7.5q-51 0 -88.5 -30t-42.5 -87q-2 -32 5 -56.5t23 -45t41 -38t58 -35.5q57 21 92.5 67t36.5 105z" />
    <glyph glyph-name="nine" unicode="9" horiz-adv-x="568" 
d="M498 517q0 -87 -29 -175.5t-82 -163.5t-127 -128.5t-163 -71.5l-41 58q54 12 102.5 38t89.5 62.5t74 81.5t54 95q-20 -11 -52 -22.5t-59 -18.5q-44 0 -81 17.5t-63 47t-40.5 68t-14.5 81.5q0 56 17.5 104t49.5 82.5t78.5 54t103.5 19.5q49 0 84 -19.5t57 -51.5t32 -73.5
t10 -84.5zM410 501q0 28 -5 60.5t-18.5 60.5t-36.5 47t-58 19q-37 0 -63.5 -16.5t-44 -42.5t-26 -58.5t-8.5 -64.5q0 -35 10.5 -66.5t30.5 -56.5t49 -39.5t66 -14.5q20 0 40 4.5t40 11.5q11 38 17.5 77t6.5 79z" />
    <glyph glyph-name="colon" unicode=":" horiz-adv-x="264" 
d="M179 433q0 -29 -18 -48t-44 -19q-22 0 -33.5 13.5t-11.5 34.5q0 29 16 49t42 20q22 0 35.5 -14t13.5 -36zM143 38q0 -29 -18 -48t-44 -19q-22 0 -33.5 13.5t-11.5 34.5q0 29 16 49t42 20q22 0 35.5 -14t13.5 -36z" />
    <glyph glyph-name="semicolon" unicode=";" horiz-adv-x="264" 
d="M157 107q2 -72 -22.5 -133.5t-69.5 -106.5l-31 29q24 40 34.5 90.5t8.5 101.5zM196 433q0 -29 -18 -48t-44 -19q-22 0 -33.5 13.5t-11.5 34.5q0 29 16 49t42 20q22 0 35.5 -14t13.5 -36z" />
    <glyph glyph-name="less" unicode="&#x3c;" horiz-adv-x="420" 
d="M344 473q-51 -41 -104.5 -90t-101.5 -101q42 -61 93 -108t103 -99l-48 -51q-23 21 -52.5 48.5t-59 57t-55 59t-40.5 55.5l2 71q22 24 49.5 52t57 55.5t60 54t57.5 48.5l39 -52v0z" />
    <glyph glyph-name="equal" unicode="=" horiz-adv-x="580" 
d="M492 104q-99 -5 -203.5 1t-210.5 9l7 64q106 3 208.5 -3t202.5 -4zM509 349q-99 -5 -203.5 -0.5t-210.5 7.5l7 65q106 3 208 -3t202 -4z" />
    <glyph glyph-name="greater" unicode="&#x3e;" horiz-adv-x="420" 
d="M339 229q-22 -24 -49.5 -52t-57 -55.5t-60 -54t-57.5 -48.5l-39 52q51 41 104.5 90t101.5 101q-42 61 -93 108t-103 99l48 51q22 -21 52 -48.5t59.5 -57t55 -59t40.5 -55.5z" />
    <glyph glyph-name="question" unicode="?" horiz-adv-x="337" 
d="M325 547q0 -48 -17.5 -91.5t-42.5 -84.5t-52.5 -80.5t-48.5 -81.5l-61 20q15 39 39 76.5t46.5 75t38.5 76t15 81.5q-1 35 -16 61t-39 43.5t-53.5 27t-58.5 11.5l21 61q110 -4 169.5 -55.5t59.5 -139.5zM151 38q0 -29 -18 -48t-44 -19q-22 0 -33.5 13.5t-11.5 34.5
q0 29 16 49t42 20q22 0 35.5 -14t13.5 -36z" />
    <glyph glyph-name="at" unicode="@" horiz-adv-x="772" 
d="M737 352q0 -61 -16 -111t-44 -86t-65 -55.5t-79 -19.5q-35 0 -63.5 14.5t-42.5 49.5q-20 -16 -43 -29.5t-43 -24.5q-26 -2 -48.5 6t-39.5 24.5t-27 40.5t-10 54q0 53 16.5 99t44 79.5t63.5 53t74 19.5q23 0 54.5 -6t57.5 -17q-5 -26 -10.5 -56.5t-11 -61.5t-10 -58.5
t-6.5 -47.5q-5 -38 6 -64.5t52 -26.5q23 0 46 14t41.5 41.5t30 69t11.5 95.5q0 71 -23.5 116.5t-60 71.5t-80.5 36t-84 10q-69 0 -128.5 -24.5t-103 -71t-68 -112.5t-24.5 -149q0 -73 22 -120.5t55.5 -75t74.5 -38.5t79 -11q16 0 39.5 2t49.5 9l5 -52q-26 -10 -52.5 -13
t-53.5 -3q-60 0 -112.5 18t-90.5 55t-60 93.5t-22 133.5q0 92 30 168t84 130.5t128 84.5t162 30q58 0 111.5 -17t94.5 -52t65.5 -88.5t24.5 -126.5zM462 406q-14 6 -31.5 9t-31.5 3q-25 0 -46.5 -16t-37 -42t-24.5 -60.5t-9 -71.5q0 -91 70 -91q23 0 41.5 13t30.5 33
q8 56 17.5 109.5t20.5 113.5z" />
    <glyph glyph-name="A" unicode="A" horiz-adv-x="560" 
d="M460 -18q-15 30 -30.5 89t-29.5 131q-27 -1 -60.5 -3t-65.5 -4.5t-61 -6t-47 -6.5l-32 56q-12 -27 -24 -58t-24 -61.5t-22.5 -60t-18.5 -54.5l-84 -13q25 80 64.5 179t86 202.5t96 205t94.5 185.5l76 14q24 -98 41 -206t34.5 -211.5t37 -194.5t47.5 -155zM388 272
q-10 43 -16 80.5t-12 79.5t-14 94.5t-23 125.5q-27 -53 -50 -99t-44.5 -92.5t-43.5 -97.5t-47 -112q57 8 116.5 15t133.5 6z" />
    <glyph glyph-name="B" unicode="B" horiz-adv-x="624" 
d="M574 228q0 -63 -22.5 -109t-60.5 -76t-87.5 -45t-104.5 -15q-13 0 -30 1t-35 3t-35 4.5t-30 6.5l-32 30l-77 -36q13 83 26.5 179.5t25.5 190.5t21 177t14 140q-23 -5 -37.5 -9t-27.5 -7q-1 13 -1.5 34t-0.5 34q66 20 135.5 31.5t138.5 11.5q39 0 76 -8t66 -27t46.5 -50
t17.5 -77q0 -39 -12.5 -74t-36 -62.5t-55.5 -45.5t-71 -23v-5q40 0 74.5 -12.5t60 -35.5t40 -55t14.5 -71zM484 212q0 46 -18 75.5t-47 46t-64.5 23t-70.5 6.5h-12h-18.5h-18.5h-12l-27 29q-5 -38 -10 -80.5t-10.5 -84.5t-11.5 -80t-11 -67q26 -16 64.5 -25.5t74.5 -9.5
q34 0 68.5 9t62 29t44.5 52t17 77zM475 595q0 37 -13.5 59.5t-35.5 34.5t-48.5 15.5t-52.5 3.5q-23 0 -47.5 -4t-52.5 -11q-2 -25 -4 -55.5t-5 -64.5t-7 -69.5t-9 -69.5q40 -6 88.5 -1.5t89.5 23t69 52.5t28 87z" />
    <glyph glyph-name="C" unicode="C" horiz-adv-x="527" 
d="M476 634q-20 41 -52 60.5t-74 19.5q-38 0 -75 -25t-68 -72.5t-52.5 -117t-26.5 -157.5q-4 -66 6 -120t33 -92.5t59 -60t85 -21.5q38 0 81 14t80 38l4 -67q-38 -25 -94.5 -37t-126.5 -12q-50 0 -90.5 22t-69 62t-44.5 97t-16 128q0 123 32 214t81 150t108.5 88t114.5 29
q76 0 114 -24.5t52 -76.5z" />
    <glyph glyph-name="D" unicode="D" horiz-adv-x="703" 
d="M669 438q0 -92 -28.5 -175t-81 -145t-126 -98.5t-164.5 -36.5q-19 0 -49 2.5t-50 5.5l-30 33l-86 -40q26 168 48.5 339.5t39.5 360.5l-65 -15q-1 13 -1.5 33.5t-0.5 33.5q65 19 135.5 28.5t136.5 9.5q154 0 238 -88t84 -248zM577 430q0 64 -17 115.5t-50 88t-82 56
t-113 19.5q-16 0 -34 -1t-36.5 -3.5t-36 -5.5t-32.5 -7l42 -42q-11 -146 -29 -287t-45 -295q26 -10 58 -14.5t59 -4.5q79 0 138.5 32.5t99 86t59 122t19.5 140.5z" />
    <glyph glyph-name="E" unicode="E" horiz-adv-x="544" 
d="M516 28q-18 -9 -43.5 -17t-55.5 -14t-63.5 -9.5t-66.5 -3.5q-39 0 -75.5 10t-64.5 34t-43.5 63t-13.5 97q1 42 8 98.5t16 117t18 120.5t15 109q6 4 12 9q5 5 12 10.5t15 13.5q-19 -5 -47.5 -10t-50.5 -4q-1 14 -1.5 33.5t-0.5 31.5q51 7 102 19t101.5 22.5t101 17
t101.5 3.5l18 -64q-39 2 -74.5 -2t-70 -10.5t-69 -14.5t-71.5 -14q-4 -68 -11 -129t-17 -135q24 3 57.5 7t70 8.5t74 8.5t70.5 6l-8 -71q-56 -4 -121 -12t-118 -13l-30 33q-6 -42 -11 -80.5t-6 -80.5q-1 -41 5.5 -70.5t23.5 -49.5t46 -29.5t73 -9.5q24 0 51 4t52.5 11t48 16
t38.5 19l3 -79v0z" />
    <glyph glyph-name="F" unicode="F" horiz-adv-x="455" 
d="M487 723q-47 -3 -80.5 -9t-64.5 -13.5t-63.5 -14.5t-78.5 -11q12 -5 23.5 -11.5t25.5 -16.5l-36 -245q21 0 50.5 1t60 2.5t59 4t48.5 4.5l-7 -68q-18 -2 -43.5 -4t-55 -3.5t-60.5 -2t-60 -0.5q-5 -50 -10.5 -94t-9.5 -89q-4 -39 -5 -78t4 -74l-80 -14q-6 38 -6 76t4 77
q4 45 10.5 91t13.5 105h-53l11 64h49l41 268q-42 -6 -65.5 -8t-40.5 -3l-9 65q60 4 107.5 14t96 20.5t104.5 20t133 13.5z" />
    <glyph glyph-name="G" unicode="G" horiz-adv-x="606" 
d="M567 283q-23 -94 -28.5 -190.5t3.5 -192.5l-76 -7q-3 19 -4.5 34.5t-2 33.5t0 42t1.5 62q-21 -21 -42 -36t-44 -24.5t-50 -13.5t-61 -4q-59 0 -102 27.5t-71 72t-42 101t-14 114.5q0 80 22 164t64.5 152.5t106 112t147.5 43.5q32 0 61 -5t52.5 -17t41.5 -31.5t28 -49.5
l-61 -42q-20 38 -53 60.5t-87 22.5q-44 0 -78 -21.5t-59.5 -56.5t-43.5 -79t-28.5 -89t-15.5 -86.5t-5 -70.5q0 -41 8 -86t28 -83.5t54.5 -63.5t88.5 -25q49 0 90.5 24t70.5 72q5 43 10 76.5t15 71.5l75 -12v0z" />
    <glyph glyph-name="H" unicode="H" horiz-adv-x="700" 
d="M649 771q-18 -85 -32 -180t-22 -193t-10 -194.5t5 -183.5l-79 -29q-5 69 -5.5 158.5t7.5 207.5q-38 -7 -80 -10.5t-81.5 -5.5t-73.5 -2.5t-56 -0.5l-37 46q-14 -112 -22 -202.5t-6 -178.5l-80 -17q-3 96 5.5 191t21 190t26 190t22.5 190l76 20q-4 -72 -14 -160t-25 -195
q78 -8 165 -4.5t165 17.5q11 100 23.5 183.5t29.5 149.5l77 13v0z" />
    <glyph glyph-name="I" unicode="I" horiz-adv-x="284" 
d="M228 767q-5 -96 -17 -191t-24.5 -190t-22 -190t-7.5 -191l-80 -18q-4 96 4 191t21 190t27 189.5t23 189.5l76 20v0z" />
    <glyph glyph-name="J" unicode="J" horiz-adv-x="370" 
d="M326 708q-12 -15 -21.5 -55.5t-16 -96t-10.5 -118.5t-7 -123q-8 -159 -42.5 -280t-100.5 -186l-69 23q25 30 45.5 68.5t36 83t26 92t15.5 94.5q6 52 10.5 110t8.5 115.5t8.5 110.5t9.5 94q12 15 25.5 27.5t35.5 31.5q-50 -4 -86 -8.5t-64 -9t-49.5 -9.5t-40.5 -9l-16 73
q24 6 55.5 11.5t66.5 9.5t73 5.5t75 0.5l32 -55v0z" />
    <glyph glyph-name="K" unicode="K" horiz-adv-x="602" 
d="M592 734q-30 -27 -71.5 -65t-85 -81t-84.5 -88t-70 -87q39 -45 76.5 -92.5t74.5 -96t75 -96.5t77 -92l-62 -52q-48 52 -89.5 103.5t-81 103.5t-80.5 103.5t-88 104.5q-15 -115 -24 -210t-7 -185l-79 -17q-3 96 5 191t20 190t25.5 190t22.5 190l76 19q-2 -39 -5.5 -78.5
t-8 -83.5t-11 -93t-13.5 -107q94 131 182 219.5t160 147.5l66 -38v0z" />
    <glyph glyph-name="L" unicode="L" horiz-adv-x="470" 
d="M456 10q-21 -7 -47.5 -12t-53.5 -8t-52.5 -4.5t-45.5 -1.5q-39 0 -73 10.5t-58.5 34.5t-38 63t-10.5 96q3 63 12 137.5t20 149.5t21 145.5t14 125.5l76 20q-4 -74 -13 -151t-19.5 -150.5t-19 -139.5t-10.5 -117q-2 -38 5 -66.5t24.5 -48t47 -29.5t73.5 -10q17 0 37 3
t40 8.5t38 12t30 12.5l3 -80v0z" />
    <glyph glyph-name="M" unicode="M" horiz-adv-x="823" 
d="M766 772q-7 -54 -14 -122t-12.5 -141t-8.5 -147.5t-2.5 -142t6 -125t17.5 -95.5l-78 -17q-29 74 -29 215.5t22 354.5h-4q-40 -78 -79.5 -157t-73 -148.5t-58.5 -124.5t-37 -84l-70 -21q-14 43 -26.5 94.5t-27 119t-31.5 154t-38 199.5h-4q-24 -94 -43.5 -173.5t-34 -150
t-24 -134.5t-14.5 -127q-14 -3 -37 -6t-40 -7q4 98 23.5 193.5t43.5 190.5t49 189.5t42 190.5l73 22q30 -131 61 -288t78 -334q23 47 50 101.5t54.5 111l55 113t52 108t45 95.5t34.5 76l80 17v0z" />
    <glyph glyph-name="N" unicode="N" horiz-adv-x="729" 
d="M666 753q0 -93 -9 -186t-22 -186t-27.5 -186t-25.5 -184l-67 -27q-56 161 -134 321.5t-160 309.5q-39 -193 -64 -344t-27 -269q-14 -3 -34.5 -6.5t-36.5 -7.5q0 97 12.5 192.5t30 190t36 189.5t31.5 190l66 19q22 -56 56.5 -123t74.5 -144.5t83 -165t83 -183.5
q32 206 47 358.5t19 253.5l68 -12v0z" />
    <glyph glyph-name="O" unicode="O" horiz-adv-x="660" 
d="M625 468q0 -54 -8.5 -111t-26 -110.5t-45.5 -101.5t-67 -83.5t-90 -56.5t-115 -21q-71 0 -117 25.5t-73 68.5t-37.5 99t-10.5 117q0 55 8 111.5t25.5 110t45.5 100.5t67 82t90 55.5t116 20.5q69 0 115 -25.5t73 -68t38.5 -97.5t11.5 -115zM532 458q0 44 -6.5 89.5t-25 83
t-52.5 61t-89 23.5q-48 0 -83.5 -20.5t-61.5 -55t-42.5 -78t-26.5 -89.5t-14 -90.5t-4 -80.5q0 -41 6 -85.5t24 -82t50 -62t84 -24.5q50 0 87.5 20t64 52.5t44 75.5t27.5 88.5t14 91t4 83.5z" />
    <glyph glyph-name="P" unicode="P" horiz-adv-x="593" 
d="M570 573q0 -63 -21.5 -113.5t-58.5 -86.5t-86.5 -55.5t-105.5 -19.5q-7 0 -22 0.5t-32 3.5q-15 11 -29 26.5t-22 25.5q-12 -86 -24 -172.5t-3 -173.5l-83 -20q-2 76 5 158.5t18.5 167t24.5 169t22 165.5q4 6 12.5 14t16.5 15t14.5 12.5t7.5 6.5l-47.5 -9.5t-28.5 -5.5
t-18.5 -4t-19.5 -5q-1 14 -1.5 32.5t-0.5 32.5q57 15 125 26t139 11q45 0 84.5 -13.5t69.5 -39t47 -63t17 -85.5zM482 561q0 41 -13.5 69t-36.5 45t-53.5 24.5t-65.5 7.5q-17 0 -40 -1.5t-40 -5.5q-3 -44 -6.5 -81.5t-8 -74.5t-10 -75.5t-11.5 -82.5q13 -8 34 -15.5t44 -7.5
q40 0 77.5 13.5t66 39t46 62.5t17.5 83z" />
    <glyph glyph-name="Q" unicode="Q" horiz-adv-x="660" 
d="M638 -164q-77 -5 -146.5 10t-136.5 35.5t-133.5 38.5t-136.5 20l13 63q17 1 33 -0.5t33 -3.5l1 8q-38 17 -63 46.5t-40 67.5t-21 82t-6 91q0 55 8 111.5t25.5 110t45.5 100.5t67 82t90 55.5t116 20.5q69 0 115 -25.5t73 -68t38.5 -97.5t11.5 -115q0 -81 -19 -166.5
t-61 -155.5t-109 -115t-163 -45h-14q-1 -2 -1 -3t-1 -1q47 -11 93.5 -25.5t93 -26.5t93.5 -19.5t95 -4.5zM532 458q0 44 -6.5 89.5t-25 83t-52.5 61t-89 23.5q-48 0 -83.5 -20.5t-61.5 -55t-42.5 -78t-26.5 -89.5t-14 -90.5t-4 -80.5q0 -41 6 -85.5t24 -82t50 -62t84 -24.5
q50 0 87.5 20t64 52.5t44 75.5t27.5 88.5t14 91t4 83.5z" />
    <glyph glyph-name="R" unicode="R" horiz-adv-x="598" 
d="M500 -16q-24 18 -49.5 47t-51 64t-51.5 73.5t-52 75.5t-51.5 69.5t-50.5 56.5q-8 -61 -14.5 -109t-11.5 -91t-9 -84t-8 -87l-78 -15q3 79 12.5 163.5t21.5 170t24.5 169.5t21.5 163q6 7 20.5 21t26.5 22q-32 -6 -60 -13t-51 -14q0 7 -0.5 16.5l-1 19t-0.5 18.5v15
q58 15 128.5 27t136.5 12q37 0 75.5 -10.5t70 -33t51.5 -58.5t20 -87q0 -46 -15 -88t-45 -75t-74.5 -54t-102.5 -26q25 -42 56 -86.5t63.5 -86.5t64.5 -78.5t59 -63.5zM479 576q0 69 -43.5 100.5t-115.5 31.5q-41 0 -87 -9q-2 -66 -11 -144t-26 -175q13 13 18.5 19.5t7.5 9
t3.5 3.5t6.5 4q7 -5 17.5 -8.5t20.5 -5.5t18 -3t12 -1q36 0 68.5 12t57 34.5t39 56t14.5 75.5z" />
    <glyph glyph-name="S" unicode="S" horiz-adv-x="389" 
d="M338 723q-36 -12 -67.5 -30.5t-55.5 -40.5t-37.5 -46.5t-13.5 -48.5q0 -46 25 -87.5t55 -83.5t55 -87t25 -98q0 -54 -21 -95t-57.5 -70.5t-86 -48t-106.5 -28.5l-26 61q34 4 71 16.5t67.5 32.5t50 47.5t19.5 62.5t-11.5 64t-29.5 56t-38 53.5t-38 55t-29.5 60t-11.5 69.5
q0 45 18 83.5t48 70t69.5 55t83.5 37.5l42 -60v0z" />
    <glyph glyph-name="T" unicode="T" horiz-adv-x="491" 
d="M542 725q-15 -9 -32 -17t-43.5 -13t-66.5 -8t-102 -3q6 -5 14 -11t15 -12l16 -14q-3 -25 -9.5 -70t-14.5 -101t-16 -120t-14.5 -126.5t-11 -121t-4.5 -103.5l-83 -14q0 33 3.5 76.5t8 93t11 103t12.5 104.5q6 46 12.5 92.5t12.5 88.5l11 77t8 58q-58 2 -116 0t-114 -19
l-8 62q32 11 76 17t86 6h110q61 0 124 8t115 27v-60v0z" />
    <glyph glyph-name="U" unicode="U" horiz-adv-x="699" 
d="M642 770q-9 -57 -16.5 -122.5t-13 -131.5t-9.5 -128t-5 -111q-1 -31 0 -66.5t4 -72t9 -71t17 -62.5l-80 -19q-3 9 -6 17.5t-6.5 22t-7.5 34.5t-8 53q-67 -74 -131.5 -101.5t-127.5 -27.5q-39 0 -73 14.5t-57.5 45.5t-35.5 79.5t-8 116.5q4 64 13.5 127t19.5 126
t17.5 126.5t7.5 127.5l79 20q2 -30 0.5 -63t-4.5 -67.5t-8 -68.5t-9 -66q-11 -78 -19.5 -150t-8.5 -139q0 -76 29.5 -118.5t96.5 -42.5q31 0 62.5 11.5t60 31t51.5 44.5t38 51q1 70 5.5 148.5t11 154.5t15 144.5t17.5 119.5l80 13v0z" />
    <glyph glyph-name="V" unicode="V" horiz-adv-x="578" 
d="M588 771q-14 -98 -43 -201.5t-70.5 -205.5t-92 -198t-105.5 -179l-65 18q-27 84 -45 174.5t-34.5 185.5t-35.5 192.5t-48 196.5l82 17q23 -74 40.5 -162.5t33 -178.5t30.5 -175t33 -152q40 72 78.5 153.5t70.5 166.5t55.5 170t34.5 164l81 14v0z" />
    <glyph glyph-name="W" unicode="W" horiz-adv-x="997" 
d="M1010 767q-12 -108 -40.5 -218t-68 -212.5t-86.5 -192.5t-95 -158l-68 15q-15 42 -32 104t-34 137t-32.5 159t-27.5 169h-4q-48 -174 -114 -319t-147 -265l-67 15q-30 91 -47 185t-30 189.5t-28 190t-40 187.5l81 19q24 -86 38 -170t25 -168t23.5 -168.5t35.5 -171.5
q41 72 79 155t69.5 169t54 171t31.5 162l80 18q9 -66 24 -151.5t33.5 -176.5t41 -180t46.5 -164q37 70 73.5 154.5t66.5 172t50.5 173.5t27.5 158l81 12v0z" />
    <glyph glyph-name="X" unicode="X" horiz-adv-x="583" 
d="M597 743q-66 -83 -123.5 -172.5t-122.5 -182.5q57 -106 109.5 -201t103.5 -167l-77 -32q-30 38 -56 79.5t-49.5 85t-45.5 87.5t-45 86q-85 -122 -147.5 -208t-110.5 -131l-67 30q61 68 132.5 166.5t152.5 208.5q-55 107 -100.5 194t-83.5 153l75 30q15 -24 32.5 -54.5
t38 -69t45 -86.5t53.5 -108q71 107 123 189t90 130l73 -27v0z" />
    <glyph glyph-name="Y" unicode="Y" horiz-adv-x="529" 
d="M563 766q-24 -108 -69 -205.5t-97.5 -191.5t-106 -188t-95.5 -194l-80 9q27 67 62.5 135.5t73.5 131.5l-50 -5q-18 54 -41.5 115t-48.5 124.5t-48.5 127.5t-39.5 124l78 19q13 -49 33.5 -105.5t44 -117.5t48 -124t44.5 -124q34 55 67 116t60.5 120.5t47.5 114.5t29 98
l88 20v0z" />
    <glyph glyph-name="Z" unicode="Z" horiz-adv-x="511" 
d="M510 684q-47 -78 -98.5 -152.5t-105 -149.5t-108.5 -153t-109 -165q49 -4 100.5 -4.5t100.5 2t94.5 7.5t82.5 12l6 -76q-46 -8 -107.5 -11.5t-126 -4.5t-126.5 0.5t-109 3.5l-13 57q46 80 99.5 158.5t109 156.5t111 156.5t107.5 159.5q-56 4 -102.5 5.5t-87.5 0t-78 -6
t-73 -11.5l3 74q100 18 201.5 16t204.5 -10q7 -18 12 -32t12 -33z" />
    <glyph glyph-name="bracketleft" unicode="[" horiz-adv-x="330" 
d="M218 690q-4 -46 -10 -109t-13.5 -135t-15 -149t-14.5 -151t-12 -140t-7 -116l104 5l4 -45l-172 -18q2 60 7 136.5t12.5 159.5t16 169t16.5 166.5t14.5 150t10.5 120.5l144 18l4 -50z" />
    <glyph glyph-name="backslash" unicode="\" horiz-adv-x="437" 
d="M370 -1q-32 96 -75 188t-88 183.5t-85.5 183.5t-66.5 188l62 6q31 -96 74 -190t87.5 -186.5t85 -184.5t67.5 -184z" />
    <glyph glyph-name="bracketright" unicode="]" horiz-adv-x="330" 
d="M251 751q-2 -60 -7 -136.5t-12.5 -159.5t-16 -169t-16.5 -166.5t-14.5 -150t-10.5 -120.5l-144 -18l-4 50l89 12q3 45 9.5 108.5t14 135.5t15 149t14.5 151t12 140t7 116l-104 -5l-4 45l172 18v0z" />
    <glyph glyph-name="asciicircum" unicode="^" horiz-adv-x="550" 
d="M432 262q-16 18 -38 41.5t-44.5 47t-44 44.5t-37.5 35q-21 -16 -44.5 -37t-47 -43t-45.5 -44.5t-41 -41.5l-31 50q19 21 42 45t46.5 48.5t47 47.5t44.5 43l69 13q16 -21 37.5 -47t44.5 -52.5t45.5 -53t41.5 -49.5z" />
    <glyph glyph-name="underscore" unicode="_" horiz-adv-x="550" 
d="M486 -196q-54 -3 -108.5 -2.5t-108.5 1.5t-108.5 0.5t-109.5 -6.5l11 72q57 7 111 8t108 -0.5t107.5 -3.5t108.5 0z" />
    <glyph glyph-name="quoteleft" unicode="&#x2018;" horiz-adv-x="243" 
d="M226 735q-17 -29 -25.5 -57.5t-12.5 -57.5q-4 -26 -4 -50.5t1 -48.5l-68 -17q-3 75 16 140.5t64 106.5l29 -16v0z" />
    <glyph glyph-name="a" unicode="a" horiz-adv-x="493" 
d="M448 521q-7 -34 -14.5 -77t-13.5 -87t-11 -86t-8 -73q-2 -28 -2 -55.5t3.5 -52.5t9.5 -46t16 -34l-64 -27q-12 13 -21.5 35.5t-15.5 58.5q-32 -30 -62.5 -52.5t-62.5 -36.5q-8 -2 -22.5 -3t-19.5 -1q-57 0 -92.5 50t-35.5 138t25.5 159t65.5 121.5t89.5 77.5t97.5 27
q38 0 70 -8t68 -28zM365 483q-14 9 -32.5 14.5t-38.5 5.5q-32 0 -64.5 -21.5t-58 -61.5t-41.5 -97t-16 -128q0 -27 4.5 -53.5t15.5 -48.5t29.5 -35.5t45.5 -13.5q17 0 34 7t32 19t26.5 26.5t19.5 29.5q1 39 5 84t10 91.5t13.5 93t15.5 88.5z" />
    <glyph glyph-name="b" unicode="b" horiz-adv-x="505" 
d="M473 360q0 -89 -21.5 -159t-57 -118t-81.5 -73.5t-95 -25.5q-20 0 -42.5 3t-43.5 9t-39 14t-30 17q0 28 1.5 68t5 87t9 99t11.5 105q12 106 20.5 194t9.5 142l71 13q2 -35 0 -71.5t-6 -73t-9 -73t-8 -71.5q31 33 74.5 64.5t85.5 46.5q27 0 53 -10.5t46.5 -34t33 -61
t12.5 -91.5zM390 336q0 44 -8 74t-21 49t-29 27t-32 8q-17 0 -36 -9.5t-38 -26.5t-35.5 -40.5t-28.5 -52.5q-11 -86 -17.5 -157t-6.5 -142q14 -17 38 -28.5t52 -11.5q39 0 69 26.5t51 70t31.5 99t10.5 114.5z" />
    <glyph glyph-name="c" unicode="c" horiz-adv-x="408" 
d="M330 444q-6 20 -21 37.5t-45 17.5q-28 0 -54.5 -18.5t-47.5 -55t-33.5 -91t-12.5 -126.5q0 -71 29.5 -115t97.5 -44q25 0 55.5 11t50.5 26l6 -64q-29 -20 -70.5 -29t-82.5 -9q-48 0 -80.5 16.5t-52.5 44t-28 64.5t-8 79q0 85 20.5 153.5t54 116.5t78 73.5t92.5 25.5
t80 -19t41 -59z" />
    <glyph glyph-name="d" unicode="d" horiz-adv-x="496" 
d="M471 735q-2 -47 -8 -104.5t-14 -119.5q-11 -79 -21 -156t-15 -138q-5 -62 0 -117t23 -90l-72 -26q-8 15 -14.5 39.5t-11.5 50.5q-34 -30 -70 -53t-63 -34q-6 -2 -19.5 -2.5t-17.5 -0.5q-34 0 -59.5 14t-42.5 39.5t-25.5 60.5t-8.5 76q0 85 24 155t63.5 120.5t89 78.5
t100.5 28q40 0 71 -14q6 56 9.5 99t5.5 82zM371 481q-11 9 -31 16.5t-43 7.5q-33 0 -65.5 -21.5t-58.5 -62t-42.5 -98.5t-16.5 -132q0 -66 24 -106.5t73 -40.5q12 0 29 5t34.5 14.5t33.5 23.5t26 32q-2 32 0 68t6.5 79.5t12 96t18.5 118.5z" />
    <glyph glyph-name="e" unicode="e" horiz-adv-x="436" 
d="M403 433q0 -42 -19.5 -80.5t-51 -68t-70 -46.5t-77.5 -17h-16q-4 0 -9 1l-44 35q-5 -53 2 -93t22.5 -66t38 -39t48.5 -13q28 0 63 13t62 34l5 -67q-33 -22 -78 -32t-84 -10q-72 0 -117 50.5t-45 146.5q0 79 19.5 147.5t53 119.5t79 80t96.5 29q57 0 89.5 -30t32.5 -94z
M320 433q0 31 -15 50.5t-42 19.5q-26 0 -50 -18.5t-43 -50t-32.5 -73.5t-19.5 -90q32 -5 67.5 4.5t65.5 31.5t49.5 54t19.5 72z" />
    <glyph glyph-name="f" unicode="f" horiz-adv-x="376" 
d="M425 678q-14 4 -29 6.5t-30 2.5q-35 0 -60 -13.5t-43 -36t-29 -50.5t-17 -58h193l-9 -54h-193q-9 -83 -15 -165t-17 -165q-17 -129 -54.5 -218t-100.5 -143l-46 24q49 60 78.5 139.5t43.5 185.5q12 87 18 171.5t16 170.5h-83l11 44l28 4q12 2 26.5 3t26.5 2q9 45 26 85
t44 70t64.5 48t86.5 18q17 0 34 -2.5t34 -7.5z" />
    <glyph glyph-name="g" unicode="g" horiz-adv-x="493" 
d="M456 526q-6 -36 -14 -88t-16 -110.5t-15 -120t-11 -116.5q-14 -159 -78 -234t-161 -75q-14 0 -36.5 3t-44.5 9l2 65q55 -16 96.5 -9t71 35t48 76t26.5 114q-28 -26 -60.5 -46.5t-57.5 -31.5q-12 -3 -23 -4t-21 -1q-34 0 -58.5 14.5t-40.5 39.5t-23.5 58.5t-7.5 72.5
q0 78 21.5 147t59.5 121t88.5 82t109.5 30q32 0 71 -7.5t74 -23.5zM376 481q-18 8 -40 15t-44 7q-42 0 -75 -27t-56 -70t-35 -96.5t-12 -106.5q0 -80 22.5 -116.5t73.5 -36.5q14 0 30.5 6t32.5 17.5t30.5 27.5t24.5 37q7 86 18.5 171.5t29.5 171.5z" />
    <glyph glyph-name="h" unicode="h" horiz-adv-x="507" 
d="M449 395q-7 -41 -17 -96.5t-16 -112.5q-2 -20 -3.5 -42.5t-0.5 -45t4.5 -43.5t11.5 -38l-72 -27q-16 32 -18.5 83.5t6.5 114.5l25 169q11 75 -1 105.5t-47 30.5q-24 0 -51.5 -24t-52.5 -65t-45 -97t-28 -119l-24 -186l-74 -5q7 43 15 102t16 126t15.5 138t13.5 137.5
t9.5 125.5t3.5 102l71 9q2 -55 -3 -139t-23 -213q34 54 74.5 97.5t84.5 71.5q5 1 14 2t14 1q24 0 44.5 -11.5t34.5 -32.5t19.5 -51t-0.5 -67z" />
    <glyph glyph-name="i" unicode="i" horiz-adv-x="259" 
d="M194 557q0 -39 -4.5 -86t-10.5 -95.5t-13 -94t-11 -81.5q-8 -63 -9.5 -112.5t2.5 -84.5l-78 -18q-2 31 -2 74t5 89q4 42 12 94.5t15 106.5t11.5 105t3.5 89zM232 736q0 -26 -18.5 -45.5t-44.5 -19.5q-21 0 -34 14.5t-13 36.5q0 27 20 44t46 17q20 0 32 -13.5t12 -33.5z
" />
    <glyph glyph-name="j" unicode="j" horiz-adv-x="259" 
d="M197 556q-5 -52 -8.5 -119t-10 -140.5t-17 -149t-28 -144t-43.5 -125t-63 -92.5l-56 22q30 41 52.5 97t38 120t26 133t16.5 136.5t9.5 130t6.5 114.5zM228 736q0 -26 -18.5 -45.5t-44.5 -19.5q-21 0 -34 14.5t-13 36.5q0 27 20 44t46 17q20 0 32 -13.5t12 -33.5z" />
    <glyph glyph-name="k" unicode="k" horiz-adv-x="475" 
d="M447 461q0 -39 -13 -73t-36.5 -62.5t-56 -49.5t-71.5 -34q24 -71 65.5 -130t88.5 -93l-55 -42q-23 7 -49 30t-50.5 58.5t-46 80t-34.5 95.5q33 10 65.5 28t57.5 42.5t40.5 55t15.5 66.5q0 28 -14 41.5t-34 13.5t-47 -22t-53.5 -62t-48.5 -94.5t-32 -119.5
q-3 -18 -6 -43.5t-6 -51.5t-6 -51t-5 -42l-78 -7l14.5 101.5t17.5 127t17.5 139t14.5 139t9.5 126.5t1.5 101l76 8q2 -25 2 -56t-3.5 -74t-10 -100t-17.5 -135q37 63 78 108t81 72q6 1 19 3t18 2q40 0 65.5 -25.5t25.5 -70.5z" />
    <glyph glyph-name="l" unicode="l" horiz-adv-x="256" 
d="M203 737q2 -78 -11 -163t-25 -168q-6 -45 -12 -100.5t-10 -111t-4.5 -107t4.5 -90.5l-70 -8q-4 30 -4.5 75t2 98t8 111t13.5 115q6 40 12.5 85t12 90t9 87.5t3.5 77.5l72 9v0z" />
    <glyph glyph-name="m" unicode="m" horiz-adv-x="758" 
d="M702 426q0 -18 -4.5 -47t-10.5 -62.5t-12 -68t-9 -62.5q-4 -43 -3.5 -88.5t14.5 -80.5l-71 -27q-17 35 -19 87.5t8 118.5l26 174q5 34 4 57.5t-7.5 38t-17 20.5t-23.5 6q-23 0 -50 -23t-52.5 -62.5t-45.5 -94t-27 -117.5l-23 -194l-75 -4q4 25 9 58.5t9 65.5q4 36 9 75
q2 16 6 42.5t7.5 53t7 48.5t4.5 30q3 24 3 46.5t-5 39t-15 26.5t-27 10q-22 0 -48 -23t-50 -63t-43 -94t-27 -117l-24 -194l-74 -4q9 56 18.5 127t17.5 144.5t12 143t2 123.5l69 22q5 -33 3.5 -77.5t-6.5 -89.5q30 49 70.5 91.5t85.5 73.5q5 1 9.5 1h9.5q23 0 43 -9t34 -27
t20.5 -45.5t1.5 -65.5q34 50 68.5 83.5t73.5 61.5q5 1 11 1.5t11 0.5q42 0 72 -31t30 -99z" />
    <glyph glyph-name="n" unicode="n" horiz-adv-x="497" 
d="M440 400q-5 -42 -16 -93t-17 -108q-2 -20 -4 -44.5t-1 -49.5t4.5 -48t11.5 -40l-72 -27q-16 34 -18.5 87t7.5 119l26 174q5 34 3.5 57.5t-8 38t-17.5 21t-24 6.5q-22 0 -48.5 -23t-51 -63t-44 -94.5t-27.5 -117.5l-24 -194l-74 -4q6 37 12.5 85t12.5 100t12 105t9.5 100
t4.5 85.5t-1 62.5l69 22q4 -26 4 -72t-7 -94q35 55 74 94t81 69q13 3 26 3q22 0 42 -10.5t33.5 -31t19.5 -49.5t2 -66z" />
    <glyph glyph-name="o" unicode="o" horiz-adv-x="476" 
d="M444 360q0 -69 -15.5 -136.5t-48 -120.5t-83.5 -85.5t-122 -32.5q-77 0 -110 51.5t-33 137.5q0 66 15.5 134.5t47.5 123.5t81.5 90t117.5 35q39 0 67 -14t46.5 -40t27.5 -62.5t9 -80.5zM361 343q0 79 -21.5 120t-78.5 41q-32 0 -58.5 -24t-46 -66t-30.5 -98.5t-11 -122.5
q0 -33 4.5 -61t15.5 -48.5t30.5 -32t49.5 -11.5q36 0 63.5 24t46 65t27.5 96t9 118z" />
    <glyph glyph-name="p" unicode="p" horiz-adv-x="538" 
d="M506 374q0 -92 -21 -163.5t-57 -121t-83 -75.5t-99 -26q-16 0 -43 4.5t-44 12.5q-8 -58 -16.5 -114.5t-11.5 -106.5q-18 3 -40.5 6.5t-37.5 5.5q6 78 16.5 156.5t21 157.5t19 159t8.5 161q-21 -11 -37.5 -20t-27.5 -16l-7 46q13 9 30.5 19.5t37.5 21.5q-3 26 -5 39.5
t-4 22.5l76 25q1 -3 2 -7t2 -10t2 -16t3 -26q39 24 79.5 34t76.5 10q33 0 62 -10.5t51 -32.5t34.5 -56t12.5 -80zM421 342q0 28 -5 55.5t-19 49.5t-38.5 36t-62.5 14q-11 0 -24 -3t-27 -8.5t-27 -12t-23 -12.5q3 -45 1.5 -94.5t-5 -99t-9 -97.5t-11.5 -89q13 -18 35 -28
t45 -10q40 0 72 23t53.5 63t33 94.5t11.5 118.5z" />
    <glyph glyph-name="q" unicode="q" horiz-adv-x="504" 
d="M460 527q-5 -54 -15 -122.5t-21 -139t-20.5 -137.5t-13.5 -117q-5 -56 -5 -109.5t5 -95.5l-72 -18q-4 27 -6 55t-2 60.5t2.5 71.5t7.5 87q-26 -22 -55 -41t-65 -34q-46 -8 -78 4.5t-52 40t-29 66t-9 82.5q0 79 24 148t63 120t89.5 80t103.5 29q42 0 76 -7t72 -23z
M377 478q-16 12 -38.5 18.5t-44.5 6.5q-35 0 -67.5 -23.5t-57.5 -64.5t-39.5 -97t-14.5 -121q0 -29 4 -56.5t15 -49t30 -34.5t48 -13q12 0 28 6t32 16.5t30 24.5t23 30q13 97 28.5 183.5t23.5 173.5z" />
    <glyph glyph-name="r" unicode="r" horiz-adv-x="329" 
d="M353 546q2 -23 -3.5 -48t-16.5 -46q-17 10 -42 10q-35 0 -65 -39.5t-52 -104t-33 -147t-7 -169.5l-81 -14q-1 59 5 123.5t14 130.5q8 72 15.5 149.5t5.5 148.5l75 17q5 -32 3.5 -78.5t-9.5 -98.5q26 58 64 104.5t73 72.5q13 0 27 -2.5t27 -8.5z" />
    <glyph glyph-name="s" unicode="s" horiz-adv-x="295" 
d="M271 521q-38 -14 -63 -29.5t-40 -31.5t-21 -31t-6 -28q0 -33 16 -62t35 -58t35 -60.5t15 -70.5q-2 -66 -52.5 -115.5t-136.5 -72.5l-46 52q32 7 60 18t49 26.5t33.5 34t12.5 40.5q1 34 -15.5 63t-36 57.5t-35.5 59.5t-15 69q2 60 44.5 110t111.5 79l55 -50v0z" />
    <glyph glyph-name="t" unicode="t" horiz-adv-x="317" 
d="M314 475h-116q-11 -82 -18 -157.5t-7 -131.5q0 -51 19 -89.5t59 -61.5l-35 -50q-27 7 -49.5 24.5t-39 42.5t-25.5 56.5t-9 66.5q0 52 7.5 131t21.5 169h-77l9 44q16 3 30 5q12 2 25 3t21 2l12 70t13 69l75 10q-6 -35 -12 -73l-12 -76h116z" />
    <glyph glyph-name="u" unicode="u" horiz-adv-x="514" 
d="M466 555q-6 -36 -12 -79.5t-12 -90t-11.5 -93t-10.5 -88.5q-6 -51 -6 -104t11 -95l-74 -21q-6 18 -8.5 55.5t-2.5 74.5q-60 -90 -143 -127q-15 -3 -31 -3q-46 0 -74.5 31.5t-22.5 105.5q4 48 12 102t15 110q6 51 8.5 103.5t-2.5 98.5l76 22q5 -40 3.5 -91.5t-8.5 -117.5
q-2 -17 -6 -47.5t-8 -62.5t-7 -60.5t-3 -42.5q0 -18 2 -34.5t8 -28.5t17 -19t29 -7q27 0 52 21t45.5 57t35.5 84t22 101l32 234l74 12v0z" />
    <glyph glyph-name="v" unicode="v" horiz-adv-x="487" 
d="M462 557q3 -73 -13.5 -148t-48.5 -147.5t-79.5 -139t-107.5 -122.5l-68 -17q-1 54 -7.5 127t-17 149.5t-25 149t-32.5 124.5l76 24q13 -37 26 -93.5t23 -122t16.5 -134.5t7.5 -132q41 43 74.5 97t56.5 113.5t34.5 123t9.5 125.5l75 23v0z" />
    <glyph glyph-name="w" unicode="w" horiz-adv-x="812" 
d="M762 556q13 -85 9 -160.5t-19.5 -139t-40.5 -114t-56.5 -85.5t-66.5 -53.5t-69 -18.5q-26 0 -50 13t-42.5 43t-28.5 78t-8 118q-18 -32 -42.5 -65.5t-50.5 -65t-52.5 -59t-48.5 -48.5l-70 -16q0 65 -1.5 135t-6.5 141t-14 140.5t-24 133.5l75 25q10 -35 18.5 -86.5
t14 -114.5t8 -135t0.5 -147q87 79 142 193t66 270l78 18q-9 -75 -14 -140t-5 -116q0 -120 17 -184.5t68 -64.5q29 0 55.5 28t47 76t32.5 112t12 135q0 32 -2.5 61.5t-7.5 66.5l77 26v0z" />
    <glyph glyph-name="x" unicode="x" horiz-adv-x="444" 
d="M444 485q-17 -7 -34.5 -22t-38.5 -40t-46.5 -61.5t-58.5 -87.5q26 -99 64 -162t87 -73l-30 -55q-24 1 -47 11.5t-45.5 37.5t-44 74.5t-42.5 121.5q-60 -108 -109 -170.5t-89 -75.5l-34 57q45 19 97.5 85t109.5 166q-25 84 -57 148.5t-61 94.5l69 23q10 -8 21.5 -22
t25 -39.5t29 -65t32.5 -97.5q38 67 67 109t52 66t42 34t37 15l4 -72v0z" />
    <glyph glyph-name="y" unicode="y" horiz-adv-x="473" 
d="M476 557q-6 -66 -24.5 -129t-43.5 -125.5t-54 -123.5t-56.5 -122.5t-51 -123.5t-37.5 -125l-79 -15q2 14 8 38.5t14 52t17.5 54.5t18.5 46q-9 2 -19.5 6t-18.5 8q-11 4 -20 9q-19 56 -26 123t-9.5 136.5l-5 139t-12.5 130.5l77 20q13 -77 16 -151t5 -142.5t7 -129.5
t22 -112q13 28 31 68t38 85.5t40 94.5t36.5 96.5t28 90.5t14.5 77l84 24v0z" />
    <glyph glyph-name="z" unicode="z" horiz-adv-x="402" 
d="M381 479q-33 -53 -69 -103.5t-73 -100.5t-73.5 -100.5t-70.5 -102.5q29 -5 61.5 -6t64.5 0.5t61 5t52 8.5l3 -74q-32 -6 -74.5 -8.5t-87.5 -3t-88 1.5t-75 5l-10 51q64 111 142 213t151 207q-59 4 -115 3t-115 -11l2 69q72 13 144.5 11.5t147.5 -7.5q6 -14 11.5 -28.5
t10.5 -29.5z" />
    <glyph glyph-name="braceleft" unicode="{" horiz-adv-x="343" 
d="M325 730q-35 -23 -57 -53.5t-33 -65.5q-11 -39 -13.5 -79t-7.5 -81q-6 -56 -31 -95.5t-69 -50.5q41 -9 60.5 -43.5t20.5 -79.5q0 -22 -2 -40.5t-4.5 -37l-5 -37t-2.5 -40.5q0 -47 21.5 -82.5t54.5 -63.5l-49 -44q-45 24 -72 67t-27 95q0 40 6.5 86t8.5 86q2 35 -14.5 63
t-53.5 37l-3 60q44 11 66.5 46.5t29.5 86.5q3 21 5 45.5t5 49.5t7 48.5t12 42.5q19 45 46 71.5t58 38.5l43 -30v0z" />
    <glyph glyph-name="bar" unicode="|" horiz-adv-x="291" 
d="M221 760q-6 -87 -17 -185.5t-21.5 -198t-20 -197t-12.5 -183.5l-61 -5q3 91 11.5 190.5t19.5 199.5t22 195.5t18 179.5l61 4v0z" />
    <glyph glyph-name="braceright" unicode="}" horiz-adv-x="343" 
d="M293 264q-44 -11 -66.5 -46.5t-29.5 -86.5q-3 -21 -5 -45.5t-5 -49.5t-7.5 -48.5t-11.5 -42.5q-19 -45 -46 -71.5t-58 -38.5l-43 30q35 23 57 53.5t33 65.5q11 39 13.5 79t7.5 81q6 56 31 95.5t69 50.5q-41 9 -60.5 43.5t-20.5 79.5q0 22 2 40.5t4.5 37l5 37t2.5 40.5
q0 47 -21.5 82.5t-54.5 63.5l49 44q45 -24 72 -67t27 -95q0 -40 -6.5 -86t-8.5 -86q-2 -35 14.5 -63t53.5 -37l3 -60v0z" />
    <glyph glyph-name="asciitilde" unicode="~" horiz-adv-x="550" 
d="M484 397q-32 -48 -58.5 -70.5t-49 -28t-43 1.5t-39.5 17q-24 13 -47.5 24.5t-49.5 13.5q-25 2 -50 -9.5t-53 -40.5l-20 56q32 37 59.5 54t51.5 20t45.5 -4t41.5 -16q23 -11 45.5 -20.5t47.5 -7.5q23 2 44.5 16t44.5 44l30 -50v0z" />
    <glyph glyph-name="exclamdown" unicode="&#xa1;" horiz-adv-x="245" 
d="M161 313q0 -63 -5.5 -128t-12.5 -131t-14 -130.5t-10 -125.5l-85 -13q3 67 12 131t19 127.5l20 127t16 130.5zM201 505q0 -29 -16 -49t-42 -20q-22 0 -35.5 14t-13.5 36q0 29 18 48t44 19q22 0 33.5 -13.5t11.5 -34.5z" />
    <glyph glyph-name="cent" unicode="&#xa2;" horiz-adv-x="503" 
d="M383 428q-7 20 -28.5 35.5t-53.5 15.5q-29 0 -59 -16.5t-54.5 -48.5t-40 -80.5t-15.5 -112.5q0 -42 11 -71.5t30 -48t43.5 -27t51.5 -8.5q15 0 34.5 3.5t39 9t37.5 13t31 15.5l7 -68q-25 -14 -65 -25.5t-79 -15.5l-5 -70h-64l5 69q-38 0 -68.5 15t-51.5 42t-32 64.5
t-11 82.5q0 78 19.5 138t50 102.5t69.5 67t78 30.5l4 70h64l-4 -69q20 0 40 -3.5t37.5 -12t31 -23.5t21.5 -38z" />
    <glyph glyph-name="sterling" unicode="&#xa3;" horiz-adv-x="498" 
d="M449 479q-62 15 -110.5 10.5t-81.5 -26.5t-48.5 -59.5t-11.5 -87.5h229l-7 -57h-222q1 -11 2 -29.5t0 -38.5q-2 -42 -20.5 -75.5t-67.5 -56.5q30 3 72.5 2.5t89 -0.5t93 1t82.5 6l-16 -68q-54 -6 -112.5 -5t-115.5 3.5t-108.5 4t-90.5 -3.5l-3 44q42 17 67 36t38 44
t15.5 58t-0.5 78h-83l2 57h81q-5 68 20.5 118.5t72 81t109 39t132.5 -8.5z" />
    <glyph glyph-name="fraction" unicode="&#x2044;" horiz-adv-x="281" 
d="M364 760q-39 -89 -87.5 -183t-99 -189.5t-100 -191t-90.5 -186.5l-63 -9q44 100 94 198t100.5 192.5t97.5 185t85 174.5l63 9v0z" />
    <glyph glyph-name="yen" unicode="&#xa5;" horiz-adv-x="550" 
d="M538 556q-9 -34 -26 -72.5t-42.5 -79t-58.5 -81t-74 -78.5h179l-2 -58h-209q-2 -15 -3.5 -38.5t-3.5 -51t-4.5 -56.5t-5.5 -54l-81 3q4 25 7 54t4.5 56.5t2.5 50.5t1 36h-200l3 58h169q-56 67 -97 146t-68 154l79 15q10 -31 26 -68t37 -76.5t45.5 -79.5t51.5 -77
q76 74 121.5 147t65.5 137l83 13v0z" />
    <glyph glyph-name="florin" unicode="&#x192;" horiz-adv-x="498" 
d="M472 486q-12 4 -25 6.5t-26 2.5q-38 0 -67.5 -14.5t-50 -40t-31.5 -59t-12 -70.5h195l-4 -59h-195q-2 -16 -3.5 -35t-3.5 -44t-6 -56.5t-11 -72.5q-9 -53 -26.5 -97.5t-45 -76.5t-65 -50t-85.5 -18q-33 0 -64 6l7 60q24 -6 48 -6q34 0 59.5 15.5t44.5 42t31 63t18 78.5
q6 39 9.5 67t5.5 50t3.5 39.5t2.5 34.5h-140l5 59h138q3 52 19 97t44.5 78t70 51.5t94.5 18.5q39 0 73 -10z" />
    <glyph glyph-name="section" unicode="&#xa7;" horiz-adv-x="523" 
d="M471 264q0 -33 -14.5 -60.5t-38 -49t-54 -36.5t-61.5 -23q13 -18 17 -38.5t4 -43.5q0 -40 -16 -71t-42 -54t-60 -37t-70 -19l-18 47q25 6 49.5 14.5t43.5 22.5t30.5 34.5t11.5 49.5q0 34 -15 60t-37 47.5t-48.5 41.5t-48.5 43t-37 51.5t-15 66.5q0 34 14 62.5t36.5 51.5
t51.5 40t60 29q-20 35 -20 78q0 33 12 59t31.5 47t45 36.5t51.5 26.5l39 -34q-51 -25 -81 -56t-30 -66q0 -32 15.5 -57.5t38.5 -48t50.5 -44.5t50.5 -47t38.5 -54.5t15.5 -68.5zM391 253q0 36 -16 63t-39.5 50t-49.5 44.5t-46 45.5q-19 -8 -39.5 -20t-37.5 -28t-28 -36.5
t-11 -44.5q0 -33 15.5 -59t38 -48.5t47.5 -43t45 -42.5q21 7 42.5 17t39 24.5t28.5 33.5t11 44z" />
    <glyph glyph-name="currency" unicode="&#xa4;" horiz-adv-x="568" 
d="M448 428q20 -23 30 -55.5t10 -61.5q0 -45 -14.5 -93.5t-56.5 -102.5q8 -11 18 -23t20 -23q11 -13 24 -26l-46 -39q-7 11 -16 23q-8 11 -18 25.5t-22 31.5q-31 -21 -64.5 -29t-60.5 -8t-53.5 8.5t-51.5 31.5q-10 -12 -21 -25.5t-21 -25.5q-11 -14 -23 -27l-40 40l28 26
q12 11 24.5 24t23.5 25q-20 33 -25 61.5t-5 54.5q0 39 12.5 78.5t50.5 92.5l-22 28t-19 25q-10 13 -19 25l39 36l55 -83q36 24 69 30t66 6q14 0 41.5 -4t54.5 -18q10 14 20.5 27.5t18.5 25.5q10 13 18 27l40 -31zM402 291q0 19 -4.5 41.5t-16.5 41.5t-32.5 31.5t-51.5 12.5
q-32 0 -56 -16t-41 -42.5t-25.5 -59.5t-8.5 -66q0 -21 5 -43.5t17 -41.5t32 -31t50 -12q38 0 63.5 20.5t40.5 50t21.5 61t6.5 53.5z" />
    <glyph glyph-name="quotesingle" unicode="'" horiz-adv-x="222" 
d="M172 743q-2 -52 -9 -115.5t-21 -120.5l-40 14q-1 55 -0.5 108.5t2.5 99.5l68 14v0z" />
    <glyph glyph-name="quotedblleft" unicode="&#x201c;" horiz-adv-x="430" 
d="M414 735q-17 -29 -25.5 -57.5t-12.5 -57.5q-4 -26 -4 -50.5t1 -48.5l-68 -17q-3 75 16 140.5t64 106.5zM226 735q-17 -29 -25.5 -57.5t-12.5 -57.5q-4 -26 -4 -50.5t1 -48.5l-68 -17q-3 75 16 140.5t64 106.5z" />
    <glyph glyph-name="guillemotleft" unicode="&#xab;" horiz-adv-x="574" 
d="M507 468q-19 -18 -39.5 -39.5t-40.5 -45.5t-40 -48.5t-38 -48.5q24 -48 66 -94.5t81 -87.5l-47 -43q-21 19 -43.5 44t-44 52t-40 52.5t-29.5 45.5l-7 53q18 22 41 48.5t47 54t48 53t43 44.5zM284 468q-19 -18 -39.5 -39.5t-40.5 -45.5t-40 -48.5t-38 -48.5
q24 -48 66 -94.5t81 -87.5l-47 -43q-21 19 -43.5 44t-44 52t-40 52.5t-29.5 45.5l-7 53q18 22 41 48.5t47 54t48 53t43 44.5z" />
    <glyph glyph-name="guilsinglleft" unicode="&#x2039;" horiz-adv-x="349" 
d="M284 468q-19 -18 -39.5 -39.5t-40.5 -45.5t-40 -48.5t-38 -48.5q24 -48 66 -94.5t81 -87.5l-47 -43q-21 19 -43.5 44t-44 52t-40 52.5t-29.5 45.5l-7 53q18 22 41 48.5t47 54t48 53t43 44.5l43 -40v0z" />
    <glyph glyph-name="guilsinglright" unicode="&#x203a;" horiz-adv-x="349" 
d="M288 259q-18 -22 -41 -48.5t-47 -54t-48 -53t-43 -44.5l-43 40q19 18 39.5 39.5t40.5 45.5t40 48.5t38 48.5q-24 48 -66 94.5t-81 87.5l47 43q21 -19 43.5 -44t44 -52t40 -52.5t29.5 -45.5l7 -53v0z" />
    <glyph glyph-name="fi" horiz-adv-x="675" 
d="M544 535q-2 -38 -6.5 -83t-10.5 -90t-11.5 -87t-9.5 -75q-8 -63 -9.5 -112.5t2.5 -84.5l-78 -18q-2 31 -2 74t5 89q3 33 8.5 74t11.5 84.5t11 87t8 81.5h-254q-12 -86 -17.5 -171t-16.5 -171q-7 -50 -19 -100t-30.5 -96t-44.5 -85.5t-60 -67.5l-46 24q28 32 48.5 71.5
t35 84t24.5 92.5t17 96q6 40 9.5 82.5t6.5 84t6.5 81.5t8.5 75h-83l11 44q14 1 28 3q12 2 26 3t27 3q8 42 24 81.5t40.5 70t59 49.5t80.5 19q13 0 25 -1t24 -4l-3 -60q-17 3 -34 3q-57 0 -91 -42.5t-48 -114.5h83.5h86.5t83.5 1.5t73.5 4.5zM583 736q0 -26 -18.5 -45.5
t-44.5 -19.5q-21 0 -34.5 14.5t-13.5 36.5q0 27 20.5 44t46.5 17q20 0 32 -13.5t12 -33.5z" />
    <glyph glyph-name="fl" horiz-adv-x="620" 
d="M425 678q-14 4 -29 6.5t-30 2.5q-35 0 -60 -13.5t-43 -36t-29 -50.5t-17 -58h193l-9 -54h-193q-9 -83 -15 -165t-17 -165q-17 -129 -54.5 -218t-100.5 -143l-46 24q49 60 78.5 139.5t43.5 185.5q12 87 18 171.5t16 170.5h-83l11 44l28 4q12 2 26.5 3t26.5 2q9 45 26 85
t44 70t64.5 48t86.5 18q17 0 34 -2.5t34 -7.5zM567 737q2 -78 -11 -163t-25 -168q-6 -45 -12 -100.5t-10 -111t-4.5 -107t4.5 -90.5l-70 -8q-4 30 -4.5 75t2 98t8 111t13.5 115q6 40 12.5 85t12 90t9 87.5t3.5 77.5z" />
    <glyph glyph-name="endash" unicode="&#x2013;" horiz-adv-x="550" 
d="M486 266q-54 -3 -108.5 -2.5t-108.5 1.5t-108.5 0.5t-109.5 -6.5l11 72q57 7 111 8t108 -0.5t107.5 -3.5t108.5 0z" />
    <glyph glyph-name="dagger" unicode="&#x2020;" horiz-adv-x="419" 
d="M403 487q-23 -6 -60.5 -6.5t-90.5 2.5q-5 -30 -7.5 -48.5t-5.5 -35.5q-7 -43 -13 -94.5t-10.5 -103.5t-6 -101t1.5 -87l-67 -9q-3 30 -2.5 73t4 93t10 104.5t14.5 107.5q3 20 7 43t10 61q-45 -3 -78.5 -7.5t-59.5 -9.5l1 68q35 3 71.5 -0.5t71.5 -8.5q9 62 13.5 105.5
t4.5 77.5l67 8q-1 -22 -2.5 -43t-4 -44t-6 -48.5t-7.5 -56.5q46 7 81 13.5t64 14.5v-68v0z" />
    <glyph glyph-name="daggerdbl" unicode="&#x2021;" horiz-adv-x="419" 
d="M403 487q-23 -6 -60.5 -6.5t-90.5 2.5q-5 -34 -10 -64t-9 -59t-8 -60t-8 -68q94 10 157 30v-66q-25 -6 -63.5 -7t-95.5 2q-4 -57 -5.5 -100t1.5 -78l-67 -9q-3 32 -2 76.5t6 112.5q-42 -4 -77 -7.5t-59 -8.5l1 67q32 3 68.5 -0.5t68.5 -8.5q4 35 8 65t8.5 59.5t9.5 60
t11 66.5q-45 -3 -78.5 -7.5t-59.5 -9.5l1 68q35 3 71.5 -0.5t71.5 -8.5q8 61 13 104.5t5 78.5l67 8q-2 -43 -6.5 -86.5t-13.5 -105.5q46 7 81 13.5t64 14.5v-68v0z" />
    <glyph glyph-name="periodcentered" unicode="&#xb7;" horiz-adv-x="226" 
d="M176 311q0 -29 -18 -48t-44 -19q-22 0 -33.5 13.5t-11.5 34.5q0 29 16 49t42 20q22 0 35.5 -14t13.5 -36z" />
    <glyph glyph-name="paragraph" unicode="&#xb6;" horiz-adv-x="612" 
d="M567 527q-8 -78 -20.5 -165.5l-24.5 -171.5t-21 -159.5t-9 -129.5q0 -23 1 -46.5t4 -46.5l-169 -22q-11 65 -8 129.5t10 129.5q-16 -6 -33.5 -15t-36.5 -17t-37.5 -13.5t-35.5 -5.5q-37 0 -64 17t-44.5 44t-26 60t-8.5 65q0 78 22.5 147t66 121t107 82.5t145.5 30.5
q46 0 93 -8t89 -26zM391 492q-8 1 -16.5 1.5t-16.5 0.5q-57 0 -99 -26.5t-69 -68.5t-40.5 -93.5t-13.5 -100.5q0 -29 6 -55t19.5 -46t35.5 -31.5t55 -11.5q10 0 22 3t23.5 8t22 12t16.5 15q14 99 30.5 196t24.5 197zM439 506q-8 -87 -21 -174.5t-24.5 -174t-18 -169.5
t-2.5 -159l68 11q-1 82 7 163.5t19 162.5t23 161.5t19 162.5z" />
    <glyph glyph-name="bullet" unicode="&#x2022;" horiz-adv-x="432" 
d="M344 302q0 -36 -12.5 -66t-32.5 -52t-47 -34t-55 -12q-45 0 -73 30.5t-28 80.5q0 37 12.5 67t33 50t47 31t55.5 11q43 0 71.5 -29t28.5 -77z" />
    <glyph glyph-name="quotesinglbase" unicode="&#x201a;" horiz-adv-x="243" 
d="M153 198q3 -75 -16 -140t-64 -106l-29 15q17 29 25.5 58t12.5 58q4 26 4 50t-1 48l68 17v0z" />
    <glyph glyph-name="quotedblbase" unicode="&#x201e;" horiz-adv-x="430" 
d="M344 198q3 -75 -16 -140t-64 -106l-30 15q17 29 25.5 58t12.5 58q4 26 4 50t-1 48zM156 198q3 -75 -16 -140t-64 -106l-30 15q17 29 25.5 58t12.5 58q4 26 4 50t-1 48z" />
    <glyph glyph-name="quotedblright" unicode="&#x201d;" horiz-adv-x="430" 
d="M384 748q3 -75 -16 -140t-64 -106l-30 15q17 29 25.5 58t12.5 58q4 26 4 50t-1 48zM196 748q3 -75 -16 -140t-64 -106l-30 15q17 29 25.5 58t12.5 58q4 26 4 50t-1 48z" />
    <glyph glyph-name="guillemotright" unicode="&#xbb;" horiz-adv-x="574" 
d="M511 259q-18 -22 -41 -48.5t-47 -54t-48 -53t-43 -44.5l-43 40q19 18 39.5 39.5t40.5 45.5t40 48.5t38 48.5q-24 48 -66 94.5t-81 87.5l47 43q21 -19 43.5 -44t44 -52t40 -52.5t29.5 -45.5zM288 259q-18 -22 -41 -48.5t-47 -54t-48 -53t-43 -44.5l-43 40q19 18 39.5 39.5
t40.5 45.5t40 48.5t38 48.5q-24 48 -66 94.5t-81 87.5l47 43q21 -19 43.5 -44t44 -52t40 -52.5t29.5 -45.5z" />
    <glyph glyph-name="ellipsis" unicode="&#x2026;" horiz-adv-x="828" 
d="M143 38q0 -29 -18 -48t-44 -19q-22 0 -33.5 13.5t-11.5 34.5q0 29 16 49t42 20q22 0 35.5 -14t13.5 -36zM745 38q0 -29 -18 -48t-44 -19q-22 0 -33.5 13.5t-11.5 34.5q0 29 16 49t42 20q22 0 35.5 -14t13.5 -36zM444 38q0 -29 -18 -48t-44 -19q-22 0 -33.5 13.5
t-11.5 34.5q0 29 16 49t42 20q22 0 35.5 -14t13.5 -36z" />
    <glyph glyph-name="perthousand" unicode="&#x2030;" horiz-adv-x="1022" 
d="M966 171q0 -50 -14.5 -85.5t-37.5 -58t-51.5 -33.5t-56.5 -11q-25 0 -46 6.5t-36 21t-23.5 38.5t-8.5 59q0 43 12.5 77.5t34 58.5t51 36.5t63.5 12.5q24 0 44.5 -6.5t36 -20.5t24 -37.5t8.5 -57.5zM653 171q0 -50 -14.5 -85.5t-37.5 -58t-51.5 -33.5t-56.5 -11
q-25 0 -46 6.5t-36 21t-23.5 38.5t-8.5 59q0 43 12.5 77.5t34 58.5t51 36.5t63.5 12.5q24 0 44.5 -6.5t36 -20.5t24 -37.5t8.5 -57.5zM335 435q0 -50 -14.5 -85.5t-37.5 -58t-51.5 -33.5t-56.5 -11q-25 0 -46 6.5t-36 21t-23.5 38.5t-8.5 59q0 43 12.5 77.5t34.5 58.5
t51.5 36.5t63.5 12.5q48 0 80 -27t32 -95zM629 557q-64 -88 -122.5 -155.5t-116.5 -129.5t-117 -127t-125 -147l-63 -9q67 89 128.5 158.5t121 133t117 127.5t115.5 142zM270 422q0 91 -65 91q-34 0 -55.5 -32t-23.5 -96q-2 -41 14.5 -66.5t48.5 -25.5q39 0 60 33t21 96z
M900 158q0 91 -64 91q-34 0 -55.5 -32t-23.5 -96q-2 -41 14 -66.5t48 -25.5q39 0 60 33t21 96zM587 158q0 91 -64 91q-34 0 -55.5 -32t-23.5 -96q-2 -41 14 -66.5t48 -25.5q39 0 60 33t21 96z" />
    <glyph glyph-name="questiondown" unicode="&#xbf;" horiz-adv-x="337" 
d="M262 -216q-110 4 -169.5 55.5t-59.5 139.5q0 48 17.5 91.5t42.5 84.5t52.5 80.5t48.5 81.5l61 -20q-15 -39 -39 -76.5t-46.5 -75t-38.5 -76t-15 -81.5q1 -35 16 -61t39 -43.5t53.5 -27t58.5 -11.5zM314 507q0 -29 -16 -49t-42 -20q-22 0 -35.5 14t-13.5 36q0 29 18 48
t44 19q22 0 33.5 -13.5t11.5 -34.5z" />
    <glyph glyph-name="grave" unicode="`" horiz-adv-x="500" 
d="M333 603q-23 13 -43.5 36t-38 51.5t-31 61t-20.5 63.5l70 7q14 -52 42.5 -106.5t66.5 -93.5z" />
    <glyph glyph-name="acute" unicode="&#xb4;" horiz-adv-x="500" 
d="M437 810q-11 -31 -29 -61.5t-40.5 -58t-48 -50t-50.5 -35.5l-43 24q41 35 80.5 86.5t61.5 105.5l69 -11v0z" />
    <glyph glyph-name="circumflex" unicode="&#x2c6;" horiz-adv-x="500" 
d="M373 610q-21 26 -43.5 52.5t-51.5 58.5q-29 -22 -57 -50.5t-52 -54.5l-44 31q30 38 67 76.5t67 67.5l58 5q9 -17 21.5 -37.5t27.5 -41.5t31 -40t30 -34z" />
    <glyph glyph-name="tilde" unicode="&#x2dc;" horiz-adv-x="500" 
d="M444 694q-11 -9 -28 -17t-36 -10q-22 -3 -41 2.5t-36.5 12t-35 12t-36.5 2.5q-21 -2 -37 -13.5t-28 -27.5l-12 62q15 19 32.5 29.5t40.5 14.5q19 3 37 -2t36.5 -12t38 -12t40.5 -2q13 2 24.5 8t21.5 13l19 -60v0z" />
    <glyph glyph-name="macron" unicode="&#xaf;" horiz-adv-x="500" 
d="M416 675q-33 -20 -64.5 -19t-64.5 7q-36 7 -68.5 9t-67.5 -12l-4 82q34 13 65.5 12.5t63.5 -4.5q34 -4 65.5 -6t64.5 9l10 -78v0z" />
    <glyph glyph-name="breve" unicode="&#x2d8;" horiz-adv-x="500" 
d="M418 756q-12 -61 -53.5 -98t-104.5 -37q-26 0 -49 10t-41.5 27.5t-32 41t-19.5 49.5l42 37q16 -41 44 -71t69 -30q20 0 36.5 8.5t30 23t23 32.5t16.5 37l39 -30v0z" />
    <glyph glyph-name="dotaccent" unicode="&#x2d9;" horiz-adv-x="500" 
d="M329 746q0 -15 -6 -28t-16 -23.5t-22.5 -16.5t-25.5 -6q-20 0 -31.5 12.5t-11.5 31.5q0 14 6.5 26.5t17 22t23.5 15t26 5.5q19 0 29.5 -10.5t10.5 -28.5z" />
    <glyph glyph-name="dieresis" unicode="&#xa8;" horiz-adv-x="500" 
d="M244 714q-2 -26 -18.5 -43.5t-35.5 -19.5q-17 -2 -29.5 10t-10.5 36t18 42t37 20q17 2 29 -10t10 -35zM442 714q-2 -26 -18.5 -43.5t-35.5 -19.5q-17 -2 -29 10t-10 36t18 42t37 20q17 2 28.5 -10t9.5 -35z" />
    <glyph glyph-name="ring" unicode="&#x2da;" horiz-adv-x="500" 
d="M393 733q0 -33 -11 -56.5t-29 -38.5t-41.5 -22.5t-47.5 -7.5q-38 0 -61.5 22.5t-23.5 65.5q0 31 10.5 54.5t27.5 39t40 23.5t47 8q38 0 63.5 -23t25.5 -65zM340 727q0 20 -10 37.5t-36 17.5q-28 0 -45.5 -22t-17.5 -57q0 -22 10.5 -37.5t36.5 -15.5q32 0 47 24.5t15 52.5
z" />
    <glyph glyph-name="cedilla" unicode="&#xb8;" horiz-adv-x="500" 
d="M299 -130q0 -26 -10.5 -46t-27.5 -34.5t-39.5 -22t-46.5 -7.5t-50 8l7 40q18 -6 36 -6q15 0 29 4t25.5 12.5t18.5 20.5t7 28q0 26 -19 38t-43 12q-27 0 -56 -13l-5 36q18 9 37.5 14.5t39.5 5.5q41 0 69 -23.5t28 -66.5z" />
    <glyph glyph-name="hungarumlaut" unicode="&#x2dd;" horiz-adv-x="500" 
d="M476 810q-11 -31 -29 -61.5t-40.5 -58t-48 -50t-50.5 -35.5l-43 24q41 35 80.5 86.5t61.5 105.5zM289 810q-11 -31 -29 -61.5t-40.5 -58t-48 -50t-50.5 -35.5l-43 24q41 35 80.5 86.5t61.5 105.5z" />
    <glyph glyph-name="ogonek" unicode="&#x2db;" horiz-adv-x="500" 
d="M278 -224q-35 -18 -75 -18q-38 0 -64 23t-26 62q0 27 12 48.5t31 36.5t43.5 23.5t48.5 11.5l8 -39q-16 -1 -32.5 -6t-30.5 -14t-23 -22.5t-9 -31.5q0 -26 14 -38t39 -12q14 0 28.5 3.5t27.5 8.5l8 -36v0z" />
    <glyph glyph-name="caron" unicode="&#x2c7;" horiz-adv-x="500" 
d="M426 765q-30 -38 -67 -76.5t-67 -67.5l-58 -5q-9 17 -21.5 37.5t-27.5 41.5t-31 40t-30 34l54 33q21 -26 43.5 -52.5t51.5 -58.5q29 22 57 50.5t52 54.5l44 -31v0z" />
    <glyph glyph-name="emdash" unicode="&#x2014;" horiz-adv-x="1100" 
d="M1034 260q-43 -4 -119 -4.5t-169 1t-195 4.5t-197 4.5t-175 1t-128 -5.5l11 70q33 3 85 4.5t116 1.5t136.5 -1.5t147.5 -2.5t148.5 -2.5t139.5 -1.5t120.5 1.5t90.5 4.5z" />
    <glyph glyph-name="AE" unicode="&#xc6;" horiz-adv-x="952" 
d="M924 28q-48 -21 -109 -32.5t-122 -11.5q-45 0 -83 13t-64 40t-38.5 69t-7.5 101q-28 2 -56.5 0.5t-55 -4t-49.5 -5.5t-41 -5l-52 46q-21 -32 -38.5 -61t-33 -56.5t-30.5 -55.5t-31 -57l-95 -14q43 86 99 180t120 188.5t134 187.5t142 178q50 6 98 15t95.5 17t95.5 13.5
t98 4.5l18 -64q-31 1 -66 -2.5t-72 -9t-74.5 -12t-71.5 -12.5q-5 -63 -11.5 -133t-17.5 -136q27 3 66 8t79 9.5t74.5 8t52.5 4.5l-8 -71q-17 -1 -50 -4.5t-69.5 -7t-70 -7.5t-49.5 -6l-30 33q-7 -45 -11 -82t-6 -79q-3 -83 30 -121t118 -38q20 0 45.5 3.5t52 10t50.5 15.5
t42 21zM561 673q-47 -58 -86 -108t-75 -99t-71 -99.5t-72 -108.5q67 7 126 13.5t124 5.5q5 48 10.5 86t12.5 80t14.5 96t16.5 134z" />
    <glyph glyph-name="ordfeminine" unicode="&#xaa;" horiz-adv-x="445" 
d="M379 583q-4 -22 -9 -52.5t-10 -63t-9 -62.5t-6 -52q-4 -40 0.5 -71.5t21.5 -52.5l-48 -30q-11 8 -19.5 26t-13.5 35q-19 -14 -45.5 -29t-49.5 -24q-27 -5 -49 3.5t-37.5 26t-23.5 43t-8 55.5q0 57 15.5 106t42.5 84.5t63 56t77 20.5q29 0 58.5 -5.5t49.5 -13.5zM313 549
q-10 11 -24 16.5t-28 5.5q-33 0 -56.5 -25.5t-38.5 -61t-22 -72.5t-7 -61q0 -44 16 -71.5t51 -27.5q19 0 39.5 11.5t38.5 31.5q2 63 10.5 127t20.5 127z" />
    <glyph glyph-name="Lslash" unicode="&#x141;" horiz-adv-x="481" 
d="M467 11q-21 -8 -47 -13t-53 -8t-53 -4.5t-46 -1.5q-39 0 -73 10.5t-58.5 34.5t-38 63t-10.5 96q2 40 6.5 84t10.5 91l-72 -24v57l80 28q13 89 25 173t17 149l76 20q-4 -76 -13.5 -156t-20.5 -157l162 55v-59l-170 -56q-7 -53 -12.5 -100t-7.5 -85t5 -66.5t24.5 -48
t47 -29.5t73.5 -10q34 0 73.5 10t71.5 26l3 -79v0z" />
    <glyph glyph-name="Oslash" unicode="&#xd8;" horiz-adv-x="660" 
d="M625 468q0 -54 -8.5 -111t-26 -110.5t-45.5 -101.5t-67 -83.5t-90 -56.5t-115 -21q-76 0 -127 31l-50 -89h-39l62 110q-24 21 -40 49.5t-25.5 62t-14 70.5t-4.5 76q0 55 8 111.5t25.5 110t45.5 100.5t67 82t90 55.5t116 20.5q40 0 71.5 -8.5t56.5 -24.5l58 104h42
l-71 -126q45 -43 63 -109.5t18 -141.5zM474 669q-20 21 -48 33.5t-67 12.5q-48 0 -83.5 -20.5t-61.5 -55t-42.5 -78t-26.5 -89.5t-14 -90.5t-4 -80.5q0 -45 7.5 -94.5t30.5 -88.5zM532 458q0 46 -7 93.5t-28 85.5l-310 -549q18 -19 43.5 -30t60.5 -11q50 0 87.5 20t64 52.5
t44 75.5t27.5 88.5t14 91t4 83.5z" />
    <glyph glyph-name="OE" unicode="&#x152;" horiz-adv-x="952" 
d="M924 28q-16 -8 -41.5 -16t-55.5 -14t-62 -10t-61 -4q-34 0 -65 5.5t-55.5 21t-41.5 43.5t-23 72q-32 -64 -94.5 -103t-157.5 -39q-45 0 -87 14.5t-74.5 50.5t-51.5 98.5t-19 158.5q0 111 27 198t74 147t111 91.5t139 31.5q40 0 84.5 -13.5t76.5 -46.5q41 15 86.5 28
t92.5 22t93.5 13t89.5 2l9 -64q-41 1 -87.5 -4.5t-92.5 -14t-88 -18t-73 -15.5q9 -6 17.5 -11t15.5 -9q8 -4 15 -8q-1 -49 -5 -106t-13 -119q28 4 66.5 8.5t77.5 9t73 8t53 4.5l-8 -71q-17 -1 -50 -4.5t-69.5 -7t-69.5 -7.5t-49 -6l-29 32q-3 -23 -6 -42t-5 -37.5t-3 -38
t-2 -42.5q-1 -34 5 -63t22 -50.5t44.5 -33.5t72.5 -12q18 0 41.5 3t49.5 9t52 15.5t48 22.5zM537 445q6 76 -3 128t-31.5 83.5t-58.5 45t-82 13.5q-40 0 -81.5 -20.5t-75.5 -67.5t-55.5 -124t-21.5 -190q0 -141 42.5 -203.5t116.5 -62.5q50 0 92 20t74 66.5t53.5 122.5
t30.5 189z" />
    <glyph glyph-name="ordmasculine" unicode="&#xba;" horiz-adv-x="445" 
d="M374 445q-2 -64 -20.5 -110t-46 -75.5t-60.5 -43.5t-64 -14q-27 0 -49 6.5t-37.5 24.5t-23 49.5t-4.5 81.5q3 54 19 98.5t42 75.5t60 48t72 17q25 0 46.5 -8t36.5 -26.5t22.5 -49t6.5 -74.5zM304 431q3 63 -13.5 98.5t-51.5 35.5q-38 0 -66.5 -46.5t-34.5 -146.5
q-2 -27 0.5 -51t10 -42.5t20.5 -29t32 -10.5q93 0 103 192z" />
    <glyph glyph-name="ae" unicode="&#xe6;" horiz-adv-x="723" 
d="M690 432q0 -38 -19 -77t-51.5 -70.5t-77 -49.5t-95.5 -13q-5 4 -19 14t-25 21q-2 -11 -2 -20.5v-18.5q0 -91 30 -131.5t85 -40.5q24 0 59 12.5t64 34.5l4 -67q-31 -21 -75.5 -31.5t-88.5 -10.5q-51 0 -86.5 28t-55.5 74q-30 -31 -62.5 -55t-73.5 -43q-7 -2 -19 -3t-20 -1
q-59 0 -94.5 49.5t-35.5 133.5q0 90 25.5 162t65.5 123t89 78t96 27q30 0 62.5 -7t60.5 -20q-1 -8 -1 -16q-1 -7 -1 -14.5t-1 -13.5q26 33 63 52t74 19q58 0 91.5 -29.5t33.5 -95.5zM365 482q-14 11 -33.5 18t-36.5 7q-33 0 -66 -23t-58.5 -63.5t-41.5 -96.5t-16 -122
q0 -29 4.5 -57.5t15.5 -51t29 -36t46 -13.5q33 0 64 23t54 61q-3 29 -1.5 72.5t7 92t14 98t19.5 91.5zM607 433q0 29 -14.5 49.5t-41.5 20.5q-32 0 -57 -22.5t-43 -56.5t-29.5 -74.5t-16.5 -77.5q33 -6 69 4t65.5 32.5t48.5 54.5t19 70z" />
    <glyph glyph-name="dotlessi" unicode="&#x131;" horiz-adv-x="259" 
d="M194 557q0 -39 -4.5 -86t-10.5 -95.5t-13 -94t-11 -81.5q-8 -63 -9.5 -112.5t2.5 -84.5l-78 -18q-2 31 -2 74t5 89q4 42 12 94.5t15 106.5t11.5 105t3.5 89l79 14v0z" />
    <glyph glyph-name="lslash" unicode="&#x142;" horiz-adv-x="256" 
d="M164 386q-6 -45 -11.5 -97.5t-8.5 -105t-3 -101t4 -85.5l-70 -8q-4 28 -4.5 70t1.5 91t6.5 103.5t11.5 108.5l-69 -22v44l76 24q6 39 12 81.5t11 85t8 82t3 71.5l72 9q2 -71 -9.5 -149t-22.5 -155l70 24v-45z" />
    <glyph glyph-name="oslash" unicode="&#xf8;" horiz-adv-x="476" 
d="M444 360q0 -69 -15.5 -136.5t-48 -120.5t-83.5 -85.5t-122 -32.5q-35 0 -62 12l-39 -78h-35l47 95q-28 24 -41 65t-13 95q0 66 15.5 134.5t47.5 123.5t81.5 90t117.5 35q30 0 54 -9l41 83h38l-49 -99q34 -24 50 -68t16 -104zM361 343q0 38 -4 66.5t-15 48.5l-195 -392
q23 -26 68 -26q36 0 63.5 24t46 65t27.5 96t9 118zM318 487q-23 17 -57 17q-32 0 -58.5 -24t-46 -66t-30.5 -98.5t-11 -122.5q0 -27 3 -51t10 -43z" />
    <glyph glyph-name="oe" unicode="&#x153;" horiz-adv-x="752" 
d="M719 433q0 -42 -19.5 -80.5t-51 -68t-70 -46.5t-77.5 -17h-16q-4 0 -9 1l-44 35q-5 -53 2 -93t22.5 -66t38 -39t48.5 -13q28 0 63 13t62 34l5 -67q-33 -22 -78 -32t-84 -10q-54 0 -91 27.5t-54 80.5q-24 -35 -49 -56.5t-50 -33t-48.5 -15t-45.5 -3.5q-37 0 -63.5 13.5
t-44 38t-25.5 58t-8 73.5q0 101 23.5 174.5t60.5 121.5t81 71t86 23q21 0 42.5 -5t40.5 -17t34.5 -33t24.5 -52q33 51 77 79t95 28q57 0 89.5 -30t32.5 -94zM361 317q4 97 -20 142t-78 45q-28 0 -54.5 -21t-47.5 -60t-33.5 -96t-12.5 -129q0 -81 24 -119.5t72 -38.5
q29 0 55 15.5t46 48.5t33 85.5t16 127.5zM636 433q0 31 -15 50.5t-42 19.5q-26 0 -50 -18.5t-43 -50t-32.5 -73.5t-19.5 -90q32 -5 67.5 4.5t65.5 31.5t49.5 54t19.5 72z" />
    <glyph glyph-name="germandbls" unicode="&#xdf;" horiz-adv-x="536" 
d="M496 633q0 -37 -17.5 -66t-38.5 -54.5t-38.5 -51t-17.5 -55.5q0 -35 16 -64.5t35 -59t35 -60.5t16 -68q0 -39 -17 -71t-44 -56t-61 -40.5t-68 -24.5l-45 53q33 6 61.5 17.5t49 28t32.5 35.5t12 40q0 33 -16.5 61.5t-36 57t-35.5 60.5t-16 74q0 35 18 65t39 57.5t39 53.5
t18 54q0 31 -20.5 50.5t-59.5 19.5q-28 0 -52 -13.5t-43.5 -37.5t-33 -57.5t-19.5 -72.5q-5 -31 -10 -88t-10.5 -121t-10.5 -125t-10 -100q-12 -99 -32 -169.5t-46 -114.5l-55 28q22 49 37 112.5t26 159.5q5 39 9 97.5t8.5 119.5t9 116t9.5 87q9 59 31 103.5t52.5 74.5
t68.5 45t80 15q66 0 108.5 -30.5t42.5 -84.5z" />
    <glyph glyph-name="onesuperior" unicode="&#xb9;" horiz-adv-x="370" 
d="M280 305l-210 -7l2 48q36 1 81 3q3 81 14.5 172.5t21.5 172.5l-88 -35l-8 45l112 55l51 8q-5 -95 -20 -201t-21 -215q18 1 36 1t35 1z" />
    <glyph glyph-name="logicalnot" unicode="&#xac;" horiz-adv-x="660" 
d="M581 374q-2 -40 -6 -84t-8 -89t-8 -89t-5 -83l-67 -12q2 30 5 66t6.5 74.5t6.5 77t6 73.5q-48 0 -106.5 1.5t-118.5 2.5t-117.5 0.5t-103.5 -4.5l8 64q58 4 123 3t131 -2.5t130.5 -2.5t123.5 4z" />
    <glyph glyph-name="mu" unicode="&#xb5;" horiz-adv-x="522" 
d="M474 554q-5 -35 -11 -77.5t-12 -88t-11.5 -91.5t-10.5 -87q-3 -26 -4.5 -53t-1.5 -54t2 -52t7 -45l-71 -23q-4 9 -6.5 25t-4 33.5t-2 34.5t-0.5 29q-10 -15 -25 -33t-32.5 -34.5t-36 -29.5t-35.5 -20q-53 -6 -79 27q-13 -73 -20.5 -127t-11.5 -98l-78 11q2 30 8 77
t13.5 101t16 111t16.5 107t13.5 89t7.5 58q5 47 7.5 99t-1.5 92l75 22q5 -39 4 -89.5t-8 -116.5q-2 -17 -5 -40.5t-6.5 -48.5t-6.5 -47t-4 -36q-2 -26 0 -49t9 -40.5t20.5 -28t34.5 -10.5q51 0 91 73.5t58 213.5l26 204l75 12v0z" />
    <glyph glyph-name="trademark" unicode="&#x2122;" horiz-adv-x="834" 
d="M766 762q-6 -41 -12 -89t-8.5 -96.5t0 -94t12.5 -80.5l-65 -14q-14 38 -13.5 100.5t7.5 140.5q-21 -36 -40 -70t-33.5 -62.5t-24.5 -49t-13 -29.5l-55 -18q-14 35 -25.5 95.5t-27.5 130.5q-7 -24 -15.5 -52.5t-16 -58t-13 -59t-6.5 -54.5q-11 -2 -28.5 -6t-34.5 -8
q1 43 10.5 86.5t22 87.5t26 89.5t21.5 93.5l67 17q21 -63 31.5 -131.5t27.5 -127.5q18 29 37 63.5t36.5 68.5t32.5 63.5t25 49.5zM360 725q-14 -8 -35.5 -14t-63.5 -8q-6 -34 -13 -74.5t-12 -81.5t-8 -78.5t-1 -64.5l-69 -12q-2 38 1.5 77t9.5 78.5t12.5 78.5t12.5 77h-35
t-28 -1.5t-25 -4.5t-26 -9l-3 54q35 13 69.5 14.5t70 1.5t72 3.5t75.5 20.5z" />
    <glyph glyph-name="Eth" unicode="&#xd0;" horiz-adv-x="714" 
d="M680 438q0 -92 -28.5 -175t-81 -145t-126 -98.5t-164.5 -36.5q-9 0 -22.5 0.5t-27 2t-26.5 2.5t-22 3l-31 33l-86 -40q14 91 27.5 181.5t25.5 185.5h-87l6 53h87q8 69 15.5 138.5t13.5 141.5l-65 -15q-1 13 -1.5 33.5t-0.5 33.5q65 19 135.5 28.5t136.5 9.5
q154 0 238 -88t84 -248zM588 430q0 64 -17 115.5t-50 88t-82 56t-113 19.5q-16 0 -34 -1t-36.5 -3.5t-36 -5.5t-32.5 -7l42 -42q-5 -63 -10.5 -123.5t-13.5 -122.5h180l-6 -53h-180q-9 -69 -20 -139t-24 -144q31 -11 60.5 -15t56.5 -4q79 0 138.5 32.5t99 86t59 122
t19.5 140.5z" />
    <glyph glyph-name="onehalf" unicode="&#xbd;" horiz-adv-x="812" 
d="M743 -15q-11 0 -22 -0.5t-19 -0.5q-57 0 -116 2.5t-120 13.5l-10 51q34 19 73 48t72.5 63t56 70.5t22.5 70.5q0 36 -28.5 59t-78.5 23q-17 0 -39 -2.5t-41 -7.5l14 56q21 5 40.5 6.5t37.5 1.5q34 0 64 -8t52.5 -23.5t35.5 -39.5t13 -57q0 -38 -18 -74.5t-47 -70.5
t-65 -64.5t-72 -54.5q29 -2 65.5 -3.5t65.5 -1.5q17 0 34.5 0.5t43.5 2.5zM593 773q-39 -92 -86.5 -189t-97.5 -196t-99 -197.5t-89 -192.5l-62 -10q43 103 92.5 204.5t99 199.5t96 191t84.5 180zM250 305l-210 -7l2 48q36 1 81 3q3 81 14.5 172.5t21.5 172.5l-88 -35l-8 45
l112 55l51 8q-5 -95 -20 -201t-21 -215q18 1 36 1t35 1z" />
    <glyph glyph-name="plusminus" unicode="&#xb1;" horiz-adv-x="491" 
d="M418 339q-34 -2 -69.5 -3.5t-78.5 0.5q-6 -46 -10 -86.5t-6 -74.5l-63 -2q3 69 15 168q-41 2 -75 3.5t-65 2.5l3 57q34 1 69.5 0.5t77.5 -2.5q6 44 10 81.5t8 70.5l62 4q-2 -35 -6 -73.5t-10 -87.5q41 -2 74 -2t63 1zM398 -3q-44 -2 -87 -1.5t-86 2t-87 3.5t-92 4l8 60
q48 1 91.5 0t85.5 -2.5l84 -3t87 -0.5z" />
    <glyph glyph-name="Thorn" unicode="&#xde;" horiz-adv-x="574" 
d="M544 434q0 -63 -22 -118.5t-64 -94t-102 -57t-136 -7.5q-17 15 -31 25t-19 17q-3 -41 -8 -92t-2 -98l-84 -20q0 77 10 174.5t23.5 200.5t27.5 203.5t23 183.5q23 7 43.5 11.5t38.5 7.5q-2 -29 -5.5 -64.5t-9.5 -87.5q36 5 61.5 7.5t51.5 2.5q37 0 73.5 -12.5t65.5 -37
t47 -61t18 -83.5zM456 409q0 46 -18 78.5t-49.5 50.5t-75 21t-93.5 -9q-11 -87 -22.5 -161.5t-22.5 -154.5q52 -17 102.5 -11.5t90.5 29t64 63.5t24 94z" />
    <glyph glyph-name="onequarter" unicode="&#xbc;" horiz-adv-x="812" 
d="M728 80q-11 -2 -25 -3t-40 -2q-3 -26 -4.5 -44.5t-2.5 -38.5l-58 -10q1 20 3.5 40t6.5 53q-60 2 -104 4t-73 6l-2 50q15 47 35 84.5t40.5 72.5t38 70t26.5 77l58 11q-5 -46 -21.5 -84.5t-37.5 -75t-42.5 -73.5t-34.5 -81q18 -2 32 -3.5t28 -2.5t29 -1h34q10 54 16.5 90
t11.5 67l58 5q-3 -19 -5.5 -36t-6 -35.5t-7.5 -39.5t-9 -49q20 2 35 3t29 3zM602 773q-39 -92 -86.5 -189t-97.5 -196t-99 -197.5t-89 -192.5l-62 -10q43 103 92.5 204.5t99 200t96 191.5t84.5 180zM256 305l-210 -7l2 48q36 1 81 3q3 81 14.5 172.5t21.5 172.5l-88 -35
l-8 45l112 55l51 8q-5 -95 -20 -201t-21 -215q18 1 36 1t35 1z" />
    <glyph glyph-name="divide" unicode="&#xf7;" horiz-adv-x="571" 
d="M481 226q-48 -2 -95 -1.5t-94 2.5t-95.5 4t-100.5 4l5 67q52 1 100 0t94.5 -3t92.5 -3.5t95 -0.5zM321 53q0 -29 -19.5 -48t-48.5 -19q-24 0 -36.5 13.5t-12.5 34.5q0 29 17 49t46 20q24 0 39 -14t15 -36zM359 487q0 -29 -19.5 -48t-48.5 -19q-24 0 -36.5 13.5
t-12.5 34.5q0 29 17.5 49t46.5 20q24 0 38.5 -14t14.5 -36z" />
    <glyph glyph-name="brokenbar" unicode="&#xa6;" horiz-adv-x="250" 
d="M156 276q-8 -74 -14 -142.5t-8 -134.5l-61 -12q2 71 7.5 142.5t13.5 146.5h62zM209 763q-5 -60 -11 -125t-14 -130h-63q8 64 14.5 126.5t11.5 119.5z" />
    <glyph glyph-name="degree" unicode="&#xb0;" horiz-adv-x="414" 
d="M384 598q0 -39 -12 -73.5t-35.5 -60.5t-58.5 -41t-81 -15q-35 0 -60.5 11t-42 30t-24.5 44.5t-8 55.5q0 39 12.5 74t36.5 61t59.5 41t81.5 15q34 0 59 -11.5t41.5 -31t24 -45.5t7.5 -54zM318 591q0 17 -4.5 34t-14.5 30t-26 21t-39 8q-29 0 -49.5 -12.5t-33.5 -31.5
t-18.5 -41.5t-5.5 -42.5q0 -38 19 -64t66 -26q28 0 48 12t33 31t19 40.5t6 41.5z" />
    <glyph glyph-name="thorn" unicode="&#xfe;" horiz-adv-x="586" 
d="M536 369q0 -89 -24 -159t-61.5 -118t-83.5 -73.5t-91 -25.5q-16 0 -40.5 2.5t-58.5 13.5q-8 -57 -16 -116.5t-11 -108.5q-18 3 -37.5 6.5t-34.5 5.5q4 57 13 137t19.5 168t22 177t20.5 165l-65 -39l-3 43q17 11 36.5 21.5t39.5 20.5q4 28 8 61.5t7 66.5t5.5 62t3.5 48
l71 8q-3 -49 -8 -105t-17 -120q51 23 96.5 32t80.5 4q28 -4 51.5 -16.5t40.5 -34t26.5 -53t9.5 -73.5zM448 286q8 93 -14.5 149.5t-79.5 63.5q-26 3 -58 -7t-69 -27q-5 -45 -9.5 -96t-9.5 -103t-10.5 -101.5t-11.5 -90.5q17 -23 39.5 -33.5t50.5 -12.5q32 -2 60.5 12.5
t51.5 46t38.5 81t21.5 118.5z" />
    <glyph glyph-name="threequarters" unicode="&#xbe;" horiz-adv-x="812" 
d="M331 442q0 -37 -20.5 -65.5t-53.5 -47.5t-74.5 -29t-83.5 -10q-23 0 -57 6l-4 58q17 -6 38 -7t38 -1q28 0 54 6t46.5 18t32.5 28.5t12 37.5q0 24 -13.5 40t-35.5 25.5t-50 13t-57 1.5l-1 56q11 -1 15.5 -1h8.5q27 0 51.5 5t42.5 15t29 23t11 30q0 19 -11.5 31.5t-29 20.5
t-38.5 11.5t-41 3.5q-11 0 -23.5 -1t-32.5 -4l15 54q17 2 32 3t29 1q27 0 56.5 -5t54.5 -17.5t41.5 -33.5t16.5 -53q0 -38 -27.5 -66.5t-83.5 -38.5q55 -7 84 -38t29 -70zM753 80q-11 -2 -25 -3t-40 -2q-3 -26 -4.5 -44.5t-2.5 -38.5l-58 -10q1 20 3.5 40t6.5 53
q-60 2 -104 4t-73 6l-2 50q15 47 35 84.5t40.5 72.5t38 70t26.5 77l58 11q-5 -46 -21.5 -84.5t-37.5 -75t-42.5 -73.5t-34.5 -81q18 -2 32 -3.5t28 -2.5t29 -1h34q10 54 16.5 90t11.5 67l58 5q-3 -19 -5.5 -36t-6 -35.5t-7.5 -39.5t-9 -49q20 2 35 3t29 3zM630 773
q-39 -92 -86.5 -189t-97.5 -196t-99 -197.5t-89 -192.5l-62 -10q43 103 92.5 204.5t99 200t96 191.5t84.5 180z" />
    <glyph glyph-name="twosuperior" unicode="&#xb2;" horiz-adv-x="370" 
d="M317 303q-11 0 -22 -0.5t-19 -0.5q-57 0 -116 2.5t-120 13.5l-9 51q34 19 73 48t72.5 63.5t56 71t22.5 70.5q0 36 -28.5 58.5t-78.5 22.5q-17 0 -39 -2.5t-41 -7.5l13 56q21 5 41 6.5t38 1.5q34 0 64 -8t52.5 -23.5t35.5 -39.5t13 -57q0 -38 -18 -74.5t-47 -70t-65 -64
t-72 -54.5q29 -2 65 -3.5t65 -1.5h35t44 2z" />
    <glyph glyph-name="registered" unicode="&#xae;" horiz-adv-x="808" 
d="M758 372q0 -77 -28 -144.5t-76 -118t-112.5 -79.5t-137.5 -29t-137.5 29t-112.5 79.5t-75.5 118t-27.5 144.5t27.5 144.5t75.5 117.5t112.5 79t137.5 29t137.5 -29t112.5 -79t76 -117.5t28 -144.5zM718 372q0 69 -24 130.5t-66 107t-99.5 72t-124.5 26.5t-124 -26.5
t-99 -72t-65.5 -107t-23.5 -130.5t23.5 -130.5t65.5 -107.5t99 -72.5t124 -26.5t124.5 26.5t99.5 72.5t66 107.5t24 130.5zM492 185q-22 19 -40.5 45t-35 53t-33 52.5t-35.5 42.5q-7 -43 -14 -87t-7 -88l-55 -13q-1 40 3.5 82.5t11.5 85t13.5 82.5t9.5 75q-11 -3 -18.5 -5
t-12.5 -3q-1 11 -1.5 21t0.5 18q32 12 72.5 16t73.5 4q20 0 40.5 -5.5t36.5 -16.5t26 -29t10 -42q0 -42 -27.5 -74t-73.5 -41q52 -91 108 -145zM477 466q0 34 -22.5 48t-53.5 14q-18 0 -36 -3q-2 -36 -6 -71.5t-11 -70.5q22 -4 45 -1.5t41.5 12t30.5 27.5t12 45z" />
    <glyph glyph-name="minus" unicode="&#x2212;" horiz-adv-x="500" 
d="M386 229q-33 -4 -68.5 -2.5t-71.5 4.5t-71.5 6.5t-69.5 4.5l7 88q32 -2 68 -5t73 -5.5t73 -3.5t68 2z" />
    <glyph glyph-name="eth" unicode="&#xf0;" horiz-adv-x="514" 
d="M438 408q0 -102 -19.5 -181t-54 -133t-81.5 -82t-102 -28q-36 0 -63.5 13.5t-46.5 38t-28.5 58.5t-9.5 75q0 72 19.5 132.5t50.5 106t69.5 74t77.5 36.5q10 -2 23.5 -5t27.5 -7.5t27.5 -9.5t23.5 -11q-18 69 -59 117t-98 76l-54 -86l-49 7l62 96q-20 7 -41 11t-44 6
q7 16 14 28.5t15 27.5q46 0 94 -14l48 74l47 -7l-53 -83q42 -19 79 -49t64.5 -71t44 -93.5t16.5 -116.5zM364 374q0 25 -2 45t-5 40q-13 6 -32 9.5t-37 2.5q-32 -1 -63 -24t-56 -61.5t-40 -89.5t-15 -109q0 -71 26.5 -109t71.5 -34q36 3 64.5 32.5t48 75.5t29.5 104t10 118z
" />
    <glyph glyph-name="multiply" unicode="&#xd7;" horiz-adv-x="580" 
d="M476 461q-19 -26 -38.5 -49t-39.5 -45q-19 -21 -38.5 -41.5t-38.5 -40.5q38 -48 74.5 -97t78.5 -98l-52 -49q-41 46 -74 96t-70 98q-43 -47 -82.5 -96t-73.5 -95l-46 44q38 54 79 100.5t83 91.5q-33 43 -71.5 90.5t-70.5 85.5l49 47q33 -38 67.5 -82t72.5 -91
q42 45 76.5 88t65.5 88l49 -45v0z" />
    <glyph glyph-name="threesuperior" unicode="&#xb3;" horiz-adv-x="370" 
d="M325 442q0 -37 -20.5 -65.5t-53.5 -47.5t-74.5 -29t-83.5 -10q-23 0 -57 6l-4 58q17 -6 38 -7t38 -1q28 0 54 6t46.5 18t32.5 28.5t12 37.5q0 24 -13.5 40t-35.5 25.5t-50 13t-57 1.5l-1 56q11 -1 15.5 -1h8.5q27 0 51.5 5t42.5 15t29 23t11 30q0 19 -11.5 31.5t-29 20.5
t-38.5 11.5t-41 3.5q-11 0 -23.5 -1t-32.5 -4l15 54q17 2 32 3t29 1q27 0 56.5 -5t54.5 -17.5t41.5 -33.5t16.5 -53q0 -38 -27.5 -66.5t-83.5 -38.5q55 -7 84 -38t29 -70z" />
    <glyph glyph-name="copyright" unicode="&#xa9;" horiz-adv-x="808" 
d="M758 372q0 -77 -28 -144.5t-76 -118t-112.5 -79.5t-137.5 -29t-137.5 29t-112.5 79.5t-75.5 118t-27.5 144.5t27.5 144.5t75.5 117.5t112.5 79t137.5 29t137.5 -29t112.5 -79t76 -117.5t28 -144.5zM718 372q0 69 -24 130.5t-66 107t-99.5 72t-124.5 26.5t-124 -26.5
t-99 -72t-65.5 -107t-23.5 -130.5t23.5 -130.5t65.5 -107.5t99 -72.5t124 -26.5t124.5 26.5t99.5 72.5t66 107.5t24 130.5zM491 478q-8 20 -24.5 31.5t-39.5 11.5q-31 0 -53 -18t-36.5 -44.5t-21 -57t-6.5 -55.5q0 -47 22.5 -77.5t72.5 -30.5q22 0 50 6.5t48 16.5l7 -40
q-29 -17 -61 -24t-65 -7q-69 0 -106 41.5t-36 109.5q0 42 13.5 82.5t38 72t61 51t83.5 19.5q17 0 33 -2t29.5 -8t23.5 -17t15 -30z" />
    <glyph glyph-name="Aacute" unicode="&#xc1;" horiz-adv-x="560" 
d="M460 -18q-15 30 -30.5 89t-29.5 131q-27 -1 -60.5 -3t-65.5 -4.5t-61 -6t-47 -6.5l-32 56q-12 -27 -24 -58t-24 -61.5t-22.5 -60t-18.5 -54.5l-84 -13q25 80 64.5 179t86 202.5t96 205t94.5 185.5l76 14q24 -98 41 -206t34.5 -211.5t37 -194.5t47.5 -155zM388 272
q-10 43 -16 80.5t-12 79.5t-14 94.5t-23 125.5q-27 -53 -50 -99t-44.5 -92.5t-43.5 -97.5t-47 -112q57 8 116.5 15t133.5 6zM471 964q-12 -25 -34 -50t-49 -47t-57 -40t-59 -29l-52 20q24 14 48.5 31.5t47 38t41.5 42t32 43.5z" />
    <glyph glyph-name="Acircumflex" unicode="&#xc2;" horiz-adv-x="560" 
d="M460 -18q-15 30 -30.5 89t-29.5 131q-27 -1 -60.5 -3t-65.5 -4.5t-61 -6t-47 -6.5l-32 56q-12 -27 -24 -58t-24 -61.5t-22.5 -60t-18.5 -54.5l-84 -13q25 80 64.5 179t86 202.5t96 205t94.5 185.5l76 14q24 -98 41 -206t34.5 -211.5t37 -194.5t47.5 -155zM388 272
q-10 43 -16 80.5t-12 79.5t-14 94.5t-23 125.5q-27 -53 -50 -99t-44.5 -92.5t-43.5 -97.5t-47 -112q57 8 116.5 15t133.5 6zM461 798q-22 21 -45.5 43t-53.5 48q-29 -18 -58.5 -41.5t-54.5 -44.5l-45 26q31 31 69 62.5t70 54.5l60 4q9 -14 22.5 -30.5t29 -33.5t31.5 -33
t31 -28z" />
    <glyph glyph-name="Adieresis" unicode="&#xc4;" horiz-adv-x="560" 
d="M460 -18q-15 30 -30.5 89t-29.5 131q-27 -1 -60.5 -3t-65.5 -4.5t-61 -6t-47 -6.5l-32 56q-12 -27 -24 -58t-24 -61.5t-22.5 -60t-18.5 -54.5l-84 -13q25 80 64.5 179t86 202.5t96 205t94.5 185.5l76 14q24 -98 41 -206t34.5 -211.5t37 -194.5t47.5 -155zM388 272
q-10 43 -16 80.5t-12 79.5t-14 94.5t-23 125.5q-27 -53 -50 -99t-44.5 -92.5t-43.5 -97.5t-47 -112q57 8 116.5 15t133.5 6zM317 889q-2 -26 -18.5 -43.5t-35.5 -19.5q-17 -2 -29.5 10t-10.5 36t18 42t37 20q17 2 29 -10t10 -35zM515 889q-2 -26 -18.5 -43.5t-35.5 -19.5
q-17 -2 -29 10t-10 36t18 42t37 20q17 2 28.5 -10t9.5 -35z" />
    <glyph glyph-name="Agrave" unicode="&#xc0;" horiz-adv-x="560" 
d="M460 -18q-15 30 -30.5 89t-29.5 131q-27 -1 -60.5 -3t-65.5 -4.5t-61 -6t-47 -6.5l-32 56q-12 -27 -24 -58t-24 -61.5t-22.5 -60t-18.5 -54.5l-84 -13q25 80 64.5 179t86 202.5t96 205t94.5 185.5l76 14q24 -98 41 -206t34.5 -211.5t37 -194.5t47.5 -155zM388 272
q-10 43 -16 80.5t-12 79.5t-14 94.5t-23 125.5q-27 -53 -50 -99t-44.5 -92.5t-43.5 -97.5t-47 -112q57 8 116.5 15t133.5 6zM423 806q-28 9 -54 25.5t-48 37t-38.5 43t-25.5 44.5l88 4q17 -37 53 -74.5t83 -65.5z" />
    <glyph glyph-name="Aring" unicode="&#xc5;" horiz-adv-x="560" 
d="M460 -18q-15 30 -30.5 89t-29.5 131q-27 -1 -60.5 -3t-65.5 -4.5t-61 -6t-47 -6.5l-32 56q-12 -27 -24 -58t-24 -61.5t-22.5 -60t-18.5 -54.5l-84 -13q24 79 62.5 175.5t83.5 198t93.5 201t93.5 183.5q-19 7 -33.5 26.5t-14.5 48.5t10.5 50.5t28 36t40 22t45.5 7.5
q38 0 64 -23t26 -66q0 -41 -23 -67t-53 -34q22 -96 38.5 -201t33 -204t36 -186.5t46.5 -148.5zM388 272q-10 43 -16 80.5t-12 79.5t-14 94.5t-23 125.5q-27 -53 -50 -99t-44.5 -92.5t-43.5 -97.5t-47 -112q57 8 116.5 15t133.5 6zM407 848q0 19 -11 36t-36 17q-26 0 -44 -18
t-18 -51q0 -20 12 -34.5t36 -14.5q29 0 45 19.5t16 45.5z" />
    <glyph glyph-name="Atilde" unicode="&#xc3;" horiz-adv-x="560" 
d="M460 -18q-15 30 -30.5 89t-29.5 131q-27 -1 -60.5 -3t-65.5 -4.5t-61 -6t-47 -6.5l-32 56q-12 -27 -24 -58t-24 -61.5t-22.5 -60t-18.5 -54.5l-84 -13q25 80 64.5 179t86 202.5t96 205t94.5 185.5l76 14q24 -98 41 -206t34.5 -211.5t37 -194.5t47.5 -155zM388 272
q-10 43 -16 80.5t-12 79.5t-14 94.5t-23 125.5q-27 -53 -50 -99t-44.5 -92.5t-43.5 -97.5t-47 -112q57 8 116.5 15t133.5 6zM494 852q-12 -8 -29 -12.5t-35 -4.5q-21 0 -38 7.5t-33 16t-32 16t-34 7.5q-20 0 -36 -8.5t-30 -21.5l-3 60q32 31 74 31q18 0 35 -7t33.5 -15.5
t34 -15.5t37.5 -7q12 0 23.5 4t22.5 9z" />
    <glyph glyph-name="Ccedilla" unicode="&#xc7;" horiz-adv-x="527" 
d="M476 634q-20 41 -52 60.5t-74 19.5q-38 0 -75 -25t-68 -72.5t-52.5 -117t-26.5 -157.5q-4 -66 6 -120t33 -92.5t59 -60t85 -21.5q38 0 81 14t80 38l4 -67q-38 -25 -94.5 -37t-126.5 -12q-50 0 -90.5 22t-69 62t-44.5 97t-16 128q0 123 32 214t81 150t108.5 88t114.5 29
q76 0 114 -24.5t52 -76.5zM367 -130q0 -26 -10.5 -46t-27.5 -34.5t-39.5 -22t-46.5 -7.5t-50 8l7 40q18 -6 36 -6q15 0 29 4t25.5 12.5t18.5 20.5t7 28q0 26 -19 38t-43 12q-27 0 -56 -13l-5 36q18 9 37.5 14.5t39.5 5.5q41 0 69 -23.5t28 -66.5z" />
    <glyph glyph-name="Eacute" unicode="&#xc9;" horiz-adv-x="544" 
d="M516 28q-18 -9 -43.5 -17t-55.5 -14t-63.5 -9.5t-66.5 -3.5q-39 0 -75.5 10t-64.5 34t-43.5 63t-13.5 97q1 42 8 98.5t16 117t18 120.5t15 109q6 4 12 9q5 5 12 10.5t15 13.5q-19 -5 -47.5 -10t-50.5 -4q-1 14 -1.5 33.5t-0.5 31.5q51 7 102 19t101.5 22.5t101 17
t101.5 3.5l18 -64q-39 2 -74.5 -2t-70 -10.5t-69 -14.5t-71.5 -14q-4 -68 -11 -129t-17 -135q24 3 57.5 7t70 8.5t74 8.5t70.5 6l-8 -71q-56 -4 -121 -12t-118 -13l-30 33q-6 -42 -11 -80.5t-6 -80.5q-1 -41 5.5 -70.5t23.5 -49.5t46 -29.5t73 -9.5q24 0 51 4t52.5 11t48 16
t38.5 19zM452 968q-12 -25 -34 -50t-49 -47t-57 -40t-59 -29l-51 20q24 14 48.5 31.5t47 38t41.5 42t32 43.5z" />
    <glyph glyph-name="Ecircumflex" unicode="&#xca;" horiz-adv-x="544" 
d="M516 28q-18 -9 -43.5 -17t-55.5 -14t-63.5 -9.5t-66.5 -3.5q-39 0 -75.5 10t-64.5 34t-43.5 63t-13.5 97q1 42 8 98.5t16 117t18 120.5t15 109q6 4 12 9q5 5 12 10.5t15 13.5q-19 -5 -47.5 -10t-50.5 -4q-1 14 -1.5 33.5t-0.5 31.5q51 7 102 19t101.5 22.5t101 17
t101.5 3.5l18 -64q-39 2 -74.5 -2t-70 -10.5t-69 -14.5t-71.5 -14q-4 -68 -11 -129t-17 -135q24 3 57.5 7t70 8.5t74 8.5t70.5 6l-8 -71q-56 -4 -121 -12t-118 -13l-30 33q-6 -42 -11 -80.5t-6 -80.5q-1 -41 5.5 -70.5t23.5 -49.5t46 -29.5t73 -9.5q24 0 51 4t52.5 11t48 16
t38.5 19zM414 815q-22 21 -45 43t-53 48q-29 -18 -58.5 -41.5t-54.5 -44.5l-46 26q31 31 69 62.5t70 54.5l60 4q9 -14 22.5 -30.5t29 -33.5t31.5 -33t31 -28z" />
    <glyph glyph-name="Edieresis" unicode="&#xcb;" horiz-adv-x="544" 
d="M516 28q-18 -9 -43.5 -17t-55.5 -14t-63.5 -9.5t-66.5 -3.5q-39 0 -75.5 10t-64.5 34t-43.5 63t-13.5 97q1 42 8 98.5t16 117t18 120.5t15 109q6 4 12 9q5 5 12 10.5t15 13.5q-19 -5 -47.5 -10t-50.5 -4q-1 14 -1.5 33.5t-0.5 31.5q51 7 102 19t101.5 22.5t101 17
t101.5 3.5l18 -64q-39 2 -74.5 -2t-70 -10.5t-69 -14.5t-71.5 -14q-4 -68 -11 -129t-17 -135q24 3 57.5 7t70 8.5t74 8.5t70.5 6l-8 -71q-56 -4 -121 -12t-118 -13l-30 33q-6 -42 -11 -80.5t-6 -80.5q-1 -41 5.5 -70.5t23.5 -49.5t46 -29.5t73 -9.5q24 0 51 4t52.5 11t48 16
t38.5 19zM283 889q-2 -26 -18.5 -43.5t-35.5 -19.5q-17 -2 -29.5 10t-10.5 36t18 42t37 20q17 2 29 -10t10 -35zM481 889q-2 -26 -18.5 -43.5t-35.5 -19.5q-17 -2 -29 10t-10 36t18 42t37 20q17 2 28.5 -10t9.5 -35z" />
    <glyph glyph-name="Egrave" unicode="&#xc8;" horiz-adv-x="544" 
d="M516 28q-18 -9 -43.5 -17t-55.5 -14t-63.5 -9.5t-66.5 -3.5q-39 0 -75.5 10t-64.5 34t-43.5 63t-13.5 97q1 42 8 98.5t16 117t18 120.5t15 109q6 4 12 9q5 5 12 10.5t15 13.5q-19 -5 -47.5 -10t-50.5 -4q-1 14 -1.5 33.5t-0.5 31.5q51 7 102 19t101.5 22.5t101 17
t101.5 3.5l18 -64q-39 2 -74.5 -2t-70 -10.5t-69 -14.5t-71.5 -14q-4 -68 -11 -129t-17 -135q24 3 57.5 7t70 8.5t74 8.5t70.5 6l-8 -71q-56 -4 -121 -12t-118 -13l-30 33q-6 -42 -11 -80.5t-6 -80.5q-1 -41 5.5 -70.5t23.5 -49.5t46 -29.5t73 -9.5q24 0 51 4t52.5 11t48 16
t38.5 19zM368 813q-28 9 -54 25.5t-48 37t-38.5 43t-25.5 44.5l87 4q17 -37 53 -74.5t83 -65.5z" />
    <glyph glyph-name="Iacute" unicode="&#xcd;" horiz-adv-x="284" 
d="M228 767q-5 -96 -17 -191t-24.5 -190t-22 -190t-7.5 -191l-80 -18q-4 96 4 191t21 190t27 189.5t23 189.5zM330 957q-11 -24 -29 -47.5t-41 -44.5t-48.5 -38t-50.5 -27l-44 19q42 26 81.5 65.5t61.5 81.5z" />
    <glyph glyph-name="Icircumflex" unicode="&#xce;" horiz-adv-x="284" 
d="M228 767q-5 -96 -17 -191t-24.5 -190t-22 -190t-7.5 -191l-80 -18q-4 96 4 191t21 190t27 189.5t23 189.5zM293 819q-19 20 -39 41t-46 47q-25 -17 -50.5 -40.5t-46.5 -43.5l-39 25q26 30 59 61t60 54l52 4q7 -14 19 -30t25.5 -32.5t27.5 -32t26 -27.5z" />
    <glyph glyph-name="Idieresis" unicode="&#xcf;" horiz-adv-x="284" 
d="M242 767q-5 -96 -17 -191t-24.5 -190t-22 -190t-7.5 -191l-80 -18q-4 96 4 191t21 190t27 189.5t23 189.5zM189 881q-2 -26 -18.5 -43.5t-35.5 -19.5q-17 -2 -29.5 10t-10.5 36t18 42t37 20q17 2 29 -10t10 -35zM342 889q-2 -26 -18.5 -43.5t-35.5 -19.5q-17 -2 -29 10
t-10 36t18 42t37 20q17 2 28.5 -10t9.5 -35z" />
    <glyph glyph-name="Igrave" unicode="&#xcc;" horiz-adv-x="284" 
d="M228 767q-5 -96 -17 -191t-24.5 -190t-22 -190t-7.5 -191l-80 -18q-4 96 4 191t21 190t27 189.5t23 189.5zM234 802q-23 9 -45 24.5t-40.5 35t-32.5 41t-21 42.5l73 5q14 -35 44.5 -72t69.5 -63z" />
    <glyph glyph-name="Ntilde" unicode="&#xd1;" horiz-adv-x="729" 
d="M666 753q0 -93 -9 -186t-22 -186t-27.5 -186t-25.5 -184l-67 -27q-56 161 -134 321.5t-160 309.5q-39 -193 -64 -344t-27 -269q-14 -3 -34.5 -6.5t-36.5 -7.5q0 97 12.5 192.5t30 190t36 189.5t31.5 190l66 19q22 -56 56.5 -123t74.5 -144.5t83 -165t83 -183.5
q32 206 47 358.5t19 253.5zM554 824q-12 -8 -29 -12.5t-35 -4.5q-21 0 -38 7.5t-33 16t-32 16t-34 7.5q-20 0 -36 -8.5t-30 -21.5l-3 60q32 31 74 31q18 0 35 -7t33.5 -15.5t34 -15.5t37.5 -7q12 0 23.5 4t22.5 9z" />
    <glyph glyph-name="Oacute" unicode="&#xd3;" horiz-adv-x="660" 
d="M625 468q0 -54 -8.5 -111t-26 -110.5t-45.5 -101.5t-67 -83.5t-90 -56.5t-115 -21q-71 0 -117 25.5t-73 68.5t-37.5 99t-10.5 117q0 55 8 111.5t25.5 110t45.5 100.5t67 82t90 55.5t116 20.5q69 0 115 -25.5t73 -68t38.5 -97.5t11.5 -115zM532 458q0 44 -6.5 89.5t-25 83
t-52.5 61t-89 23.5q-48 0 -83.5 -20.5t-61.5 -55t-42.5 -78t-26.5 -89.5t-14 -90.5t-4 -80.5q0 -41 6 -85.5t24 -82t50 -62t84 -24.5q50 0 87.5 20t64 52.5t44 75.5t27.5 88.5t14 91t4 83.5zM526 978q-12 -25 -34 -50t-49 -47t-57.5 -40t-59.5 -29l-51 19q24 14 48.5 32
t47 38t41.5 42t32 44z" />
    <glyph glyph-name="Ocircumflex" unicode="&#xd4;" horiz-adv-x="660" 
d="M625 468q0 -54 -8.5 -111t-26 -110.5t-45.5 -101.5t-67 -83.5t-90 -56.5t-115 -21q-71 0 -117 25.5t-73 68.5t-37.5 99t-10.5 117q0 55 8 111.5t25.5 110t45.5 100.5t67 82t90 55.5t116 20.5q69 0 115 -25.5t73 -68t38.5 -97.5t11.5 -115zM532 458q0 44 -6.5 89.5t-25 83
t-52.5 61t-89 23.5q-48 0 -83.5 -20.5t-61.5 -55t-42.5 -78t-26.5 -89.5t-14 -90.5t-4 -80.5q0 -41 6 -85.5t24 -82t50 -62t84 -24.5q50 0 87.5 20t64 52.5t44 75.5t27.5 88.5t14 91t4 83.5zM507 815q-22 21 -45.5 43t-53.5 48q-29 -18 -58.5 -41.5t-54.5 -44.5l-45 26
q31 31 69 62.5t70 54.5l60 4q9 -14 22.5 -30.5t29 -33.5t31.5 -33t31 -28z" />
    <glyph glyph-name="Odieresis" unicode="&#xd6;" horiz-adv-x="660" 
d="M625 468q0 -54 -8.5 -111t-26 -110.5t-45.5 -101.5t-67 -83.5t-90 -56.5t-115 -21q-71 0 -117 25.5t-73 68.5t-37.5 99t-10.5 117q0 55 8 111.5t25.5 110t45.5 100.5t67 82t90 55.5t116 20.5q69 0 115 -25.5t73 -68t38.5 -97.5t11.5 -115zM532 458q0 44 -6.5 89.5t-25 83
t-52.5 61t-89 23.5q-48 0 -83.5 -20.5t-61.5 -55t-42.5 -78t-26.5 -89.5t-14 -90.5t-4 -80.5q0 -41 6 -85.5t24 -82t50 -62t84 -24.5q50 0 87.5 20t64 52.5t44 75.5t27.5 88.5t14 91t4 83.5zM370 889q-2 -26 -18.5 -43.5t-35.5 -19.5q-17 -2 -29.5 10t-10.5 36t18 42t37 20
q17 2 29 -10t10 -35zM568 889q-2 -26 -18.5 -43.5t-35.5 -19.5q-17 -2 -29 10t-10 36t18 42t37 20q17 2 28.5 -10t9.5 -35z" />
    <glyph glyph-name="Ograve" unicode="&#xd2;" horiz-adv-x="660" 
d="M625 468q0 -54 -8.5 -111t-26 -110.5t-45.5 -101.5t-67 -83.5t-90 -56.5t-115 -21q-71 0 -117 25.5t-73 68.5t-37.5 99t-10.5 117q0 55 8 111.5t25.5 110t45.5 100.5t67 82t90 55.5t116 20.5q69 0 115 -25.5t73 -68t38.5 -97.5t11.5 -115zM532 458q0 44 -6.5 89.5t-25 83
t-52.5 61t-89 23.5q-48 0 -83.5 -20.5t-61.5 -55t-42.5 -78t-26.5 -89.5t-14 -90.5t-4 -80.5q0 -41 6 -85.5t24 -82t50 -62t84 -24.5q50 0 87.5 20t64 52.5t44 75.5t27.5 88.5t14 91t4 83.5zM456 817q-28 9 -54 25.5t-47.5 37t-38 43t-25.5 44.5l87 4q17 -37 53 -74.5
t83 -65.5z" />
    <glyph glyph-name="Otilde" unicode="&#xd5;" horiz-adv-x="660" 
d="M625 468q0 -54 -8.5 -111t-26 -110.5t-45.5 -101.5t-67 -83.5t-90 -56.5t-115 -21q-71 0 -117 25.5t-73 68.5t-37.5 99t-10.5 117q0 55 8 111.5t25.5 110t45.5 100.5t67 82t90 55.5t116 20.5q69 0 115 -25.5t73 -68t38.5 -97.5t11.5 -115zM532 458q0 44 -6.5 89.5t-25 83
t-52.5 61t-89 23.5q-48 0 -83.5 -20.5t-61.5 -55t-42.5 -78t-26.5 -89.5t-14 -90.5t-4 -80.5q0 -41 6 -85.5t24 -82t50 -62t84 -24.5q50 0 87.5 20t64 52.5t44 75.5t27.5 88.5t14 91t4 83.5zM555 844q-12 -8 -29 -12.5t-35 -4.5q-21 0 -38 7.5t-33 16t-32 16t-34 7.5
q-20 0 -36 -8.5t-30 -21.5l-3 60q32 31 74 31q18 0 35 -7t33.5 -15.5t34 -15.5t37.5 -7q12 0 23.5 4t22.5 9z" />
    <glyph glyph-name="Scaron" unicode="&#x160;" horiz-adv-x="389" 
d="M338 723q-36 -12 -67.5 -30.5t-55.5 -40.5t-37.5 -46.5t-13.5 -48.5q0 -46 25 -87.5t55 -83.5t55 -87t25 -98q0 -54 -21 -95t-57.5 -70.5t-86 -48t-106.5 -28.5l-26 61q34 4 71 16.5t67.5 32.5t50 47.5t19.5 62.5t-11.5 64t-29.5 56t-38 53.5t-38 55t-29.5 60t-11.5 69.5
q0 45 18 83.5t48 70t69.5 55t83.5 37.5zM403 953q-30 -32 -67 -66t-67 -58l-58 -4q-9 14 -21.5 31.5t-27.5 35.5t-31 34.5t-30 29.5l54 28q21 -22 43.5 -44.5t51.5 -50.5q29 19 57 43.5t52 46.5z" />
    <glyph glyph-name="Uacute" unicode="&#xda;" horiz-adv-x="699" 
d="M642 770q-9 -57 -16.5 -122.5t-13 -131.5t-9.5 -128t-5 -111q-1 -31 0 -66.5t4 -72t9 -71t17 -62.5l-80 -19q-3 9 -6 17.5t-6.5 22t-7.5 34.5t-8 53q-67 -74 -131.5 -101.5t-127.5 -27.5q-39 0 -73 14.5t-57.5 45.5t-35.5 79.5t-8 116.5q4 64 13.5 127t19.5 126
t17.5 126.5t7.5 127.5l79 20q2 -30 0.5 -63t-4.5 -67.5t-8 -68.5t-9 -66q-11 -78 -19.5 -150t-8.5 -139q0 -76 29.5 -118.5t96.5 -42.5q31 0 62.5 11.5t60 31t51.5 44.5t38 51q1 70 5.5 148.5t11 154.5t15 144.5t17.5 119.5zM569 954q-12 -25 -34 -50t-49 -47t-57 -40
t-59 -29l-51 20q24 14 48.5 31.5t47 38t41 42t31.5 43.5z" />
    <glyph glyph-name="Ucircumflex" unicode="&#xdb;" horiz-adv-x="699" 
d="M642 770q-9 -57 -16.5 -122.5t-13 -131.5t-9.5 -128t-5 -111q-1 -31 0 -66.5t4 -72t9 -71t17 -62.5l-80 -19q-3 9 -6 17.5t-6.5 22t-7.5 34.5t-8 53q-67 -74 -131.5 -101.5t-127.5 -27.5q-39 0 -73 14.5t-57.5 45.5t-35.5 79.5t-8 116.5q4 64 13.5 127t19.5 126
t17.5 126.5t7.5 127.5l79 20q2 -30 0.5 -63t-4.5 -67.5t-8 -68.5t-9 -66q-11 -78 -19.5 -150t-8.5 -139q0 -76 29.5 -118.5t96.5 -42.5q31 0 62.5 11.5t60 31t51.5 44.5t38 51q1 70 5.5 148.5t11 154.5t15 144.5t17.5 119.5zM508 815q-22 21 -45.5 43t-53.5 48
q-29 -18 -58.5 -41.5t-54.5 -44.5l-46 26q31 31 69 62.5t70 54.5l61 4q9 -14 22.5 -30.5t29 -33.5t31.5 -33t31 -28z" />
    <glyph glyph-name="Udieresis" unicode="&#xdc;" horiz-adv-x="699" 
d="M642 770q-9 -57 -16.5 -122.5t-13 -131.5t-9.5 -128t-5 -111q-1 -31 0 -66.5t4 -72t9 -71t17 -62.5l-80 -19q-3 9 -6 17.5t-6.5 22t-7.5 34.5t-8 53q-67 -74 -131.5 -101.5t-127.5 -27.5q-39 0 -73 14.5t-57.5 45.5t-35.5 79.5t-8 116.5q4 64 13.5 127t19.5 126
t17.5 126.5t7.5 127.5l79 20q2 -30 0.5 -63t-4.5 -67.5t-8 -68.5t-9 -66q-11 -78 -19.5 -150t-8.5 -139q0 -76 29.5 -118.5t96.5 -42.5q31 0 62.5 11.5t60 31t51.5 44.5t38 51q1 70 5.5 148.5t11 154.5t15 144.5t17.5 119.5zM352 889q-2 -26 -18.5 -43.5t-35.5 -19.5
q-17 -2 -29.5 10t-10.5 36t18 42t37 20q17 2 29 -10t10 -35zM550 889q-2 -26 -18.5 -43.5t-35.5 -19.5q-17 -2 -29 10t-10 36t18 42t37 20q17 2 28.5 -10t9.5 -35z" />
    <glyph glyph-name="Ugrave" unicode="&#xd9;" horiz-adv-x="699" 
d="M642 770q-9 -57 -16.5 -122.5t-13 -131.5t-9.5 -128t-5 -111q-1 -31 0 -66.5t4 -72t9 -71t17 -62.5l-80 -19q-3 9 -6 17.5t-6.5 22t-7.5 34.5t-8 53q-67 -74 -131.5 -101.5t-127.5 -27.5q-39 0 -73 14.5t-57.5 45.5t-35.5 79.5t-8 116.5q4 64 13.5 127t19.5 126
t17.5 126.5t7.5 127.5l79 20q2 -30 0.5 -63t-4.5 -67.5t-8 -68.5t-9 -66q-11 -78 -19.5 -150t-8.5 -139q0 -76 29.5 -118.5t96.5 -42.5q31 0 62.5 11.5t60 31t51.5 44.5t38 51q1 70 5.5 148.5t11 154.5t15 144.5t17.5 119.5zM450 805q-28 9 -54 25.5t-48 37t-38.5 43
t-25.5 44.5l88 4q17 -37 53 -74.5t83 -65.5z" />
    <glyph glyph-name="Yacute" unicode="&#xdd;" horiz-adv-x="529" 
d="M563 766q-24 -108 -69 -205.5t-97.5 -191.5t-106 -188t-95.5 -194l-80 9q27 67 62.5 135.5t73.5 131.5l-50 -5q-18 54 -41.5 115t-48.5 124.5t-48.5 127.5t-39.5 124l78 19q13 -49 33.5 -105.5t44 -117.5t48 -124t44.5 -124q34 55 67 116t60.5 120.5t47.5 114.5t29 98z
M480 954q-12 -25 -34 -50t-49 -47t-57 -40t-59 -29l-51 20q24 14 48.5 31.5t47 38t41 42t31.5 43.5z" />
    <glyph glyph-name="Ydieresis" unicode="&#x178;" horiz-adv-x="529" 
d="M563 766q-24 -108 -69 -205.5t-97.5 -191.5t-106 -188t-95.5 -194l-80 9q27 67 62.5 135.5t73.5 131.5l-50 -5q-18 54 -41.5 115t-48.5 124.5t-48.5 127.5t-39.5 124l78 19q13 -49 33.5 -105.5t44 -117.5t48 -124t44.5 -124q34 55 67 116t60.5 120.5t47.5 114.5t29 98z
M261 889q-2 -26 -18.5 -43.5t-35.5 -19.5q-17 -2 -29.5 10t-10.5 36t18 42t37 20q17 2 29 -10t10 -35zM459 889q-2 -26 -18.5 -43.5t-35.5 -19.5q-17 -2 -29 10t-10 36t18 42t37 20q17 2 28.5 -10t9.5 -35z" />
    <glyph glyph-name="Zcaron" unicode="&#x17d;" horiz-adv-x="511" 
d="M510 684q-47 -78 -98.5 -152.5t-105 -149.5t-108.5 -153t-109 -165q49 -4 100.5 -4.5t100.5 2t94.5 7.5t82.5 12l6 -76q-46 -8 -107.5 -11.5t-126 -4.5t-126.5 0.5t-109 3.5l-13 57q46 80 99.5 158.5t109 156.5t111 156.5t107.5 159.5q-56 4 -102.5 5.5t-87.5 0t-78 -6
t-73 -11.5l3 74q100 18 201.5 16t204.5 -10q7 -18 12 -32t12 -33zM466 931q-31 -33 -69.5 -67.5t-70.5 -59.5l-60 -4q-9 15 -22.5 33t-29 36t-31.5 35.5t-31 30.5l56 29q22 -23 45.5 -46t53.5 -52q29 20 58.5 44.5t54.5 47.5z" />
    <glyph glyph-name="aacute" unicode="&#xe1;" horiz-adv-x="493" 
d="M448 521q-7 -34 -14.5 -77t-13.5 -87t-11 -86t-8 -73q-2 -28 -2 -55.5t3.5 -52.5t9.5 -46t16 -34l-64 -27q-12 13 -21.5 35.5t-15.5 58.5q-32 -30 -62.5 -52.5t-62.5 -36.5q-8 -2 -22.5 -3t-19.5 -1q-57 0 -92.5 50t-35.5 138t25.5 159t65.5 121.5t89.5 77.5t97.5 27
q38 0 70 -8t68 -28zM365 483q-14 9 -32.5 14.5t-38.5 5.5q-32 0 -64.5 -21.5t-58 -61.5t-41.5 -97t-16 -128q0 -27 4.5 -53.5t15.5 -48.5t29.5 -35.5t45.5 -13.5q17 0 34 7t32 19t26.5 26.5t19.5 29.5q1 39 5 84t10 91.5t13.5 93t15.5 88.5zM440 810q-11 -31 -29 -61.5
t-40.5 -58t-48 -50t-50.5 -35.5l-43 24q41 35 80.5 86.5t61.5 105.5z" />
    <glyph glyph-name="acircumflex" unicode="&#xe2;" horiz-adv-x="493" 
d="M448 521q-7 -34 -14.5 -77t-13.5 -87t-11 -86t-8 -73q-2 -28 -2 -55.5t3.5 -52.5t9.5 -46t16 -34l-64 -27q-12 13 -21.5 35.5t-15.5 58.5q-32 -30 -62.5 -52.5t-62.5 -36.5q-8 -2 -22.5 -3t-19.5 -1q-57 0 -92.5 50t-35.5 138t25.5 159t65.5 121.5t89.5 77.5t97.5 27
q38 0 70 -8t68 -28zM365 483q-14 9 -32.5 14.5t-38.5 5.5q-32 0 -64.5 -21.5t-58 -61.5t-41.5 -97t-16 -128q0 -27 4.5 -53.5t15.5 -48.5t29.5 -35.5t45.5 -13.5q17 0 34 7t32 19t26.5 26.5t19.5 29.5q1 39 5 84t10 91.5t13.5 93t15.5 88.5zM415 589q-21 26 -43.5 52.5
t-51.5 58.5q-29 -22 -57 -50.5t-52 -54.5l-44 31q30 38 67 76.5t67 67.5l58 5q9 -17 21.5 -37.5t27.5 -41.5t31 -40t30 -34z" />
    <glyph glyph-name="adieresis" unicode="&#xe4;" horiz-adv-x="493" 
d="M448 521q-7 -34 -14.5 -77t-13.5 -87t-11 -86t-8 -73q-2 -28 -2 -55.5t3.5 -52.5t9.5 -46t16 -34l-64 -27q-12 13 -21.5 35.5t-15.5 58.5q-32 -30 -62.5 -52.5t-62.5 -36.5q-8 -2 -22.5 -3t-19.5 -1q-57 0 -92.5 50t-35.5 138t25.5 159t65.5 121.5t89.5 77.5t97.5 27
q38 0 70 -8t68 -28zM365 483q-14 9 -32.5 14.5t-38.5 5.5q-32 0 -64.5 -21.5t-58 -61.5t-41.5 -97t-16 -128q0 -27 4.5 -53.5t15.5 -48.5t29.5 -35.5t45.5 -13.5q17 0 34 7t32 19t26.5 26.5t19.5 29.5q1 39 5 84t10 91.5t13.5 93t15.5 88.5zM273 714q-2 -26 -18.5 -43.5
t-35.5 -19.5q-17 -2 -29.5 10t-10.5 36t18 42t37 20q17 2 29 -10t10 -35zM471 714q-2 -26 -18.5 -43.5t-35.5 -19.5q-17 -2 -29 10t-10 36t18 42t37 20q17 2 28.5 -10t9.5 -35z" />
    <glyph glyph-name="agrave" unicode="&#xe0;" horiz-adv-x="493" 
d="M448 521q-7 -34 -14.5 -77t-13.5 -87t-11 -86t-8 -73q-2 -28 -2 -55.5t3.5 -52.5t9.5 -46t16 -34l-64 -27q-12 13 -21.5 35.5t-15.5 58.5q-32 -30 -62.5 -52.5t-62.5 -36.5q-8 -2 -22.5 -3t-19.5 -1q-57 0 -92.5 50t-35.5 138t25.5 159t65.5 121.5t89.5 77.5t97.5 27
q38 0 70 -8t68 -28zM365 483q-14 9 -32.5 14.5t-38.5 5.5q-32 0 -64.5 -21.5t-58 -61.5t-41.5 -97t-16 -128q0 -27 4.5 -53.5t15.5 -48.5t29.5 -35.5t45.5 -13.5q17 0 34 7t32 19t26.5 26.5t19.5 29.5q1 39 5 84t10 91.5t13.5 93t15.5 88.5zM394 590q-23 13 -43.5 36
t-38 51.5t-31 61t-20.5 63.5l70 7q14 -52 42.5 -106.5t66.5 -93.5z" />
    <glyph glyph-name="aring" unicode="&#xe5;" horiz-adv-x="493" 
d="M448 521q-7 -34 -14.5 -77t-13.5 -87t-11 -86t-8 -73q-2 -28 -2 -55.5t3.5 -52.5t9.5 -46t16 -34l-64 -27q-12 13 -21.5 35.5t-15.5 58.5q-32 -30 -62.5 -52.5t-62.5 -36.5q-8 -2 -22.5 -3t-19.5 -1q-57 0 -92.5 50t-35.5 138t25.5 159t65.5 121.5t89.5 77.5t97.5 27
q38 0 70 -8t68 -28zM365 483q-14 9 -32.5 14.5t-38.5 5.5q-32 0 -64.5 -21.5t-58 -61.5t-41.5 -97t-16 -128q0 -27 4.5 -53.5t15.5 -48.5t29.5 -35.5t45.5 -13.5q17 0 34 7t32 19t26.5 26.5t19.5 29.5q1 39 5 84t10 91.5t13.5 93t15.5 88.5zM442 733q0 -33 -11 -56.5
t-29 -38.5t-41.5 -22.5t-47.5 -7.5q-38 0 -61.5 22.5t-23.5 65.5q0 31 10.5 54.5t27.5 39t40 23.5t47 8q38 0 63.5 -23t25.5 -65zM389 727q0 20 -10 37.5t-36 17.5q-28 0 -45.5 -22t-17.5 -57q0 -22 10.5 -37.5t36.5 -15.5q32 0 47 24.5t15 52.5z" />
    <glyph glyph-name="atilde" unicode="&#xe3;" horiz-adv-x="493" 
d="M448 521q-7 -34 -14.5 -77t-13.5 -87t-11 -86t-8 -73q-2 -28 -2 -55.5t3.5 -52.5t9.5 -46t16 -34l-64 -27q-12 13 -21.5 35.5t-15.5 58.5q-32 -30 -62.5 -52.5t-62.5 -36.5q-8 -2 -22.5 -3t-19.5 -1q-57 0 -92.5 50t-35.5 138t25.5 159t65.5 121.5t89.5 77.5t97.5 27
q38 0 70 -8t68 -28zM365 483q-14 9 -32.5 14.5t-38.5 5.5q-32 0 -64.5 -21.5t-58 -61.5t-41.5 -97t-16 -128q0 -27 4.5 -53.5t15.5 -48.5t29.5 -35.5t45.5 -13.5q17 0 34 7t32 19t26.5 26.5t19.5 29.5q1 39 5 84t10 91.5t13.5 93t15.5 88.5zM444 676q-12 -8 -29 -12.5
t-35 -4.5q-21 0 -38 7.5t-33 16t-32 16t-34 7.5q-20 0 -36 -8.5t-30 -21.5l-3 60q32 31 74 31q18 0 35 -7t33.5 -15.5t34 -15.5t37.5 -7q12 0 23.5 4t22.5 9z" />
    <glyph glyph-name="ccedilla" unicode="&#xe7;" horiz-adv-x="408" 
d="M330 444q-6 20 -21 37.5t-45 17.5q-28 0 -54.5 -18.5t-47.5 -55t-33.5 -91t-12.5 -126.5q0 -71 29.5 -115t97.5 -44q25 0 55.5 11t50.5 26l6 -64q-29 -20 -70.5 -29t-82.5 -9q-48 0 -80.5 16.5t-52.5 44t-28 64.5t-8 79q0 85 20.5 153.5t54 116.5t78 73.5t92.5 25.5
t80 -19t41 -59zM277 -130q0 -26 -10.5 -46t-27.5 -34.5t-39.5 -22t-46.5 -7.5t-50 8l7 40q18 -6 36 -6q15 0 29 4t25.5 12.5t18.5 20.5t7 28q0 26 -19 38t-43 12q-27 0 -56 -13l-5 36q18 9 37.5 14.5t39.5 5.5q41 0 69 -23.5t28 -66.5z" />
    <glyph glyph-name="eacute" unicode="&#xe9;" horiz-adv-x="436" 
d="M403 433q0 -42 -19.5 -80.5t-51 -68t-70 -46.5t-77.5 -17h-16q-4 0 -9 1l-44 35q-5 -53 2 -93t22.5 -66t38 -39t48.5 -13q28 0 63 13t62 34l5 -67q-33 -22 -78 -32t-84 -10q-72 0 -117 50.5t-45 146.5q0 79 19.5 147.5t53 119.5t79 80t96.5 29q57 0 89.5 -30t32.5 -94z
M320 433q0 31 -15 50.5t-42 19.5q-26 0 -50 -18.5t-43 -50t-32.5 -73.5t-19.5 -90q32 -5 67.5 4.5t65.5 31.5t49.5 54t19.5 72zM425 810q-11 -31 -29 -61.5t-40.5 -58t-48 -50t-50.5 -35.5l-43 24q41 35 80.5 86.5t61.5 105.5z" />
    <glyph glyph-name="ecircumflex" unicode="&#xea;" horiz-adv-x="436" 
d="M403 433q0 -42 -19.5 -80.5t-51 -68t-70 -46.5t-77.5 -17h-16q-4 0 -9 1l-44 35q-5 -53 2 -93t22.5 -66t38 -39t48.5 -13q28 0 63 13t62 34l5 -67q-33 -22 -78 -32t-84 -10q-72 0 -117 50.5t-45 146.5q0 79 19.5 147.5t53 119.5t79 80t96.5 29q57 0 89.5 -30t32.5 -94z
M320 433q0 31 -15 50.5t-42 19.5q-26 0 -50 -18.5t-43 -50t-32.5 -73.5t-19.5 -90q32 -5 67.5 4.5t65.5 31.5t49.5 54t19.5 72zM375 586q-21 26 -43.5 52.5t-51.5 58.5q-29 -22 -57 -50.5t-52 -54.5l-44 31q30 38 67 76.5t67 67.5l58 5q9 -17 21.5 -37.5t27.5 -41.5t31 -40
t30 -34z" />
    <glyph glyph-name="edieresis" unicode="&#xeb;" horiz-adv-x="436" 
d="M403 433q0 -42 -19.5 -80.5t-51 -68t-70 -46.5t-77.5 -17h-16q-4 0 -9 1l-44 35q-5 -53 2 -93t22.5 -66t38 -39t48.5 -13q28 0 63 13t62 34l5 -67q-33 -22 -78 -32t-84 -10q-72 0 -117 50.5t-45 146.5q0 79 19.5 147.5t53 119.5t79 80t96.5 29q57 0 89.5 -30t32.5 -94z
M320 433q0 31 -15 50.5t-42 19.5q-26 0 -50 -18.5t-43 -50t-32.5 -73.5t-19.5 -90q32 -5 67.5 4.5t65.5 31.5t49.5 54t19.5 72zM254 714q-2 -26 -18.5 -43.5t-35.5 -19.5q-17 -2 -29.5 10t-10.5 36t18 42t37 20q17 2 29 -10t10 -35zM452 714q-2 -26 -18.5 -43.5t-35.5 -19.5
q-17 -2 -29 10t-10 36t18 42t37 20q17 2 28.5 -10t9.5 -35z" />
    <glyph glyph-name="egrave" unicode="&#xe8;" horiz-adv-x="436" 
d="M403 433q0 -42 -19.5 -80.5t-51 -68t-70 -46.5t-77.5 -17h-16q-4 0 -9 1l-44 35q-5 -53 2 -93t22.5 -66t38 -39t48.5 -13q28 0 63 13t62 34l5 -67q-33 -22 -78 -32t-84 -10q-72 0 -117 50.5t-45 146.5q0 79 19.5 147.5t53 119.5t79 80t96.5 29q57 0 89.5 -30t32.5 -94z
M320 433q0 31 -15 50.5t-42 19.5q-26 0 -50 -18.5t-43 -50t-32.5 -73.5t-19.5 -90q32 -5 67.5 4.5t65.5 31.5t49.5 54t19.5 72zM332 604q-23 13 -43.5 36t-38 51.5t-31 61t-20.5 63.5l70 7q14 -52 42.5 -106.5t66.5 -93.5z" />
    <glyph glyph-name="iacute" unicode="&#xed;" horiz-adv-x="259" 
d="M194 557q0 -39 -4.5 -86t-10.5 -95.5t-13 -94t-11 -81.5q-8 -63 -9.5 -112.5t2.5 -84.5l-78 -18q-2 31 -2 74t5 89q4 42 12 94.5t15 106.5t11.5 105t3.5 89zM279 848q-11 -33 -29 -65.5t-40.5 -62t-48 -53t-50.5 -38.5l-43 25q20 18 41 42t39.5 51t34.5 55.5t27 57.5z
" />
    <glyph glyph-name="icircumflex" unicode="&#xee;" horiz-adv-x="259" 
d="M194 557q0 -39 -4.5 -86t-10.5 -95.5t-13 -94t-11 -81.5q-8 -63 -9.5 -112.5t2.5 -84.5l-78 -18q-2 31 -2 74t5 89q4 42 12 94.5t15 106.5t11.5 105t3.5 89zM254 638q-17 27 -35.5 55t-42.5 62q-23 -23 -46.5 -53t-43.5 -57l-36 32q25 40 55 81t55 70l48 5
q7 -18 17.5 -39.5t23 -43t25 -42t24.5 -35.5z" />
    <glyph glyph-name="idieresis" unicode="&#xef;" horiz-adv-x="259" 
d="M212 557q0 -39 -4.5 -86t-10.5 -95.5t-13 -94t-11 -81.5q-8 -63 -9.5 -112.5t2.5 -84.5l-78 -18q-2 31 -2 74t5 89q4 42 12 94.5t15 106.5t11.5 105t3.5 89zM160 744q-2 -27 -18.5 -45t-33.5 -20q-16 -2 -28 9.5t-10 37.5q2 25 18.5 43.5t36.5 20.5q14 2 25.5 -9t9.5 -37
zM316 744q-2 -27 -19 -45t-34 -20q-16 -2 -27.5 9.5t-9.5 37.5q2 25 18 43.5t36 20.5q14 2 26 -9t10 -37z" />
    <glyph glyph-name="igrave" unicode="&#xec;" horiz-adv-x="259" 
d="M194 557q0 -39 -4.5 -86t-10.5 -95.5t-13 -94t-11 -81.5q-8 -63 -9.5 -112.5t2.5 -84.5l-78 -18q-2 31 -2 74t5 89q4 42 12 94.5t15 106.5t11.5 105t3.5 89zM178 627q-23 13 -43.5 37.5t-38 55.5t-31 65.5t-20.5 67.5l70 8q14 -56 42.5 -114t66.5 -100z" />
    <glyph glyph-name="ntilde" unicode="&#xf1;" horiz-adv-x="497" 
d="M440 400q-5 -42 -16 -93t-17 -108q-2 -20 -4 -44.5t-1 -49.5t4.5 -48t11.5 -40l-72 -27q-16 34 -18.5 87t7.5 119l26 174q5 34 3.5 57.5t-8 38t-17.5 21t-24 6.5q-22 0 -48.5 -23t-51 -63t-44 -94.5t-27.5 -117.5l-24 -194l-74 -4q6 37 12.5 85t12.5 100t12 105t9.5 100
t4.5 85.5t-1 62.5l69 22q4 -26 4 -72t-7 -94q35 55 74 94t81 69q13 3 26 3q22 0 42 -10.5t33.5 -31t19.5 -49.5t2 -66zM433 676q-12 -8 -29 -12.5t-35 -4.5q-21 0 -38 7.5t-33 16t-32 16t-34 7.5q-20 0 -36 -8.5t-30 -21.5l-3 60q32 31 74 31q18 0 35 -7t33.5 -15.5
t34 -15.5t37.5 -7q12 0 23.5 4t22.5 9z" />
    <glyph glyph-name="oacute" unicode="&#xf3;" horiz-adv-x="476" 
d="M444 360q0 -69 -15.5 -136.5t-48 -120.5t-83.5 -85.5t-122 -32.5q-77 0 -110 51.5t-33 137.5q0 66 15.5 134.5t47.5 123.5t81.5 90t117.5 35q39 0 67 -14t46.5 -40t27.5 -62.5t9 -80.5zM361 343q0 79 -21.5 120t-78.5 41q-32 0 -58.5 -24t-46 -66t-30.5 -98.5t-11 -122.5
q0 -33 4.5 -61t15.5 -48.5t30.5 -32t49.5 -11.5q36 0 63.5 24t46 65t27.5 96t9 118zM428 810q-11 -31 -29 -61.5t-40.5 -58t-48 -50t-50.5 -35.5l-43 24q41 35 80.5 86.5t61.5 105.5z" />
    <glyph glyph-name="ocircumflex" unicode="&#xf4;" horiz-adv-x="476" 
d="M444 360q0 -69 -15.5 -136.5t-48 -120.5t-83.5 -85.5t-122 -32.5q-77 0 -110 51.5t-33 137.5q0 66 15.5 134.5t47.5 123.5t81.5 90t117.5 35q39 0 67 -14t46.5 -40t27.5 -62.5t9 -80.5zM361 343q0 79 -21.5 120t-78.5 41q-32 0 -58.5 -24t-46 -66t-30.5 -98.5t-11 -122.5
q0 -33 4.5 -61t15.5 -48.5t30.5 -32t49.5 -11.5q36 0 63.5 24t46 65t27.5 96t9 118zM379 594q-21 26 -43.5 52.5t-51.5 58.5q-29 -22 -57 -50.5t-52 -54.5l-44 31q30 38 67 76.5t67 67.5l58 5q9 -17 21.5 -37.5t27.5 -41.5t31 -40t30 -34z" />
    <glyph glyph-name="odieresis" unicode="&#xf6;" horiz-adv-x="476" 
d="M444 360q0 -69 -15.5 -136.5t-48 -120.5t-83.5 -85.5t-122 -32.5q-77 0 -110 51.5t-33 137.5q0 66 15.5 134.5t47.5 123.5t81.5 90t117.5 35q39 0 67 -14t46.5 -40t27.5 -62.5t9 -80.5zM361 343q0 79 -21.5 120t-78.5 41q-32 0 -58.5 -24t-46 -66t-30.5 -98.5t-11 -122.5
q0 -33 4.5 -61t15.5 -48.5t30.5 -32t49.5 -11.5q36 0 63.5 24t46 65t27.5 96t9 118zM260 714q-2 -26 -18.5 -43.5t-35.5 -19.5q-17 -2 -29.5 10t-10.5 36t18 42t37 20q17 2 29 -10t10 -35zM458 714q-2 -26 -18.5 -43.5t-35.5 -19.5q-17 -2 -29 10t-10 36t18 42t37 20
q17 2 28.5 -10t9.5 -35z" />
    <glyph glyph-name="ograve" unicode="&#xf2;" horiz-adv-x="476" 
d="M444 360q0 -69 -15.5 -136.5t-48 -120.5t-83.5 -85.5t-122 -32.5q-77 0 -110 51.5t-33 137.5q0 66 15.5 134.5t47.5 123.5t81.5 90t117.5 35q39 0 67 -14t46.5 -40t27.5 -62.5t9 -80.5zM361 343q0 79 -21.5 120t-78.5 41q-32 0 -58.5 -24t-46 -66t-30.5 -98.5t-11 -122.5
q0 -33 4.5 -61t15.5 -48.5t30.5 -32t49.5 -11.5q36 0 63.5 24t46 65t27.5 96t9 118zM324 603q-23 13 -43.5 36t-38 51.5t-31 61t-20.5 63.5l70 7q14 -52 42.5 -106.5t66.5 -93.5z" />
    <glyph glyph-name="otilde" unicode="&#xf5;" horiz-adv-x="476" 
d="M444 360q0 -69 -15.5 -136.5t-48 -120.5t-83.5 -85.5t-122 -32.5q-77 0 -110 51.5t-33 137.5q0 66 15.5 134.5t47.5 123.5t81.5 90t117.5 35q39 0 67 -14t46.5 -40t27.5 -62.5t9 -80.5zM361 343q0 79 -21.5 120t-78.5 41q-32 0 -58.5 -24t-46 -66t-30.5 -98.5t-11 -122.5
q0 -33 4.5 -61t15.5 -48.5t30.5 -32t49.5 -11.5q36 0 63.5 24t46 65t27.5 96t9 118zM443 676q-12 -8 -29 -12.5t-35 -4.5q-21 0 -38 7.5t-33 16t-32 16t-34 7.5q-20 0 -36 -8.5t-30 -21.5l-3 60q32 31 74 31q18 0 35 -7t33.5 -15.5t34 -15.5t37.5 -7q12 0 23.5 4t22.5 9z
" />
    <glyph glyph-name="scaron" unicode="&#x161;" horiz-adv-x="295" 
d="M271 521q-38 -14 -63 -29.5t-40 -31.5t-21 -31t-6 -28q0 -33 16 -62t35 -58t35 -60.5t15 -70.5q-2 -66 -52.5 -115.5t-136.5 -72.5l-46 52q32 7 60 18t49 26.5t33.5 34t12.5 40.5q1 34 -15.5 63t-36 57.5t-35.5 59.5t-15 69q2 60 44.5 110t111.5 79zM330 766
q-26 -38 -59 -78t-60 -68l-51 -5q-8 17 -19 37.5t-24.5 41.5t-27.5 41t-26 35l47 33q19 -26 38.5 -53t45.5 -59q25 22 50.5 51t46.5 55z" />
    <glyph glyph-name="uacute" unicode="&#xfa;" horiz-adv-x="514" 
d="M466 555q-6 -36 -12 -79.5t-12 -90t-11.5 -93t-10.5 -88.5q-6 -51 -6 -104t11 -95l-74 -21q-6 18 -8.5 55.5t-2.5 74.5q-60 -90 -143 -127q-15 -3 -31 -3q-46 0 -74.5 31.5t-22.5 105.5q4 48 12 102t15 110q6 51 8.5 103.5t-2.5 98.5l76 22q5 -40 3.5 -91.5t-8.5 -117.5
q-2 -17 -6 -47.5t-8 -62.5t-7 -60.5t-3 -42.5q0 -18 2 -34.5t8 -28.5t17 -19t29 -7q27 0 52 21t45.5 57t35.5 84t22 101l32 234zM437 810q-11 -31 -29 -61.5t-40.5 -58t-48 -50t-50.5 -35.5l-43 24q41 35 80.5 86.5t61.5 105.5z" />
    <glyph glyph-name="ucircumflex" unicode="&#xfb;" horiz-adv-x="514" 
d="M466 555q-6 -36 -12 -79.5t-12 -90t-11.5 -93t-10.5 -88.5q-6 -51 -6 -104t11 -95l-74 -21q-6 18 -8.5 55.5t-2.5 74.5q-60 -90 -143 -127q-15 -3 -31 -3q-46 0 -74.5 31.5t-22.5 105.5q4 48 12 102t15 110q6 51 8.5 103.5t-2.5 98.5l76 22q5 -40 3.5 -91.5t-8.5 -117.5
q-2 -17 -6 -47.5t-8 -62.5t-7 -60.5t-3 -42.5q0 -18 2 -34.5t8 -28.5t17 -19t29 -7q27 0 52 21t45.5 57t35.5 84t22 101l32 234zM406 610q-21 26 -43.5 52.5t-51.5 58.5q-29 -22 -57 -50.5t-52 -54.5l-44 31q30 38 67 76.5t67 67.5l58 5q9 -17 21.5 -37.5t27.5 -41.5t31 -40
t30 -34z" />
    <glyph glyph-name="udieresis" unicode="&#xfc;" horiz-adv-x="514" 
d="M466 555q-6 -36 -12 -79.5t-12 -90t-11.5 -93t-10.5 -88.5q-6 -51 -6 -104t11 -95l-74 -21q-6 18 -8.5 55.5t-2.5 74.5q-60 -90 -143 -127q-15 -3 -31 -3q-46 0 -74.5 31.5t-22.5 105.5q4 48 12 102t15 110q6 51 8.5 103.5t-2.5 98.5l76 22q5 -40 3.5 -91.5t-8.5 -117.5
q-2 -17 -6 -47.5t-8 -62.5t-7 -60.5t-3 -42.5q0 -18 2 -34.5t8 -28.5t17 -19t29 -7q27 0 52 21t45.5 57t35.5 84t22 101l32 234zM270 714q-2 -26 -18.5 -43.5t-35.5 -19.5q-17 -2 -29.5 10t-10.5 36t18 42t37 20q17 2 29 -10t10 -35zM468 714q-2 -26 -18.5 -43.5
t-35.5 -19.5q-17 -2 -29 10t-10 36t18 42t37 20q17 2 28.5 -10t9.5 -35z" />
    <glyph glyph-name="ugrave" unicode="&#xf9;" horiz-adv-x="514" 
d="M466 555q-6 -36 -12 -79.5t-12 -90t-11.5 -93t-10.5 -88.5q-6 -51 -6 -104t11 -95l-74 -21q-6 18 -8.5 55.5t-2.5 74.5q-60 -90 -143 -127q-15 -3 -31 -3q-46 0 -74.5 31.5t-22.5 105.5q4 48 12 102t15 110q6 51 8.5 103.5t-2.5 98.5l76 22q5 -40 3.5 -91.5t-8.5 -117.5
q-2 -17 -6 -47.5t-8 -62.5t-7 -60.5t-3 -42.5q0 -18 2 -34.5t8 -28.5t17 -19t29 -7q27 0 52 21t45.5 57t35.5 84t22 101l32 234zM333 603q-23 13 -43.5 36t-38 51.5t-31 61t-20.5 63.5l70 7q14 -52 42.5 -106.5t66.5 -93.5z" />
    <glyph glyph-name="yacute" unicode="&#xfd;" horiz-adv-x="473" 
d="M476 557q-6 -66 -24.5 -129t-43.5 -125.5t-54 -123.5t-56.5 -122.5t-51 -123.5t-37.5 -125l-79 -15q2 14 8 38.5t14 52t17.5 54.5t18.5 46q-9 2 -19.5 6t-18.5 8q-11 4 -20 9q-19 56 -26 123t-9.5 136.5l-5 139t-12.5 130.5l77 20q13 -77 16 -151t5 -142.5t7 -129.5
t22 -112q13 28 31 68t38 85.5t40 94.5t36.5 96.5t28 90.5t14.5 77zM428 810q-11 -31 -29 -61.5t-40.5 -58t-48 -50t-50.5 -35.5l-43 24q41 35 80.5 86.5t61.5 105.5z" />
    <glyph glyph-name="ydieresis" unicode="&#xff;" horiz-adv-x="473" 
d="M476 557q-6 -66 -24.5 -129t-43.5 -125.5t-54 -123.5t-56.5 -122.5t-51 -123.5t-37.5 -125l-79 -15q2 14 8 38.5t14 52t17.5 54.5t18.5 46q-9 2 -19.5 6t-18.5 8q-11 4 -20 9q-19 56 -26 123t-9.5 136.5l-5 139t-12.5 130.5l77 20q13 -77 16 -151t5 -142.5t7 -129.5
t22 -112q13 28 31 68t38 85.5t40 94.5t36.5 96.5t28 90.5t14.5 77zM260 714q-2 -26 -18.5 -43.5t-35.5 -19.5q-17 -2 -29.5 10t-10.5 36t18 42t37 20q17 2 29 -10t10 -35zM458 714q-2 -26 -18.5 -43.5t-35.5 -19.5q-17 -2 -29 10t-10 36t18 42t37 20q17 2 28.5 -10t9.5 -35z
" />
    <glyph glyph-name="zcaron" unicode="&#x17e;" horiz-adv-x="402" 
d="M381 479q-33 -53 -69 -103.5t-73 -100.5t-73.5 -100.5t-70.5 -102.5q29 -5 61.5 -6t64.5 0.5t61 5t52 8.5l3 -74q-32 -6 -74.5 -8.5t-87.5 -3t-88 1.5t-75 5l-10 51q64 111 142 213t151 207q-59 4 -115 3t-115 -11l2 69q72 13 144.5 11.5t147.5 -7.5q6 -14 11.5 -28.5
t10.5 -29.5zM376 741q-30 -38 -67 -76.5t-67 -67.5l-58 -5q-9 17 -21.5 37.5t-27.5 41.5t-31 40t-30 34l54 33q21 -26 43.5 -52.5t51.5 -58.5q29 22 57 50.5t52 54.5z" />
    <glyph glyph-name="Dcroat" unicode="&#x110;" horiz-adv-x="714" 
d="M680 438q0 -92 -28.5 -175t-81 -145t-126 -98.5t-164.5 -36.5q-9 0 -22.5 0.5t-27 2t-26.5 2.5t-22 3l-31 33l-86 -40q14 91 27.5 181.5t25.5 185.5h-87l6 53h87q8 69 15.5 138.5t13.5 141.5l-65 -15q-1 13 -1.5 33.5t-0.5 33.5q65 19 135.5 28.5t136.5 9.5
q154 0 238 -88t84 -248zM588 430q0 64 -17 115.5t-50 88t-82 56t-113 19.5q-16 0 -34 -1t-36.5 -3.5t-36 -5.5t-32.5 -7l42 -42q-5 -63 -10.5 -123.5t-13.5 -122.5h180l-6 -53h-180q-9 -69 -20 -139t-24 -144q31 -11 60.5 -15t56.5 -4q79 0 138.5 32.5t99 86t59 122
t19.5 140.5z" />
    <glyph glyph-name="Eng" unicode="&#x14a;" horiz-adv-x="690" 
 />
    <glyph glyph-name="Hbar" unicode="&#x126;" horiz-adv-x="701" 
 />
    <glyph glyph-name="Tbar" unicode="&#x166;" horiz-adv-x="548" 
 />
    <glyph glyph-name="uni021C" unicode="&#x21c;" horiz-adv-x="537" 
 />
    <glyph glyph-name="dcroat" unicode="&#x111;" horiz-adv-x="496" 
d="M471 735q-2 -47 -8 -104.5t-14 -119.5q-11 -79 -21 -156t-15 -138q-5 -62 0 -117t23 -90l-72 -26q-8 15 -14.5 39.5t-11.5 50.5q-34 -30 -70 -53t-63 -34q-6 -2 -19.5 -2.5t-17.5 -0.5q-34 0 -59.5 14t-42.5 39.5t-25.5 60.5t-8.5 76q0 85 24 155t63.5 120.5t89 78.5
t100.5 28q40 0 71 -14q6 56 9.5 99t5.5 82zM371 481q-11 9 -31 16.5t-43 7.5q-33 0 -65.5 -21.5t-58.5 -62t-42.5 -98.5t-16.5 -132q0 -66 24 -106.5t73 -40.5q12 0 29 5t34.5 14.5t33.5 23.5t26 32q-2 32 0 68t6.5 79.5t12 96t18.5 118.5zM526 614q-44 -2 -69.5 -1.5
t-47.5 1.5t-47.5 0.5t-70.5 -5.5l9 59q46 6 71.5 6.5t47 -1t46.5 -3t70 -0.5z" />
    <glyph glyph-name="eng" unicode="&#x14b;" horiz-adv-x="586" 
 />
    <glyph glyph-name="hbar" unicode="&#x127;" horiz-adv-x="586" 
 />
    <glyph glyph-name="kgreenlandic" unicode="&#x138;" horiz-adv-x="542" 
 />
    <glyph glyph-name="napostrophe" unicode="&#x149;" horiz-adv-x="586" 
 />
    <glyph glyph-name="tbar" unicode="&#x167;" horiz-adv-x="367" 
 />
    <glyph glyph-name="uni021D" unicode="&#x21d;" horiz-adv-x="474" 
 />
    <glyph glyph-name="IJ" unicode="&#x132;" horiz-adv-x="696" 
 />
    <glyph glyph-name="f_f" unicode="&#xfb00;" horiz-adv-x="827" 
d="M425 678q-14 4 -29 6.5t-30 2.5q-35 0 -60 -13.5t-43 -36t-29 -50.5t-17 -58h193l-9 -54h-193q-9 -83 -15 -165t-17 -165q-17 -129 -54.5 -218t-100.5 -143l-46 24q49 60 78.5 139.5t43.5 185.5q12 87 18 171.5t16 170.5h-83l11 44l28 4q12 2 26.5 3t26.5 2q9 45 26 85
t44 70t64.5 48t86.5 18q17 0 34 -2.5t34 -7.5zM836 678q-14 4 -29 6.5t-30 2.5q-35 0 -60 -13.5t-43 -36t-29 -50.5t-17 -58h193l-9 -54h-193q-9 -83 -15 -165t-17 -165q-17 -129 -54.5 -218t-100.5 -143l-46 24q49 60 78.5 139.5t43.5 185.5q12 87 18 171.5t16 170.5h-83
l11 44l28 4q12 2 26.5 3t26.5 2q9 45 26 85t44 70t64.5 48t86.5 18q17 0 34 -2.5t34 -7.5z" />
    <glyph glyph-name="f_f_i" unicode="&#xfb03;" horiz-adv-x="1033" 
d="M425 678q-14 4 -29 6.5t-30 2.5q-35 0 -60 -13.5t-43 -36t-29 -50.5t-17 -58h193l-9 -54h-193q-9 -83 -15 -165t-17 -165q-17 -129 -54.5 -218t-100.5 -143l-46 24q49 60 78.5 139.5t43.5 185.5q12 87 18 171.5t16 170.5h-83l11 44l28 4q12 2 26.5 3t26.5 2q9 45 26 85
t44 70t64.5 48t86.5 18q17 0 34 -2.5t34 -7.5zM836 678q-14 4 -29 6.5t-30 2.5q-35 0 -60 -13.5t-43 -36t-29 -50.5t-17 -58h193l-9 -54h-193q-9 -83 -15 -165t-17 -165q-17 -129 -54.5 -218t-100.5 -143l-46 24q49 60 78.5 139.5t43.5 185.5q12 87 18 171.5t16 170.5h-83
l11 44l28 4q12 2 26.5 3t26.5 2q9 45 26 85t44 70t64.5 48t86.5 18q17 0 34 -2.5t34 -7.5zM975 557q0 -39 -4.5 -86t-10.5 -95.5t-13 -94t-11 -81.5q-8 -63 -9.5 -112.5t2.5 -84.5l-78 -18q-2 31 -2 74t5 89q4 42 12 94.5t15 106.5t11.5 105t3.5 89zM1013 736
q0 -26 -18.5 -45.5t-44.5 -19.5q-21 0 -34 14.5t-13 36.5q0 27 20 44t46 17q20 0 32 -13.5t12 -33.5z" />
    <glyph glyph-name="f_f_j" unicode="&#xe003;" horiz-adv-x="1021" 
d="M425 678q-14 4 -29 6.5t-30 2.5q-35 0 -60 -13.5t-43 -36t-29 -50.5t-17 -58h193l-9 -54h-193q-9 -83 -15 -165t-17 -165q-17 -129 -54.5 -218t-100.5 -143l-46 24q49 60 78.5 139.5t43.5 185.5q12 87 18 171.5t16 170.5h-83l11 44l28 4q12 2 26.5 3t26.5 2q9 45 26 85
t44 70t64.5 48t86.5 18q17 0 34 -2.5t34 -7.5zM836 678q-14 4 -29 6.5t-30 2.5q-35 0 -60 -13.5t-43 -36t-29 -50.5t-17 -58h193l-9 -54h-193q-9 -83 -15 -165t-17 -165q-17 -129 -54.5 -218t-100.5 -143l-46 24q49 60 78.5 139.5t43.5 185.5q12 87 18 171.5t16 170.5h-83
l11 44l28 4q12 2 26.5 3t26.5 2q9 45 26 85t44 70t64.5 48t86.5 18q17 0 34 -2.5t34 -7.5zM970 556q-5 -52 -8.5 -119t-10 -140.5t-17 -149t-28 -144t-43.5 -125t-63 -92.5l-56 22q30 41 52.5 97t38 120t26 133t16.5 136.5t9.5 130t6.5 114.5zM1001 736q0 -26 -18.5 -45.5
t-44.5 -19.5q-21 0 -34 14.5t-13 36.5q0 27 20 44t46 17q20 0 32 -13.5t12 -33.5z" />
    <glyph glyph-name="f_f_l" unicode="&#xfb04;" horiz-adv-x="1007" 
d="M425 678q-14 4 -29 6.5t-30 2.5q-35 0 -60 -13.5t-43 -36t-29 -50.5t-17 -58h193l-9 -54h-193q-9 -83 -15 -165t-17 -165q-17 -129 -54.5 -218t-100.5 -143l-46 24q49 60 78.5 139.5t43.5 185.5q12 87 18 171.5t16 170.5h-83l11 44l28 4q12 2 26.5 3t26.5 2q9 45 26 85
t44 70t64.5 48t86.5 18q17 0 34 -2.5t34 -7.5zM836 678q-14 4 -29 6.5t-30 2.5q-35 0 -60 -13.5t-43 -36t-29 -50.5t-17 -58h193l-9 -54h-193q-9 -83 -15 -165t-17 -165q-17 -129 -54.5 -218t-100.5 -143l-46 24q49 60 78.5 139.5t43.5 185.5q12 87 18 171.5t16 170.5h-83
l11 44l28 4q12 2 26.5 3t26.5 2q9 45 26 85t44 70t64.5 48t86.5 18q17 0 34 -2.5t34 -7.5zM982 737q2 -78 -11 -163t-25 -168q-6 -45 -12 -100.5t-10 -111t-4.5 -107t4.5 -90.5l-70 -8q-4 30 -4.5 75t2 98t8 111t13.5 115q6 40 12.5 85t12 90t9 87.5t3.5 77.5z" />
    <glyph glyph-name="f_i" unicode="&#xfb01;" horiz-adv-x="573" 
d="M408 678q-14 4 -29 6.5t-30 2.5q-35 0 -60 -13.5t-43 -36t-29 -50.5t-17 -58h193l-9 -54h-193q-9 -83 -15 -165t-17 -165q-17 -129 -54.5 -218t-100.5 -143l-46 24q49 60 78.5 139.5t43.5 185.5q12 87 18 171.5t16 170.5h-83l11 44l28 4q12 2 26.5 3t26.5 2q9 45 26 85
t44 70t64.5 48t86.5 18q17 0 34 -2.5t34 -7.5zM547 557q0 -39 -4.5 -86t-10.5 -95.5t-13 -94t-11 -81.5q-8 -63 -9.5 -112.5t2.5 -84.5l-78 -18q-2 31 -2 74t5 89q4 42 12 94.5t15 106.5t11.5 105t3.5 89zM585 736q0 -26 -18.5 -45.5t-44.5 -19.5q-21 0 -34 14.5t-13 36.5
q0 27 20 44t46 17q20 0 32 -13.5t12 -33.5z" />
    <glyph glyph-name="f_j" unicode="&#xe004;" horiz-adv-x="599" 
d="M409 678q-14 4 -29 6.5t-30 2.5q-35 0 -60 -13.5t-43 -36t-29 -50.5t-17 -58h193l-9 -54h-193q-9 -83 -15 -165t-17 -165q-17 -129 -54.5 -218t-100.5 -143l-46 24q49 60 78.5 139.5t43.5 185.5q12 87 18 171.5t16 170.5h-83l11 44l28 4q12 2 26.5 3t26.5 2q9 45 26 85
t44 70t64.5 48t86.5 18q17 0 34 -2.5t34 -7.5zM543 556q-5 -52 -8.5 -119t-10 -140.5t-17 -149t-28 -144t-43.5 -125t-63 -92.5l-56 22q30 41 52.5 97t38 120t26 133t16.5 136.5t9.5 130t6.5 114.5zM574 736q0 -26 -18.5 -45.5t-44.5 -19.5q-21 0 -34 14.5t-13 36.5
q0 27 20 44t46 17q20 0 32 -13.5t12 -33.5z" />
    <glyph glyph-name="f_l" unicode="&#xfb02;" horiz-adv-x="590" 
d="M406 678q-14 4 -29 6.5t-30 2.5q-35 0 -60 -13.5t-43 -36t-29 -50.5t-17 -58h193l-9 -54h-193q-9 -83 -15 -165t-17 -165q-17 -129 -54.5 -218t-100.5 -143l-46 24q49 60 78.5 139.5t43.5 185.5q12 87 18 171.5t16 170.5h-83l11 44l28 4q12 2 26.5 3t26.5 2q9 45 26 85
t44 70t64.5 48t86.5 18q17 0 34 -2.5t34 -7.5zM552 737q2 -78 -11 -163t-25 -168q-6 -45 -12 -100.5t-10 -111t-4.5 -107t4.5 -90.5l-70 -8q-4 30 -4.5 75t2 98t8 111t13.5 115q6 40 12.5 85t12 90t9 87.5t3.5 77.5z" />
    <glyph glyph-name="ij" unicode="&#x133;" horiz-adv-x="565" 
 />
    <glyph glyph-name="zero.slash" unicode="&#xf638;" horiz-adv-x="555" 
 />
    <glyph glyph-name="Euro" unicode="&#x20ac;" horiz-adv-x="564" 
d="M539 466q-27 14 -65.5 22t-80.5 8q-67 0 -114.5 -32.5t-73.5 -86.5h296l-8 -52h-307q-10 -39 -10 -85h316l-8 -52h-303q6 -29 19.5 -54t35.5 -43.5t53.5 -29t72.5 -10.5q36 0 73 12.5t63 29.5l5 -62q-14 -10 -33 -18.5t-41 -15t-46 -10t-46 -3.5q-54 0 -96.5 15t-73.5 42
t-50 64.5t-24 82.5h-85l8 52h76q1 23 4.5 44t8.5 41h-75l8 52h87q39 84 115 132t172 48q38 0 71.5 -4.5t68.5 -17.5z" />
    <glyph glyph-name="afii61352" unicode="&#x2116;" horiz-adv-x="969" 
 />
    <glyph glyph-name="estimated" unicode="&#x212e;" horiz-adv-x="817" 
 />
    <glyph glyph-name="zero.oldstyle" unicode="&#xf730;" horiz-adv-x="561" 
 />
    <glyph glyph-name="one.oldstyle" unicode="&#xf731;" horiz-adv-x="412" 
 />
    <glyph glyph-name="two.oldstyle" unicode="&#xf732;" horiz-adv-x="476" 
 />
    <glyph glyph-name="three.oldstyle" unicode="&#xf733;" horiz-adv-x="471" 
 />
    <glyph glyph-name="four.oldstyle" unicode="&#xf734;" horiz-adv-x="546" 
 />
    <glyph glyph-name="five.oldstyle" unicode="&#xf735;" horiz-adv-x="466" 
 />
    <glyph glyph-name="six.oldstyle" unicode="&#xf736;" horiz-adv-x="550" 
 />
    <glyph glyph-name="seven.oldstyle" unicode="&#xf737;" horiz-adv-x="476" 
 />
    <glyph glyph-name="eight.oldstyle" unicode="&#xf738;" horiz-adv-x="552" 
 />
    <glyph glyph-name="nine.oldstyle" unicode="&#xf739;" horiz-adv-x="550" 
 />
    <glyph glyph-name="percent.oldstyle" unicode="&#xf642;" horiz-adv-x="891" 
 />
    <glyph glyph-name="zero.fitted" unicode="&#xf639;" horiz-adv-x="555" 
 />
    <glyph glyph-name="one.fitted" unicode="&#xf6dc;" horiz-adv-x="381" 
 />
    <glyph glyph-name="two.fitted" unicode="&#xf63a;" horiz-adv-x="493" 
 />
    <glyph glyph-name="three.fitted" unicode="&#xf63b;" horiz-adv-x="498" 
 />
    <glyph glyph-name="four.fitted" unicode="&#xf63c;" horiz-adv-x="546" 
 />
    <glyph glyph-name="five.fitted" unicode="&#xf63d;" horiz-adv-x="506" 
 />
    <glyph glyph-name="six.fitted" unicode="&#xf63e;" horiz-adv-x="556" 
 />
    <glyph glyph-name="seven.fitted" unicode="&#xf63f;" horiz-adv-x="463" 
 />
    <glyph glyph-name="eight.fitted" unicode="&#xf640;" horiz-adv-x="555" 
 />
    <glyph glyph-name="nine.fitted" unicode="&#xf641;" horiz-adv-x="556" 
 />
    <glyph glyph-name="zero.slashfitted" unicode="&#xe008;" horiz-adv-x="555" 
 />
    <glyph glyph-name="zero.taboldstyle" unicode="&#xf643;" horiz-adv-x="561" 
 />
    <glyph glyph-name="one.taboldstyle" unicode="&#xf644;" horiz-adv-x="561" 
 />
    <glyph glyph-name="two.taboldstyle" unicode="&#xf645;" horiz-adv-x="561" 
 />
    <glyph glyph-name="three.taboldstyle" unicode="&#xf646;" horiz-adv-x="561" 
 />
    <glyph glyph-name="four.taboldstyle" unicode="&#xf647;" horiz-adv-x="561" 
 />
    <glyph glyph-name="five.taboldstyle" unicode="&#xf648;" horiz-adv-x="561" 
 />
    <glyph glyph-name="six.taboldstyle" unicode="&#xf649;" horiz-adv-x="561" 
 />
    <glyph glyph-name="seven.taboldstyle" unicode="&#xf64a;" horiz-adv-x="561" 
 />
    <glyph glyph-name="eight.taboldstyle" unicode="&#xf64b;" horiz-adv-x="561" 
 />
    <glyph glyph-name="nine.taboldstyle" unicode="&#xf64c;" horiz-adv-x="561" 
 />
    <glyph glyph-name="dollar.taboldstyle" unicode="&#xf653;" horiz-adv-x="561" 
 />
    <glyph glyph-name="cent.taboldstyle" unicode="&#xf654;" horiz-adv-x="561" 
 />
    <glyph glyph-name="Euro.taboldstyle" unicode="&#xf64e;" horiz-adv-x="561" 
 />
    <glyph glyph-name="florin.taboldstyle" unicode="&#xf64f;" horiz-adv-x="561" 
 />
    <glyph glyph-name="sterling.taboldstyle" unicode="&#xf651;" horiz-adv-x="561" 
 />
    <glyph glyph-name="yen.taboldstyle" unicode="&#xf652;" horiz-adv-x="561" 
 />
    <glyph glyph-name="numbersign.taboldstyle" unicode="&#xf650;" horiz-adv-x="561" 
 />
    <glyph glyph-name="zero.superior" unicode="&#x2070;" horiz-adv-x="378" 
 />
    <glyph glyph-name="one.superior" horiz-adv-x="370" 
d="M280 305l-210 -7l2 48q36 1 81 3q3 81 14.5 172.5t21.5 172.5l-88 -35l-8 45l112 55l51 8q-5 -95 -20 -201t-21 -215q18 1 36 1t35 1z" />
    <glyph glyph-name="two.superior" horiz-adv-x="370" 
d="M317 303q-11 0 -22 -0.5t-19 -0.5q-57 0 -116 2.5t-120 13.5l-9 51q34 19 73 48t72.5 63.5t56 71t22.5 70.5q0 36 -28.5 58.5t-78.5 22.5q-17 0 -39 -2.5t-41 -7.5l13 56q21 5 41 6.5t38 1.5q34 0 64 -8t52.5 -23.5t35.5 -39.5t13 -57q0 -38 -18 -74.5t-47 -70t-65 -64
t-72 -54.5q29 -2 65 -3.5t65 -1.5h35t44 2z" />
    <glyph glyph-name="three.superior" horiz-adv-x="370" 
d="M325 442q0 -37 -20.5 -65.5t-53.5 -47.5t-74.5 -29t-83.5 -10q-23 0 -57 6l-4 58q17 -6 38 -7t38 -1q28 0 54 6t46.5 18t32.5 28.5t12 37.5q0 24 -13.5 40t-35.5 25.5t-50 13t-57 1.5l-1 56q11 -1 15.5 -1h8.5q27 0 51.5 5t42.5 15t29 23t11 30q0 19 -11.5 31.5t-29 20.5
t-38.5 11.5t-41 3.5q-11 0 -23.5 -1t-32.5 -4l15 54q17 2 32 3t29 1q27 0 56.5 -5t54.5 -17.5t41.5 -33.5t16.5 -53q0 -38 -27.5 -66.5t-83.5 -38.5q55 -7 84 -38t29 -70z" />
    <glyph glyph-name="four.superior" unicode="&#x2074;" horiz-adv-x="393" 
 />
    <glyph glyph-name="five.superior" unicode="&#x2075;" horiz-adv-x="348" 
 />
    <glyph glyph-name="six.superior" unicode="&#x2076;" horiz-adv-x="363" 
 />
    <glyph glyph-name="seven.superior" unicode="&#x2077;" horiz-adv-x="333" 
 />
    <glyph glyph-name="eight.superior" unicode="&#x2078;" horiz-adv-x="361" 
 />
    <glyph glyph-name="nine.superior" unicode="&#x2079;" horiz-adv-x="358" 
 />
    <glyph glyph-name="period.superior" unicode="&#xf6e8;" horiz-adv-x="172" 
 />
    <glyph glyph-name="comma.superior" unicode="&#xf6e2;" horiz-adv-x="172" 
 />
    <glyph glyph-name="dollar.superior" unicode="&#xf6e4;" horiz-adv-x="353" 
 />
    <glyph glyph-name="cent.superior" unicode="&#xf6e0;" horiz-adv-x="330" 
 />
    <glyph glyph-name="hyphen.superior" unicode="&#xf6e6;" horiz-adv-x="206" 
 />
    <glyph glyph-name="parenleft.superior" unicode="&#x207d;" horiz-adv-x="204" 
 />
    <glyph glyph-name="parenright.superior" unicode="&#x207e;" horiz-adv-x="204" 
 />
    <glyph glyph-name="zero.inferior" unicode="&#x2080;" horiz-adv-x="378" 
 />
    <glyph glyph-name="one.inferior" unicode="&#x2081;" 
 />
    <glyph glyph-name="two.inferior" unicode="&#x2082;" horiz-adv-x="352" 
 />
    <glyph glyph-name="three.inferior" unicode="&#x2083;" horiz-adv-x="347" 
 />
    <glyph glyph-name="four.inferior" unicode="&#x2084;" horiz-adv-x="393" 
 />
    <glyph glyph-name="five.inferior" unicode="&#x2085;" horiz-adv-x="348" 
 />
    <glyph glyph-name="six.inferior" unicode="&#x2086;" horiz-adv-x="363" 
 />
    <glyph glyph-name="seven.inferior" unicode="&#x2087;" horiz-adv-x="333" 
 />
    <glyph glyph-name="eight.inferior" unicode="&#x2088;" horiz-adv-x="361" 
 />
    <glyph glyph-name="nine.inferior" unicode="&#x2089;" horiz-adv-x="358" 
 />
    <glyph glyph-name="period.inferior" unicode="&#xf6e7;" horiz-adv-x="172" 
 />
    <glyph glyph-name="comma.inferior" unicode="&#xf6e1;" horiz-adv-x="172" 
 />
    <glyph glyph-name="dollar.inferior" unicode="&#xf6e3;" horiz-adv-x="353" 
 />
    <glyph glyph-name="cent.inferior" unicode="&#xf6df;" horiz-adv-x="330" 
 />
    <glyph glyph-name="hyphen.inferior" unicode="&#xf6e5;" horiz-adv-x="206" 
 />
    <glyph glyph-name="parenleft.inferior" unicode="&#x208d;" horiz-adv-x="204" 
 />
    <glyph glyph-name="parenright.inferior" unicode="&#x208e;" horiz-adv-x="204" 
 />
    <glyph glyph-name="zero.numerator" unicode="&#xf661;" horiz-adv-x="378" 
 />
    <glyph glyph-name="one.numerator" unicode="&#xf662;" 
 />
    <glyph glyph-name="two.numerator" unicode="&#xf663;" horiz-adv-x="352" 
 />
    <glyph glyph-name="three.numerator" unicode="&#xf664;" horiz-adv-x="347" 
 />
    <glyph glyph-name="four.numerator" unicode="&#xf665;" horiz-adv-x="393" 
 />
    <glyph glyph-name="five.numerator" unicode="&#xf666;" horiz-adv-x="348" 
 />
    <glyph glyph-name="six.numerator" unicode="&#xf667;" horiz-adv-x="363" 
 />
    <glyph glyph-name="seven.numerator" unicode="&#xf668;" horiz-adv-x="333" 
 />
    <glyph glyph-name="eight.numerator" unicode="&#xf669;" horiz-adv-x="361" 
 />
    <glyph glyph-name="nine.numerator" unicode="&#xf66a;" horiz-adv-x="358" 
 />
    <glyph glyph-name="period.numerator" unicode="&#xf66c;" horiz-adv-x="172" 
 />
    <glyph glyph-name="comma.numerator" unicode="&#xf66b;" horiz-adv-x="172" 
 />
    <glyph glyph-name="dollar.numerator" unicode="&#xf62f;" horiz-adv-x="353" 
 />
    <glyph glyph-name="cent.numerator" unicode="&#xf62e;" horiz-adv-x="330" 
 />
    <glyph glyph-name="hyphen.numerator" unicode="&#xf630;" horiz-adv-x="206" 
 />
    <glyph glyph-name="parenleft.numerator" unicode="&#xf631;" horiz-adv-x="204" 
 />
    <glyph glyph-name="parenright.numerator" unicode="&#xf632;" horiz-adv-x="204" 
 />
    <glyph glyph-name="zero.denominator" unicode="&#xf655;" horiz-adv-x="378" 
 />
    <glyph glyph-name="one.denominator" unicode="&#xf656;" 
 />
    <glyph glyph-name="two.denominator" unicode="&#xf657;" horiz-adv-x="352" 
 />
    <glyph glyph-name="three.denominator" unicode="&#xf658;" horiz-adv-x="347" 
 />
    <glyph glyph-name="four.denominator" unicode="&#xf659;" horiz-adv-x="393" 
 />
    <glyph glyph-name="five.denominator" unicode="&#xf65a;" horiz-adv-x="348" 
 />
    <glyph glyph-name="six.denominator" unicode="&#xf65b;" horiz-adv-x="363" 
 />
    <glyph glyph-name="seven.denominator" unicode="&#xf65c;" horiz-adv-x="333" 
 />
    <glyph glyph-name="eight.denominator" unicode="&#xf65d;" horiz-adv-x="361" 
 />
    <glyph glyph-name="nine.denominator" unicode="&#xf65e;" horiz-adv-x="358" 
 />
    <glyph glyph-name="period.denominator" unicode="&#xf660;" horiz-adv-x="172" 
 />
    <glyph glyph-name="comma.denominator" unicode="&#xf65f;" horiz-adv-x="172" 
 />
    <glyph glyph-name="dollar.denominator" unicode="&#xf62a;" horiz-adv-x="353" 
 />
    <glyph glyph-name="cent.denominator" unicode="&#xf629;" horiz-adv-x="330" 
 />
    <glyph glyph-name="hyphen.denominator" unicode="&#xf62b;" horiz-adv-x="206" 
 />
    <glyph glyph-name="parenleft.denominator" unicode="&#xf62c;" horiz-adv-x="204" 
 />
    <glyph glyph-name="parenright.denominator" unicode="&#xf62d;" horiz-adv-x="204" 
 />
    <glyph glyph-name="at.cap" unicode="&#xf633;" horiz-adv-x="770" 
 />
    <glyph glyph-name="emdash.cap" unicode="&#xf6bc;" horiz-adv-x="1000" 
 />
    <glyph glyph-name="endash.cap" unicode="&#xf6bb;" horiz-adv-x="500" 
 />
    <glyph glyph-name="exclamdown.cap" unicode="&#xf6b4;" horiz-adv-x="268" 
 />
    <glyph glyph-name="guillemotleft.cap" unicode="&#xf6b6;" horiz-adv-x="465" 
 />
    <glyph glyph-name="guillemotright.cap" unicode="&#xf6b7;" horiz-adv-x="465" 
 />
    <glyph glyph-name="guilsinglleft.cap" unicode="&#xf6b8;" horiz-adv-x="270" 
 />
    <glyph glyph-name="guilsinglright.cap" unicode="&#xf6b9;" horiz-adv-x="270" 
 />
    <glyph glyph-name="hyphen.cap" unicode="&#xf6ba;" horiz-adv-x="322" 
 />
    <glyph glyph-name="questiondown.cap" unicode="&#xf6b5;" horiz-adv-x="445" 
 />
    <glyph glyph-name="braceleft.cap" unicode="&#xf6b2;" horiz-adv-x="314" 
 />
    <glyph glyph-name="braceright.cap" unicode="&#xf6b3;" horiz-adv-x="314" 
 />
    <glyph glyph-name="bracketleft.cap" unicode="&#xf6b0;" horiz-adv-x="314" 
 />
    <glyph glyph-name="bracketright.cap" unicode="&#xf6b1;" horiz-adv-x="314" 
 />
    <glyph glyph-name="parenleft.cap" unicode="&#xf6ae;" horiz-adv-x="314" 
 />
    <glyph glyph-name="parenright.cap" unicode="&#xf6af;" horiz-adv-x="314" 
 />
    <glyph glyph-name="periodcentered.cap" unicode="&#xf6bd;" horiz-adv-x="260" 
 />
    <glyph glyph-name="lessequal" unicode="&#x2264;" horiz-adv-x="596" 
 />
    <glyph glyph-name="greaterequal" unicode="&#x2265;" horiz-adv-x="596" 
 />
    <glyph glyph-name="approxequal" unicode="&#x2248;" horiz-adv-x="596" 
 />
    <glyph glyph-name="notequal" unicode="&#x2260;" horiz-adv-x="596" 
 />
    <glyph glyph-name="infinity" unicode="&#x221e;" horiz-adv-x="752" 
 />
    <glyph glyph-name="lozenge" unicode="&#x25ca;" horiz-adv-x="574" 
 />
    <glyph glyph-name="integral" unicode="&#x222b;" horiz-adv-x="358" 
 />
    <glyph glyph-name="partialdiff" unicode="&#x2202;" horiz-adv-x="375" 
 />
    <glyph glyph-name="product" unicode="&#x220f;" horiz-adv-x="663" 
 />
    <glyph glyph-name="radical" unicode="&#x221a;" horiz-adv-x="589" 
 />
    <glyph glyph-name="summation" unicode="&#x2211;" horiz-adv-x="543" 
 />
    <glyph glyph-name="Delta" unicode="&#x2206;" horiz-adv-x="631" 
 />
    <glyph glyph-name="Omega" unicode="&#x2126;" horiz-adv-x="744" 
 />
    <glyph glyph-name="pi" unicode="&#x3c0;" horiz-adv-x="600" 
 />
    <glyph glyph-name="afii61289" unicode="&#x2113;" horiz-adv-x="555" 
 />
    <glyph glyph-name="Amacron" unicode="&#x100;" horiz-adv-x="656" 
 />
    <glyph glyph-name="Aogonek" unicode="&#x104;" horiz-adv-x="656" 
 />
    <glyph glyph-name="uni01FA" unicode="&#x1fa;" horiz-adv-x="656" 
 />
    <glyph glyph-name="Cacute" unicode="&#x106;" horiz-adv-x="595" 
 />
    <glyph glyph-name="Ccaron" unicode="&#x10c;" horiz-adv-x="595" 
 />
    <glyph glyph-name="Ccircumflex" unicode="&#x108;" horiz-adv-x="595" 
 />
    <glyph glyph-name="Cdotaccent" unicode="&#x10a;" horiz-adv-x="595" 
 />
    <glyph glyph-name="Dcaron" unicode="&#x10e;" horiz-adv-x="696" 
 />
    <glyph glyph-name="Ebreve" unicode="&#x114;" horiz-adv-x="534" 
 />
    <glyph glyph-name="Ecaron" unicode="&#x11a;" horiz-adv-x="534" 
 />
    <glyph glyph-name="Edotaccent" unicode="&#x116;" horiz-adv-x="534" 
 />
    <glyph glyph-name="Emacron" unicode="&#x112;" horiz-adv-x="534" 
 />
    <glyph glyph-name="Eogonek" unicode="&#x118;" horiz-adv-x="534" 
 />
    <glyph glyph-name="Gbreve" unicode="&#x11e;" horiz-adv-x="682" 
 />
    <glyph glyph-name="Gcircumflex" unicode="&#x11c;" horiz-adv-x="682" 
 />
    <glyph glyph-name="Gcommaaccent" unicode="&#x122;" horiz-adv-x="682" 
 />
    <glyph glyph-name="Gdotaccent" unicode="&#x120;" horiz-adv-x="682" 
 />
    <glyph glyph-name="G_tildecomb" unicode="&#xe000;" horiz-adv-x="682" 
 />
    <glyph glyph-name="Hcircumflex" unicode="&#x124;" horiz-adv-x="689" 
 />
    <glyph glyph-name="Ibreve" unicode="&#x12c;" horiz-adv-x="285" 
 />
    <glyph glyph-name="Idotaccent" unicode="&#x130;" horiz-adv-x="285" 
 />
    <glyph glyph-name="Imacron" unicode="&#x12a;" horiz-adv-x="285" 
 />
    <glyph glyph-name="Iogonek" unicode="&#x12e;" horiz-adv-x="285" 
 />
    <glyph glyph-name="Itilde" unicode="&#x128;" horiz-adv-x="284" 
d="M228 767q-5 -96 -17 -191t-24.5 -190t-22 -190t-7.5 -191l-80 -18q-4 96 4 191t21 190t27 189.5t23 189.5zM337 856q-11 -9 -28 -17t-36 -10q-22 -3 -41 2.5t-36.5 12t-35 12t-36.5 2.5q-21 -2 -37 -13.5t-28 -27.5l-12 62q15 19 32.5 29.5t40.5 14.5q19 3 37 -2
t36.5 -12t38 -12t40.5 -2q13 2 24.5 8t21.5 13z" />
    <glyph glyph-name="Jcircumflex" unicode="&#x134;" horiz-adv-x="411" 
 />
    <glyph glyph-name="Kcommaaccent" unicode="&#x136;" horiz-adv-x="614" 
 />
    <glyph glyph-name="Lacute" unicode="&#x139;" horiz-adv-x="511" 
 />
    <glyph glyph-name="Lcaron" unicode="&#x13d;" horiz-adv-x="511" 
 />
    <glyph glyph-name="Lcommaaccent" unicode="&#x13b;" horiz-adv-x="511" 
 />
    <glyph glyph-name="Ldot" unicode="&#x13f;" horiz-adv-x="511" 
 />
    <glyph glyph-name="M_uni0302" unicode="&#xe001;" horiz-adv-x="846" 
 />
    <glyph glyph-name="Nacute" unicode="&#x143;" horiz-adv-x="690" 
 />
    <glyph glyph-name="Ncaron" unicode="&#x147;" horiz-adv-x="690" 
 />
    <glyph glyph-name="N_uni0302" unicode="&#xe002;" horiz-adv-x="690" 
 />
    <glyph glyph-name="Ncommaaccent" unicode="&#x145;" horiz-adv-x="690" 
 />
    <glyph glyph-name="Obreve" unicode="&#x14e;" horiz-adv-x="717" 
 />
    <glyph glyph-name="Ohungarumlaut" unicode="&#x150;" horiz-adv-x="717" 
 />
    <glyph glyph-name="Omacron" unicode="&#x14c;" horiz-adv-x="717" 
 />
    <glyph glyph-name="Oslashacute" unicode="&#x1fe;" horiz-adv-x="717" 
 />
    <glyph glyph-name="Racute" unicode="&#x154;" horiz-adv-x="593" 
 />
    <glyph glyph-name="Rcaron" unicode="&#x158;" horiz-adv-x="593" 
 />
    <glyph glyph-name="Rcommaaccent" unicode="&#x156;" horiz-adv-x="593" 
 />
    <glyph glyph-name="Sacute" unicode="&#x15a;" horiz-adv-x="540" 
 />
    <glyph glyph-name="Scedilla" unicode="&#x15e;" horiz-adv-x="540" 
 />
    <glyph glyph-name="Scircumflex" unicode="&#x15c;" horiz-adv-x="540" 
 />
    <glyph glyph-name="Scommaaccent" unicode="&#x218;" horiz-adv-x="540" 
 />
    <glyph glyph-name="Tcaron" unicode="&#x164;" horiz-adv-x="548" 
 />
    <glyph glyph-name="Tcommaaccent" unicode="&#x162;" horiz-adv-x="548" 
 />
    <glyph glyph-name="Ubreve" unicode="&#x16c;" horiz-adv-x="682" 
 />
    <glyph glyph-name="Uhungarumlaut" unicode="&#x170;" horiz-adv-x="682" 
 />
    <glyph glyph-name="Umacron" unicode="&#x16a;" horiz-adv-x="682" 
 />
    <glyph glyph-name="Uogonek" unicode="&#x172;" horiz-adv-x="682" 
 />
    <glyph glyph-name="Uring" unicode="&#x16e;" horiz-adv-x="682" 
 />
    <glyph glyph-name="Utilde" unicode="&#x168;" horiz-adv-x="699" 
d="M553 861q-11 -9 -28 -17t-36 -10q-22 -3 -41 2.5t-36.5 12t-35 12t-36.5 2.5q-21 -2 -37 -13.5t-28 -27.5l-12 62q15 19 32.5 29.5t40.5 14.5q19 3 37 -2t36.5 -12t38 -12t40.5 -2q13 2 24.5 8t21.5 13zM642 770q-9 -57 -16.5 -122.5t-13 -131.5t-9.5 -128t-5 -111
q-1 -31 0 -66.5t4 -72t9 -71t17 -62.5l-80 -19q-3 9 -6 17.5t-6.5 22t-7.5 34.5t-8 53q-67 -74 -131.5 -101.5t-127.5 -27.5q-39 0 -73 14.5t-57.5 45.5t-35.5 79.5t-8 116.5q4 64 13.5 127t19.5 126t17.5 126.5t7.5 127.5l79 20q2 -30 0.5 -63t-4.5 -67.5t-8 -68.5t-9 -66
q-11 -78 -19.5 -150t-8.5 -139q0 -76 29.5 -118.5t96.5 -42.5q31 0 62.5 11.5t60 31t51.5 44.5t38 51q1 70 5.5 148.5t11 154.5t15 144.5t17.5 119.5z" />
    <glyph glyph-name="Wacute" unicode="&#x1e82;" horiz-adv-x="888" 
 />
    <glyph glyph-name="Wcircumflex" unicode="&#x174;" horiz-adv-x="888" 
 />
    <glyph glyph-name="Wdieresis" unicode="&#x1e84;" horiz-adv-x="888" 
 />
    <glyph glyph-name="Wgrave" unicode="&#x1e80;" horiz-adv-x="888" 
 />
    <glyph glyph-name="Ycircumflex" unicode="&#x176;" horiz-adv-x="603" 
 />
    <glyph glyph-name="Ygrave" unicode="&#x1ef2;" horiz-adv-x="529" 
d="M563 766q-24 -108 -69 -205.5t-97.5 -191.5t-106 -188t-95.5 -194l-80 9q27 67 62.5 135.5t73.5 131.5l-50 -5q-18 54 -41.5 115t-48.5 124.5t-48.5 127.5t-39.5 124l78 19q13 -49 33.5 -105.5t44 -117.5t48 -124t44.5 -124q34 55 67 116t60.5 120.5t47.5 114.5t29 98z
M338 779q-23 13 -43.5 36t-38 51.5t-31 61t-20.5 63.5l70 7q14 -52 42.5 -106.5t66.5 -93.5z" />
    <glyph glyph-name="uni0232" unicode="&#x232;" horiz-adv-x="603" 
 />
    <glyph glyph-name="Zacute" unicode="&#x179;" horiz-adv-x="577" 
 />
    <glyph glyph-name="Zdotaccent" unicode="&#x17b;" horiz-adv-x="577" 
 />
    <glyph glyph-name="AEacute" unicode="&#x1fc;" horiz-adv-x="868" 
 />
    <glyph glyph-name="abreve" unicode="&#x103;" horiz-adv-x="493" 
d="M448 521q-7 -34 -14.5 -77t-13.5 -87t-11 -86t-8 -73q-2 -28 -2 -55.5t3.5 -52.5t9.5 -46t16 -34l-64 -27q-12 13 -21.5 35.5t-15.5 58.5q-32 -30 -62.5 -52.5t-62.5 -36.5q-8 -2 -22.5 -3t-19.5 -1q-57 0 -92.5 50t-35.5 138t25.5 159t65.5 121.5t89.5 77.5t97.5 27
q38 0 70 -8t68 -28zM365 483q-14 9 -32.5 14.5t-38.5 5.5q-32 0 -64.5 -21.5t-58 -61.5t-41.5 -97t-16 -128q0 -27 4.5 -53.5t15.5 -48.5t29.5 -35.5t45.5 -13.5q17 0 34 7t32 19t26.5 26.5t19.5 29.5q1 39 5 84t10 91.5t13.5 93t15.5 88.5zM470 742q-12 -61 -53.5 -98
t-104.5 -37q-26 0 -49 10t-41.5 27.5t-32 41t-19.5 49.5l42 37q16 -41 44 -71t69 -30q20 0 36.5 8.5t30 23t23 32.5t16.5 37z" />
    <glyph glyph-name="amacron" unicode="&#x101;" horiz-adv-x="528" 
 />
    <glyph glyph-name="aogonek" unicode="&#x105;" horiz-adv-x="528" 
 />
    <glyph glyph-name="uni01FB" unicode="&#x1fb;" horiz-adv-x="528" 
 />
    <glyph glyph-name="cacute" unicode="&#x107;" horiz-adv-x="451" 
 />
    <glyph glyph-name="ccaron" unicode="&#x10d;" horiz-adv-x="451" 
 />
    <glyph glyph-name="ccircumflex" unicode="&#x109;" horiz-adv-x="451" 
 />
    <glyph glyph-name="cdotaccent" unicode="&#x10b;" horiz-adv-x="451" 
 />
    <glyph glyph-name="dcaron" unicode="&#x10f;" horiz-adv-x="606" 
 />
    <glyph glyph-name="ebreve" unicode="&#x115;" horiz-adv-x="528" 
 />
    <glyph glyph-name="ecaron" unicode="&#x11b;" horiz-adv-x="528" 
 />
    <glyph glyph-name="edotaccent" unicode="&#x117;" horiz-adv-x="528" 
 />
    <glyph glyph-name="emacron" unicode="&#x113;" horiz-adv-x="528" 
 />
    <glyph glyph-name="eogonek" unicode="&#x119;" horiz-adv-x="528" 
 />
    <glyph glyph-name="gbreve" unicode="&#x11f;" horiz-adv-x="585" 
 />
    <glyph glyph-name="gcircumflex" unicode="&#x11d;" horiz-adv-x="585" 
 />
    <glyph glyph-name="gcommaaccent" unicode="&#x123;" horiz-adv-x="585" 
 />
    <glyph glyph-name="gdotaccent" unicode="&#x121;" horiz-adv-x="585" 
 />
    <glyph glyph-name="g_tildecomb" unicode="&#xe005;" horiz-adv-x="585" 
 />
    <glyph glyph-name="hcircumflex" unicode="&#x125;" horiz-adv-x="586" 
 />
    <glyph glyph-name="ibreve" unicode="&#x12d;" horiz-adv-x="274" 
 />
    <glyph glyph-name="imacron" unicode="&#x12b;" horiz-adv-x="274" 
 />
    <glyph glyph-name="iogonek" unicode="&#x12f;" horiz-adv-x="274" 
 />
    <glyph glyph-name="itilde" unicode="&#x129;" horiz-adv-x="259" 
d="M194 557q0 -39 -4.5 -86t-10.5 -95.5t-13 -94t-11 -81.5q-8 -63 -9.5 -112.5t2.5 -84.5l-78 -18q-2 31 -2 74t5 89q4 42 12 94.5t15 106.5t11.5 105t3.5 89zM308 663q-11 -9 -28 -17t-36 -10q-22 -3 -41 2.5t-36.5 12t-35 12t-36.5 2.5q-21 -2 -37 -13.5t-28 -27.5
l-12 62q15 19 32.5 29.5t40.5 14.5q19 3 37 -2t36.5 -12t38 -12t40.5 -2q13 2 24.5 8t21.5 13z" />
    <glyph glyph-name="jcircumflex" unicode="&#x135;" horiz-adv-x="291" 
 />
    <glyph glyph-name="kcommaaccent" unicode="&#x137;" horiz-adv-x="542" 
 />
    <glyph glyph-name="lacute" unicode="&#x13a;" horiz-adv-x="275" 
 />
    <glyph glyph-name="lcaron" unicode="&#x13e;" horiz-adv-x="285" 
 />
    <glyph glyph-name="lcommaaccent" unicode="&#x13c;" horiz-adv-x="275" 
 />
    <glyph glyph-name="ldot" unicode="&#x140;" horiz-adv-x="354" 
 />
    <glyph glyph-name="m_uni0302" unicode="&#xe006;" horiz-adv-x="860" 
 />
    <glyph glyph-name="nacute" unicode="&#x144;" horiz-adv-x="586" 
 />
    <glyph glyph-name="ncaron" unicode="&#x148;" horiz-adv-x="586" 
 />
    <glyph glyph-name="n_uni0302" unicode="&#xe007;" horiz-adv-x="586" 
 />
    <glyph glyph-name="ncommaaccent" unicode="&#x146;" horiz-adv-x="586" 
 />
    <glyph glyph-name="obreve" unicode="&#x14f;" horiz-adv-x="577" 
 />
    <glyph glyph-name="ohungarumlaut" unicode="&#x151;" horiz-adv-x="577" 
 />
    <glyph glyph-name="omacron" unicode="&#x14d;" horiz-adv-x="577" 
 />
    <glyph glyph-name="oslashacute" unicode="&#x1ff;" horiz-adv-x="577" 
 />
    <glyph glyph-name="racute" unicode="&#x155;" horiz-adv-x="380" 
 />
    <glyph glyph-name="rcaron" unicode="&#x159;" horiz-adv-x="380" 
 />
    <glyph glyph-name="rcommaaccent" unicode="&#x157;" horiz-adv-x="380" 
 />
    <glyph glyph-name="sacute" unicode="&#x15b;" horiz-adv-x="434" 
 />
    <glyph glyph-name="scedilla" unicode="&#x15f;" horiz-adv-x="434" 
 />
    <glyph glyph-name="scircumflex" unicode="&#x15d;" horiz-adv-x="434" 
 />
    <glyph glyph-name="scommaaccent" unicode="&#x219;" horiz-adv-x="434" 
 />
    <glyph glyph-name="tcaron" unicode="&#x165;" horiz-adv-x="371" 
 />
    <glyph glyph-name="tcommaaccent" unicode="&#x163;" horiz-adv-x="367" 
 />
    <glyph glyph-name="ubreve" unicode="&#x16d;" horiz-adv-x="583" 
 />
    <glyph glyph-name="uhungarumlaut" unicode="&#x171;" horiz-adv-x="583" 
 />
    <glyph glyph-name="umacron" unicode="&#x16b;" horiz-adv-x="583" 
 />
    <glyph glyph-name="uogonek" unicode="&#x173;" horiz-adv-x="583" 
 />
    <glyph glyph-name="uring" unicode="&#x16f;" horiz-adv-x="583" 
 />
    <glyph glyph-name="utilde" unicode="&#x169;" horiz-adv-x="514" 
d="M440 666q-11 -9 -28 -17t-36 -10q-22 -3 -41 2.5t-36.5 12t-35 12t-36.5 2.5q-21 -2 -37 -13.5t-28 -27.5l-12 62q15 19 32.5 29.5t40.5 14.5q19 3 37 -2t36.5 -12t38 -12t40.5 -2q13 2 24.5 8t21.5 13zM466 555q-6 -36 -12 -79.5t-12 -90t-11.5 -93t-10.5 -88.5
q-6 -51 -6 -104t11 -95l-74 -21q-6 18 -8.5 55.5t-2.5 74.5q-60 -90 -143 -127q-15 -3 -31 -3q-46 0 -74.5 31.5t-22.5 105.5q4 48 12 102t15 110q6 51 8.5 103.5t-2.5 98.5l76 22q5 -40 3.5 -91.5t-8.5 -117.5q-2 -17 -6 -47.5t-8 -62.5t-7 -60.5t-3 -42.5q0 -18 2 -34.5
t8 -28.5t17 -19t29 -7q27 0 52 21t45.5 57t35.5 84t22 101l32 234z" />
    <glyph glyph-name="wacute" unicode="&#x1e83;" horiz-adv-x="759" 
 />
    <glyph glyph-name="wcircumflex" unicode="&#x175;" horiz-adv-x="759" 
 />
    <glyph glyph-name="wdieresis" unicode="&#x1e85;" horiz-adv-x="759" 
 />
    <glyph glyph-name="wgrave" unicode="&#x1e81;" horiz-adv-x="759" 
 />
    <glyph glyph-name="ycircumflex" unicode="&#x177;" horiz-adv-x="523" 
 />
    <glyph glyph-name="ygrave" unicode="&#x1ef3;" horiz-adv-x="473" 
d="M304 600q-23 13 -43.5 36t-38 51.5t-31 61t-20.5 63.5l70 7q14 -52 42.5 -106.5t66.5 -93.5zM476 557q-6 -66 -24.5 -129t-43.5 -125.5t-54 -123.5t-56.5 -122.5t-51 -123.5t-37.5 -125l-79 -15q2 14 8 38.5t14 52t17.5 54.5t18.5 46q-9 2 -19.5 6t-18.5 8q-11 4 -20 9
q-19 56 -26 123t-9.5 136.5l-5 139t-12.5 130.5l77 20q13 -77 16 -151t5 -142.5t7 -129.5t22 -112q13 28 31 68t38 85.5t40 94.5t36.5 96.5t28 90.5t14.5 77z" />
    <glyph glyph-name="uni0233" unicode="&#x233;" horiz-adv-x="523" 
 />
    <glyph glyph-name="zacute" unicode="&#x17a;" horiz-adv-x="469" 
 />
    <glyph glyph-name="zdotaccent" unicode="&#x17c;" horiz-adv-x="469" 
 />
    <glyph glyph-name="aeacute" unicode="&#x1fd;" horiz-adv-x="803" 
 />
    <glyph glyph-name="space_uni0326" unicode="&#xf6c3;" 
 />
    <glyph glyph-name="acute.cap" unicode="&#xf6c9;" 
 />
    <glyph glyph-name="breve.cap" unicode="&#xefee;" 
 />
    <glyph glyph-name="caron.cap" unicode="&#xf6ca;" 
 />
    <glyph glyph-name="cedilla.cap" unicode="&#xeff2;" 
 />
    <glyph glyph-name="circumflex.cap" unicode="&#xeff7;" 
 />
    <glyph glyph-name="space_uni0326.cap" unicode="&#xf634;" 
 />
    <glyph glyph-name="dieresis.cap" unicode="&#xf6cb;" 
 />
    <glyph glyph-name="dotaccent.cap" unicode="&#xefed;" 
 />
    <glyph glyph-name="grave.cap" unicode="&#xf6ce;" 
 />
    <glyph glyph-name="hungarumlaut.cap" unicode="&#xf6cf;" 
 />
    <glyph glyph-name="macron.cap" unicode="&#xf6d0;" 
 />
    <glyph glyph-name="ogonek.cap" unicode="&#xeff1;" 
 />
    <glyph glyph-name="ring.cap" unicode="&#xeff3;" horiz-adv-x="400" 
 />
    <glyph glyph-name="tilde.cap" unicode="&#xeff5;" 
 />
    <glyph glyph-name="Alpha" unicode="&#x391;" horiz-adv-x="656" 
 />
    <glyph glyph-name="Beta" unicode="&#x392;" horiz-adv-x="604" 
 />
    <glyph glyph-name="Gamma" unicode="&#x393;" horiz-adv-x="482" 
 />
    <glyph glyph-name="uni0394" unicode="&#x394;" horiz-adv-x="648" 
 />
    <glyph glyph-name="Epsilon" unicode="&#x395;" horiz-adv-x="534" 
 />
    <glyph glyph-name="Zeta" unicode="&#x396;" horiz-adv-x="577" 
 />
    <glyph glyph-name="Eta" unicode="&#x397;" horiz-adv-x="689" 
 />
    <glyph glyph-name="Theta" unicode="&#x398;" horiz-adv-x="719" 
 />
    <glyph glyph-name="Iota" unicode="&#x399;" horiz-adv-x="285" 
 />
    <glyph glyph-name="Kappa" unicode="&#x39a;" horiz-adv-x="614" 
 />
    <glyph glyph-name="Lambda" unicode="&#x39b;" horiz-adv-x="648" 
 />
    <glyph glyph-name="Mu" unicode="&#x39c;" horiz-adv-x="846" 
 />
    <glyph glyph-name="Nu" unicode="&#x39d;" horiz-adv-x="690" 
 />
    <glyph glyph-name="Xi" unicode="&#x39e;" horiz-adv-x="574" 
 />
    <glyph glyph-name="Omicron" unicode="&#x39f;" horiz-adv-x="717" 
 />
    <glyph glyph-name="Pi" unicode="&#x3a0;" horiz-adv-x="667" 
 />
    <glyph glyph-name="Rho" unicode="&#x3a1;" horiz-adv-x="581" 
 />
    <glyph glyph-name="Sigma" unicode="&#x3a3;" horiz-adv-x="578" 
 />
    <glyph glyph-name="Tau" unicode="&#x3a4;" horiz-adv-x="548" 
 />
    <glyph glyph-name="Upsilon" unicode="&#x3a5;" horiz-adv-x="625" 
 />
    <glyph glyph-name="Phi" unicode="&#x3a6;" horiz-adv-x="785" 
 />
    <glyph glyph-name="Chi" unicode="&#x3a7;" horiz-adv-x="613" 
 />
    <glyph glyph-name="Psi" unicode="&#x3a8;" horiz-adv-x="742" 
 />
    <glyph glyph-name="uni03A9" unicode="&#x3a9;" horiz-adv-x="744" 
 />
    <glyph glyph-name="Alphatonos" unicode="&#x386;" horiz-adv-x="664" 
 />
    <glyph glyph-name="Epsilontonos" unicode="&#x388;" horiz-adv-x="642" 
 />
    <glyph glyph-name="Etatonos" unicode="&#x389;" horiz-adv-x="797" 
 />
    <glyph glyph-name="Iotatonos" unicode="&#x38a;" horiz-adv-x="393" 
 />
    <glyph glyph-name="Iotadieresis" unicode="&#x3aa;" horiz-adv-x="285" 
 />
    <glyph glyph-name="Omicrontonos" unicode="&#x38c;" horiz-adv-x="792" 
 />
    <glyph glyph-name="Upsilontonos" unicode="&#x38e;" horiz-adv-x="779" 
 />
    <glyph glyph-name="Upsilondieresis" unicode="&#x3ab;" horiz-adv-x="625" 
 />
    <glyph glyph-name="Omegatonos" unicode="&#x38f;" horiz-adv-x="814" 
 />
    <glyph glyph-name="alpha" unicode="&#x3b1;" horiz-adv-x="583" 
 />
    <glyph glyph-name="beta" unicode="&#x3b2;" horiz-adv-x="587" 
 />
    <glyph glyph-name="gamma" unicode="&#x3b3;" horiz-adv-x="515" 
 />
    <glyph glyph-name="delta" unicode="&#x3b4;" horiz-adv-x="576" 
 />
    <glyph glyph-name="epsilon" unicode="&#x3b5;" horiz-adv-x="468" 
 />
    <glyph glyph-name="zeta" unicode="&#x3b6;" horiz-adv-x="441" 
 />
    <glyph glyph-name="eta" unicode="&#x3b7;" horiz-adv-x="586" 
 />
    <glyph glyph-name="theta" unicode="&#x3b8;" horiz-adv-x="570" 
 />
    <glyph glyph-name="iota" unicode="&#x3b9;" horiz-adv-x="280" 
 />
    <glyph glyph-name="kappa" unicode="&#x3ba;" horiz-adv-x="548" 
 />
    <glyph glyph-name="lambda" unicode="&#x3bb;" horiz-adv-x="518" 
 />
    <glyph glyph-name="uni03BC" unicode="&#x3bc;" horiz-adv-x="522" 
d="M474 554q-5 -35 -11 -77.5t-12 -88t-11.5 -91.5t-10.5 -87q-3 -26 -4.5 -53t-1.5 -54t2 -52t7 -45l-71 -23q-4 9 -6.5 25t-4 33.5t-2 34.5t-0.5 29q-10 -15 -25 -33t-32.5 -34.5t-36 -29.5t-35.5 -20q-53 -6 -79 27q-13 -73 -20.5 -127t-11.5 -98l-78 11q2 30 8 77
t13.5 101t16 111t16.5 107t13.5 89t7.5 58q5 47 7.5 99t-1.5 92l75 22q5 -39 4 -89.5t-8 -116.5q-2 -17 -5 -40.5t-6.5 -48.5t-6.5 -47t-4 -36q-2 -26 0 -49t9 -40.5t20.5 -28t34.5 -10.5q51 0 91 73.5t58 213.5l26 204l75 12v0z" />
    <glyph glyph-name="nu" unicode="&#x3bd;" horiz-adv-x="510" 
 />
    <glyph glyph-name="xi" unicode="&#x3be;" horiz-adv-x="472" 
 />
    <glyph glyph-name="omicron" unicode="&#x3bf;" horiz-adv-x="577" 
 />
    <glyph glyph-name="rho" unicode="&#x3c1;" horiz-adv-x="591" 
 />
    <glyph glyph-name="sigma" unicode="&#x3c3;" horiz-adv-x="594" 
 />
    <glyph glyph-name="tau" unicode="&#x3c4;" horiz-adv-x="452" 
 />
    <glyph glyph-name="upsilon" unicode="&#x3c5;" horiz-adv-x="558" 
 />
    <glyph glyph-name="phi" unicode="&#x3c6;" horiz-adv-x="711" 
 />
    <glyph glyph-name="chi" unicode="&#x3c7;" horiz-adv-x="504" 
 />
    <glyph glyph-name="psi" unicode="&#x3c8;" horiz-adv-x="726" 
 />
    <glyph glyph-name="omega" unicode="&#x3c9;" horiz-adv-x="733" 
 />
    <glyph glyph-name="uni03C2" unicode="&#x3c2;" horiz-adv-x="458" 
 />
    <glyph glyph-name="alphatonos" unicode="&#x3ac;" horiz-adv-x="583" 
 />
    <glyph glyph-name="epsilontonos" unicode="&#x3ad;" horiz-adv-x="468" 
 />
    <glyph glyph-name="etatonos" unicode="&#x3ae;" horiz-adv-x="586" 
 />
    <glyph glyph-name="iotatonos" unicode="&#x3af;" horiz-adv-x="280" 
 />
    <glyph glyph-name="iotadieresis" unicode="&#x3ca;" horiz-adv-x="280" 
 />
    <glyph glyph-name="omicrontonos" unicode="&#x3cc;" horiz-adv-x="577" 
 />
    <glyph glyph-name="upsilontonos" unicode="&#x3cd;" horiz-adv-x="558" 
 />
    <glyph glyph-name="upsilondieresis" unicode="&#x3cb;" horiz-adv-x="558" 
 />
    <glyph glyph-name="omegatonos" unicode="&#x3ce;" horiz-adv-x="733" 
 />
    <glyph glyph-name="iotadieresistonos" unicode="&#x390;" horiz-adv-x="280" 
 />
    <glyph glyph-name="upsilondieresistonos" unicode="&#x3b0;" horiz-adv-x="558" 
 />
    <glyph glyph-name="uni037E" unicode="&#x37e;" horiz-adv-x="277" 
 />
    <glyph glyph-name="anoteleia" unicode="&#x387;" horiz-adv-x="277" 
 />
    <glyph glyph-name="tonos" unicode="&#x384;" horiz-adv-x="303" 
 />
    <glyph glyph-name="dieresistonos" unicode="&#x385;" horiz-adv-x="435" 
 />
    <glyph glyph-name="dieresis_acutecomb" unicode="&#xf6d7;" horiz-adv-x="301" 
 />
    <glyph glyph-name="dieresis_gravecomb" unicode="&#xf6d8;" horiz-adv-x="301" 
 />
    <glyph glyph-name="space_uni030F" unicode="&#xf6d6;" 
 />
    <glyph glyph-name="dieresis_acutecomb.cap" unicode="&#xf6cc;" horiz-adv-x="301" 
 />
    <glyph glyph-name="dieresis_gravecomb.cap" unicode="&#xf6cd;" horiz-adv-x="301" 
 />
    <glyph glyph-name="space_uni030F.cap" unicode="&#xf6d3;" 
 />
    <glyph glyph-name="afii10017" unicode="&#x410;" horiz-adv-x="656" 
 />
    <glyph glyph-name="afii10018" unicode="&#x411;" horiz-adv-x="603" 
 />
    <glyph glyph-name="afii10019" unicode="&#x412;" horiz-adv-x="604" 
 />
    <glyph glyph-name="afii10020" unicode="&#x413;" horiz-adv-x="489" 
 />
    <glyph glyph-name="afii10050" unicode="&#x490;" horiz-adv-x="492" 
 />
    <glyph glyph-name="afii10021" unicode="&#x414;" horiz-adv-x="688" 
 />
    <glyph glyph-name="afii10022" unicode="&#x415;" horiz-adv-x="534" 
 />
    <glyph glyph-name="afii10024" unicode="&#x416;" horiz-adv-x="875" 
 />
    <glyph glyph-name="afii10025" unicode="&#x417;" horiz-adv-x="544" 
 />
    <glyph glyph-name="afii10026" unicode="&#x418;" horiz-adv-x="690" 
 />
    <glyph glyph-name="afii10027" unicode="&#x419;" horiz-adv-x="690" 
 />
    <glyph glyph-name="afii10028" unicode="&#x41a;" horiz-adv-x="605" 
 />
    <glyph glyph-name="afii10029" unicode="&#x41b;" horiz-adv-x="645" 
 />
    <glyph glyph-name="afii10030" unicode="&#x41c;" horiz-adv-x="846" 
 />
    <glyph glyph-name="afii10031" unicode="&#x41d;" horiz-adv-x="689" 
 />
    <glyph glyph-name="afii10032" unicode="&#x41e;" horiz-adv-x="717" 
 />
    <glyph glyph-name="afii10033" unicode="&#x41f;" horiz-adv-x="677" 
 />
    <glyph glyph-name="afii10034" unicode="&#x420;" horiz-adv-x="581" 
 />
    <glyph glyph-name="afii10035" unicode="&#x421;" horiz-adv-x="595" 
 />
    <glyph glyph-name="afii10036" unicode="&#x422;" horiz-adv-x="548" 
 />
    <glyph glyph-name="afii10037" unicode="&#x423;" horiz-adv-x="588" 
 />
    <glyph glyph-name="afii10038" unicode="&#x424;" horiz-adv-x="789" 
 />
    <glyph glyph-name="afii10039" unicode="&#x425;" horiz-adv-x="613" 
 />
    <glyph glyph-name="afii10040" unicode="&#x426;" horiz-adv-x="694" 
 />
    <glyph glyph-name="afii10041" unicode="&#x427;" horiz-adv-x="642" 
 />
    <glyph glyph-name="afii10042" unicode="&#x428;" horiz-adv-x="913" 
 />
    <glyph glyph-name="afii10043" unicode="&#x429;" horiz-adv-x="934" 
 />
    <glyph glyph-name="afii10044" unicode="&#x42a;" horiz-adv-x="706" 
 />
    <glyph glyph-name="afii10045" unicode="&#x42b;" horiz-adv-x="852" 
 />
    <glyph glyph-name="afii10046" unicode="&#x42c;" horiz-adv-x="603" 
 />
    <glyph glyph-name="afii10047" unicode="&#x42d;" horiz-adv-x="587" 
 />
    <glyph glyph-name="afii10048" unicode="&#x42e;" horiz-adv-x="921" 
 />
    <glyph glyph-name="afii10049" unicode="&#x42f;" horiz-adv-x="600" 
 />
    <glyph glyph-name="afii10023" unicode="&#x401;" horiz-adv-x="534" 
 />
    <glyph glyph-name="afii10051" unicode="&#x402;" horiz-adv-x="722" 
 />
    <glyph glyph-name="afii10052" unicode="&#x403;" horiz-adv-x="489" 
 />
    <glyph glyph-name="afii10053" unicode="&#x404;" horiz-adv-x="595" 
 />
    <glyph glyph-name="afii10054" unicode="&#x405;" horiz-adv-x="540" 
 />
    <glyph glyph-name="afii10055" unicode="&#x406;" horiz-adv-x="285" 
 />
    <glyph glyph-name="afii10056" unicode="&#x407;" horiz-adv-x="285" 
 />
    <glyph glyph-name="afii10057" unicode="&#x408;" horiz-adv-x="411" 
 />
    <glyph glyph-name="afii10058" unicode="&#x409;" horiz-adv-x="945" 
 />
    <glyph glyph-name="afii10059" unicode="&#x40a;" horiz-adv-x="954" 
 />
    <glyph glyph-name="afii10060" unicode="&#x40b;" horiz-adv-x="730" 
 />
    <glyph glyph-name="afii10061" unicode="&#x40c;" horiz-adv-x="605" 
 />
    <glyph glyph-name="afii10062" unicode="&#x40e;" horiz-adv-x="588" 
 />
    <glyph glyph-name="afii10145" unicode="&#x40f;" horiz-adv-x="674" 
 />
    <glyph glyph-name="afii10065" unicode="&#x430;" horiz-adv-x="528" 
 />
    <glyph glyph-name="afii10066" unicode="&#x431;" horiz-adv-x="577" 
 />
    <glyph glyph-name="afii10067" unicode="&#x432;" horiz-adv-x="552" 
 />
    <glyph glyph-name="afii10068" unicode="&#x433;" horiz-adv-x="416" 
 />
    <glyph glyph-name="afii10098" unicode="&#x491;" horiz-adv-x="431" 
 />
    <glyph glyph-name="afii10069" unicode="&#x434;" horiz-adv-x="590" 
 />
    <glyph glyph-name="afii10070" unicode="&#x435;" horiz-adv-x="528" 
 />
    <glyph glyph-name="afii10072" unicode="&#x436;" horiz-adv-x="737" 
 />
    <glyph glyph-name="afii10073" unicode="&#x437;" horiz-adv-x="487" 
 />
    <glyph glyph-name="afii10074" unicode="&#x438;" horiz-adv-x="597" 
 />
    <glyph glyph-name="afii10075" unicode="&#x439;" horiz-adv-x="597" 
 />
    <glyph glyph-name="afii10076" unicode="&#x43a;" horiz-adv-x="530" 
 />
    <glyph glyph-name="afii10077" unicode="&#x43b;" horiz-adv-x="546" 
 />
    <glyph glyph-name="afii10078" unicode="&#x43c;" horiz-adv-x="718" 
 />
    <glyph glyph-name="afii10079" unicode="&#x43d;" horiz-adv-x="579" 
 />
    <glyph glyph-name="afii10080" unicode="&#x43e;" horiz-adv-x="577" 
 />
    <glyph glyph-name="afii10081" unicode="&#x43f;" horiz-adv-x="576" 
 />
    <glyph glyph-name="afii10082" unicode="&#x440;" horiz-adv-x="598" 
 />
    <glyph glyph-name="afii10083" unicode="&#x441;" horiz-adv-x="451" 
 />
    <glyph glyph-name="afii10084" unicode="&#x442;" horiz-adv-x="461" 
 />
    <glyph glyph-name="afii10085" unicode="&#x443;" horiz-adv-x="523" 
 />
    <glyph glyph-name="afii10086" unicode="&#x444;" horiz-adv-x="720" 
 />
    <glyph glyph-name="afii10087" unicode="&#x445;" horiz-adv-x="519" 
 />
    <glyph glyph-name="afii10088" unicode="&#x446;" horiz-adv-x="589" 
 />
    <glyph glyph-name="afii10089" unicode="&#x447;" horiz-adv-x="558" 
 />
    <glyph glyph-name="afii10090" unicode="&#x448;" horiz-adv-x="813" 
 />
    <glyph glyph-name="afii10091" unicode="&#x449;" horiz-adv-x="826" 
 />
    <glyph glyph-name="afii10092" unicode="&#x44a;" horiz-adv-x="650" 
 />
    <glyph glyph-name="afii10093" unicode="&#x44b;" horiz-adv-x="777" 
 />
    <glyph glyph-name="afii10094" unicode="&#x44c;" horiz-adv-x="554" 
 />
    <glyph glyph-name="afii10095" unicode="&#x44d;" horiz-adv-x="485" 
 />
    <glyph glyph-name="afii10096" unicode="&#x44e;" horiz-adv-x="771" 
 />
    <glyph glyph-name="afii10097" unicode="&#x44f;" horiz-adv-x="553" 
 />
    <glyph glyph-name="afii10071" unicode="&#x451;" horiz-adv-x="528" 
 />
    <glyph glyph-name="afii10099" unicode="&#x452;" horiz-adv-x="586" 
 />
    <glyph glyph-name="afii10100" unicode="&#x453;" horiz-adv-x="416" 
 />
    <glyph glyph-name="afii10101" unicode="&#x454;" horiz-adv-x="472" 
 />
    <glyph glyph-name="afii10102" unicode="&#x455;" horiz-adv-x="434" 
 />
    <glyph glyph-name="afii10103" unicode="&#x456;" horiz-adv-x="274" 
 />
    <glyph glyph-name="afii10104" unicode="&#x457;" horiz-adv-x="274" 
 />
    <glyph glyph-name="afii10105" unicode="&#x458;" horiz-adv-x="291" 
 />
    <glyph glyph-name="afii10106" unicode="&#x459;" horiz-adv-x="824" 
 />
    <glyph glyph-name="afii10107" unicode="&#x45a;" horiz-adv-x="840" 
 />
    <glyph glyph-name="afii10108" unicode="&#x45b;" horiz-adv-x="598" 
 />
    <glyph glyph-name="afii10109" unicode="&#x45c;" horiz-adv-x="530" 
 />
    <glyph glyph-name="afii10110" unicode="&#x45e;" horiz-adv-x="523" 
 />
    <glyph glyph-name="afii10193" unicode="&#x45f;" horiz-adv-x="576" 
 />
    <glyph glyph-name="afii10846" unicode="&#x4d9;" horiz-adv-x="328" 
 />
    <glyph glyph-name="breve.cyrcap" unicode="&#xf6d1;" 
 />
    <glyph glyph-name="circumflex.cyrcap" unicode="&#xf6d2;" 
 />
    <glyph glyph-name="breve.cyr" unicode="&#xf6d4;" 
 />
    <glyph glyph-name="circumflex.cyr" unicode="&#xf6d5;" 
 />
    <glyph glyph-name="Ohorn" unicode="&#x1a0;" horiz-adv-x="660" 
d="M625 468q0 -54 -8.5 -111t-26 -110.5t-45.5 -101.5t-67 -83.5t-90 -56.5t-115 -21q-71 0 -117 25.5t-73 68.5t-37.5 99t-10.5 117q0 55 8 111.5t25.5 110t45.5 100.5t67 82t90 55.5t116 20.5q74 0 121 -28.5t74 -76.5q16 13 25 28.5t10.5 28.5t-6 21.5t-24.5 8.5l-14 49
q15 3 34 1t34.5 -10.5t25.5 -25t7 -43.5q-4 -32 -24 -59t-48 -45q12 -35 17.5 -74t5.5 -81zM532 458q0 44 -6.5 89.5t-25 83t-52.5 61t-89 23.5q-48 0 -83.5 -20.5t-61.5 -55t-42.5 -78t-26.5 -89.5t-14 -90.5t-4 -80.5q0 -41 6 -85.5t24 -82t50 -62t84 -24.5q50 0 87.5 20
t64 52.5t44 75.5t27.5 88.5t14 91t4 83.5z" />
    <glyph glyph-name="Uhorn" unicode="&#x1af;" horiz-adv-x="699" 
d="M636 727q19 13 31 29.5t15 31t-4.5 24.5t-25.5 10l-14 49q15 3 34 1t34.5 -10.5t25.5 -25t7 -43.5q-3 -21 -13 -40.5t-25 -35.5t-34 -28.5t-39 -19.5q-6 -50 -11 -103t-9 -104t-6.5 -98.5t-3.5 -86.5q-1 -31 0 -66.5t4 -72t9 -71t17 -62.5l-80 -19q-3 9 -6 17.5t-6.5 22
t-7.5 34.5t-8 53q-67 -74 -131.5 -101.5t-127.5 -27.5q-39 0 -73 14.5t-57.5 45.5t-35.5 79.5t-8 116.5q4 64 13.5 127t19.5 126t17.5 126.5t7.5 127.5l79 20q2 -30 0.5 -63t-4.5 -67.5t-8 -68.5t-9 -66q-11 -78 -19.5 -150t-8.5 -139q0 -76 29.5 -118.5t96.5 -42.5
q31 0 62.5 11.5t60 31t51.5 44.5t38 51q1 70 5.5 148.5t11 154.5t15 144.5t17.5 119.5l80 13z" />
    <glyph glyph-name="ohorn" unicode="&#x1a1;" horiz-adv-x="476" 
d="M444 360q0 -69 -15.5 -136.5t-48 -120.5t-83.5 -85.5t-122 -32.5q-77 0 -110 51.5t-33 137.5q0 66 15.5 134.5t47.5 123.5t81.5 90t117.5 35q48 0 79.5 -21t48.5 -59q18 11 28 24.5t11 25.5t-7 20t-26 8l-14 49q15 3 34 1t34.5 -10.5t25.5 -25t7 -43.5q-5 -36 -26 -59.5
t-51 -37.5q6 -32 6 -69zM361 343q0 79 -21.5 120t-78.5 41q-32 0 -58.5 -24t-46 -66t-30.5 -98.5t-11 -122.5q0 -33 4.5 -61t15.5 -48.5t30.5 -32t49.5 -11.5q36 0 63.5 24t46 65t27.5 96t9 118z" />
    <glyph glyph-name="uhorn" unicode="&#x1b0;" horiz-adv-x="514" 
d="M466 555q-2 -6 -2.5 -12.5t-1.5 -13.5q20 1 32 13t15 25t-3.5 23t-24.5 6l-9 45q15 3 30.5 3t28 -6t20.5 -19.5t7 -36.5q-2 -44 -33 -70t-72 -40q-9 -64 -17.5 -134.5t-15.5 -133.5q-6 -51 -6 -104t11 -95l-74 -21q-6 18 -8.5 55.5t-2.5 74.5q-60 -90 -143 -127
q-15 -3 -31 -3q-46 0 -74.5 31.5t-22.5 105.5q4 48 12 102t15 110q6 51 8.5 103.5t-2.5 98.5l76 22q5 -40 3.5 -91.5t-8.5 -117.5q-2 -17 -6 -47.5t-8 -62.5t-7 -60.5t-3 -42.5q0 -18 2 -34.5t8 -28.5t17 -19t29 -7q27 0 52 21t45.5 57t35.5 84t22 101l32 234l74 12v0z" />
    <glyph glyph-name="dong" unicode="&#x20ab;" horiz-adv-x="555" 
 />
    <glyph glyph-name="dong.alt" unicode="&#xe184;" horiz-adv-x="555" 
 />
    <glyph glyph-name="uni1EA0" unicode="&#x1ea0;" horiz-adv-x="560" 
d="M460 -18q-15 30 -30.5 89t-29.5 131q-27 -1 -60.5 -3t-65.5 -4.5t-61 -6t-47 -6.5l-32 56q-12 -27 -24 -58t-24 -61.5t-22.5 -60t-18.5 -54.5l-84 -13q25 80 64.5 179t86 202.5t96 205t94.5 185.5l76 14q24 -98 41 -206t34.5 -211.5t37 -194.5t47.5 -155zM388 272
q-10 43 -16 80.5t-12 79.5t-14 94.5t-23 125.5q-27 -53 -50 -99t-44.5 -92.5t-43.5 -97.5t-47 -112q57 8 116.5 15t133.5 6zM311 -118q0 -26 -17 -44.5t-41 -18.5q-21 0 -32 13t-11 33q0 27 15 46t40 19q21 0 33.5 -13.5t12.5 -34.5z" />
    <glyph glyph-name="uni1EA2" unicode="&#x1ea2;" horiz-adv-x="560" 
d="M460 -18q-15 30 -30.5 89t-29.5 131q-27 -1 -60.5 -3t-65.5 -4.5t-61 -6t-47 -6.5l-32 56q-12 -27 -24 -58t-24 -61.5t-22.5 -60t-18.5 -54.5l-84 -13q25 80 64.5 179t86 202.5t96 205t94.5 185.5l76 14q24 -98 41 -206t34.5 -211.5t37 -194.5t47.5 -155zM388 272
q-10 43 -16 80.5t-12 79.5t-14 94.5t-23 125.5q-27 -53 -50 -99t-44.5 -92.5t-43.5 -97.5t-47 -112q57 8 116.5 15t133.5 6zM431 975q-1 -47 -28.5 -82.5t-71.5 -64.5l-39 36q40 29 60 53t14 58q-3 16 -12.5 22.5t-20 6.5t-19.5 -5t-12 -12l-24 42q20 19 46.5 25t50.5 -1
t40.5 -26.5t15.5 -51.5z" />
    <glyph glyph-name="uni1EA4" unicode="&#x1ea4;" horiz-adv-x="560" 
d="M460 -18q-15 30 -30.5 89t-29.5 131q-27 -1 -60.5 -3t-65.5 -4.5t-61 -6t-47 -6.5l-32 56q-12 -27 -24 -58t-24 -61.5t-22.5 -60t-18.5 -54.5l-84 -13q25 80 64.5 179t86 202.5t96 205t94.5 185.5l76 14q24 -98 41 -206t34.5 -211.5t37 -194.5t47.5 -155zM388 272
q-10 43 -16 80.5t-12 79.5t-14 94.5t-23 125.5q-27 -53 -50 -99t-44.5 -92.5t-43.5 -97.5t-47 -112q57 8 116.5 15t133.5 6zM461 798q-22 21 -45.5 43t-53.5 48q-29 -18 -58.5 -41.5t-54.5 -44.5l-45 26q31 31 69 62.5t70 54.5l60 4q9 -14 22.5 -30.5t29 -33.5t31.5 -33
t31 -28zM658 1096q-9 -28 -25.5 -55.5t-37 -52.5t-43.5 -45t-45 -32l-39 22q37 31 72.5 78t55.5 95z" />
    <glyph glyph-name="uni1EA6" unicode="&#x1ea6;" horiz-adv-x="560" 
d="M460 -18q-15 30 -30.5 89t-29.5 131q-27 -1 -60.5 -3t-65.5 -4.5t-61 -6t-47 -6.5l-32 56q-12 -27 -24 -58t-24 -61.5t-22.5 -60t-18.5 -54.5l-84 -13q25 80 64.5 179t86 202.5t96 205t94.5 185.5l76 14q24 -98 41 -206t34.5 -211.5t37 -194.5t47.5 -155zM388 272
q-10 43 -16 80.5t-12 79.5t-14 94.5t-23 125.5q-27 -53 -50 -99t-44.5 -92.5t-43.5 -97.5t-47 -112q57 8 116.5 15t133.5 6zM461 798q-22 21 -45.5 43t-53.5 48q-29 -18 -58.5 -41.5t-54.5 -44.5l-45 26q31 31 69 62.5t70 54.5l60 4q9 -14 22.5 -30.5t29 -33.5t31.5 -33
t31 -28zM561 869q-22 12 -42 32.5t-36.5 47t-29.5 55.5t-20 57l67 7q14 -47 41.5 -97t63.5 -85z" />
    <glyph glyph-name="uni1EA8" unicode="&#x1ea8;" horiz-adv-x="560" 
d="M460 -18q-15 30 -30.5 89t-29.5 131q-27 -1 -60.5 -3t-65.5 -4.5t-61 -6t-47 -6.5l-32 56q-12 -27 -24 -58t-24 -61.5t-22.5 -60t-18.5 -54.5l-84 -13q25 80 64.5 179t86 202.5t96 205t94.5 185.5l76 14q24 -98 41 -206t34.5 -211.5t37 -194.5t47.5 -155zM388 272
q-10 43 -16 80.5t-12 79.5t-14 94.5t-23 125.5q-27 -53 -50 -99t-44.5 -92.5t-43.5 -97.5t-47 -112q57 8 116.5 15t133.5 6zM461 798q-22 21 -45.5 43t-53.5 48q-29 -18 -58.5 -41.5t-54.5 -44.5l-45 26q31 31 69 62.5t70 54.5l60 4q9 -14 22.5 -30.5t29 -33.5t31.5 -33
t31 -28zM611 1036q-1 -43 -26.5 -76t-66.5 -60l-36 33q37 27 55.5 49t13.5 54q-3 15 -12 21t-18.5 6t-18 -5t-11.5 -11l-22 39q18 18 43 23.5t47 -1t37.5 -24.5t14.5 -48z" />
    <glyph glyph-name="uni1EAA" unicode="&#x1eaa;" horiz-adv-x="560" 
d="M460 -18q-15 30 -30.5 89t-29.5 131q-27 -1 -60.5 -3t-65.5 -4.5t-61 -6t-47 -6.5l-32 56q-12 -27 -24 -58t-24 -61.5t-22.5 -60t-18.5 -54.5l-84 -13q25 80 64.5 179t86 202.5t96 205t94.5 185.5l76 14q24 -98 41 -206t34.5 -211.5t37 -194.5t47.5 -155zM388 272
q-10 43 -16 80.5t-12 79.5t-14 94.5t-23 125.5q-27 -53 -50 -99t-44.5 -92.5t-43.5 -97.5t-47 -112q57 8 116.5 15t133.5 6zM461 798q-22 21 -45.5 43t-53.5 48q-29 -18 -58.5 -41.5t-54.5 -44.5l-45 26q31 31 69 62.5t70 54.5l60 4q9 -14 22.5 -30.5t29 -33.5t31.5 -33
t31 -28zM513 1018q-10 -8 -25 -15t-32 -9q-19 -3 -36 1.5t-32.5 10.5t-31.5 11t-32 2q-19 -2 -33 -12t-25 -24l-10 55q25 32 65 39q16 2 32 -2.5t32.5 -10t33.5 -10t36 -2.5q12 2 22.5 7.5t18.5 11.5z" />
    <glyph glyph-name="uni1EAC" unicode="&#x1eac;" horiz-adv-x="560" 
d="M460 -18q-15 30 -30.5 89t-29.5 131q-27 -1 -60.5 -3t-65.5 -4.5t-61 -6t-47 -6.5l-32 56q-12 -27 -24 -58t-24 -61.5t-22.5 -60t-18.5 -54.5l-84 -13q25 80 64.5 179t86 202.5t96 205t94.5 185.5l76 14q24 -98 41 -206t34.5 -211.5t37 -194.5t47.5 -155zM388 272
q-10 43 -16 80.5t-12 79.5t-14 94.5t-23 125.5q-27 -53 -50 -99t-44.5 -92.5t-43.5 -97.5t-47 -112q57 8 116.5 15t133.5 6zM461 798q-22 21 -45.5 43t-53.5 48q-29 -18 -58.5 -41.5t-54.5 -44.5l-45 26q31 31 69 62.5t70 54.5l60 4q9 -14 22.5 -30.5t29 -33.5t31.5 -33
t31 -28zM311 -118q0 -26 -17 -44.5t-41 -18.5q-21 0 -32 13t-11 33q0 27 15 46t40 19q21 0 33.5 -13.5t12.5 -34.5z" />
    <glyph glyph-name="uni1EAE" unicode="&#x1eae;" horiz-adv-x="560" 
d="M478 1166q-9 -28 -25.5 -55.5t-37 -52.5t-43.5 -45t-45 -32l-39 22q37 31 72.5 78t55.5 95zM493 958q-12 -61 -53.5 -98t-104.5 -37q-26 0 -49 10t-41.5 27.5t-32 41t-19.5 49.5l42 37q16 -41 44 -71t69 -30q20 0 36.5 8.5t30 23t23 32.5t16.5 37zM460 -18
q-15 30 -30.5 89t-29.5 131q-27 -1 -60.5 -3t-65.5 -4.5t-61 -6t-47 -6.5l-32 56q-12 -27 -24 -58t-24 -61.5t-22.5 -60t-18.5 -54.5l-84 -13q25 80 64.5 179t86 202.5t96 205t94.5 185.5l76 14q24 -98 41 -206t34.5 -211.5t37 -194.5t47.5 -155zM388 272q-10 43 -16 80.5
t-12 79.5t-14 94.5t-23 125.5q-27 -53 -50 -99t-44.5 -92.5t-43.5 -97.5t-47 -112q57 8 116.5 15t133.5 6z" />
    <glyph glyph-name="uni1EB0" unicode="&#x1eb0;" horiz-adv-x="560" 
d="M379 985q-22 12 -42 32.5t-36.5 47t-29.5 55.5t-20 57l67 7q14 -47 41.5 -97t63.5 -85zM493 958q-12 -61 -53.5 -98t-104.5 -37q-26 0 -49 10t-41.5 27.5t-32 41t-19.5 49.5l42 37q16 -41 44 -71t69 -30q20 0 36.5 8.5t30 23t23 32.5t16.5 37zM460 -18q-15 30 -30.5 89
t-29.5 131q-27 -1 -60.5 -3t-65.5 -4.5t-61 -6t-47 -6.5l-32 56q-12 -27 -24 -58t-24 -61.5t-22.5 -60t-18.5 -54.5l-84 -13q25 80 64.5 179t86 202.5t96 205t94.5 185.5l76 14q24 -98 41 -206t34.5 -211.5t37 -194.5t47.5 -155zM388 272q-10 43 -16 80.5t-12 79.5t-14 94.5
t-23 125.5q-27 -53 -50 -99t-44.5 -92.5t-43.5 -97.5t-47 -112q57 8 116.5 15t133.5 6z" />
    <glyph glyph-name="uni1EB2" unicode="&#x1eb2;" horiz-adv-x="560" 
d="M436 1109q-1 -43 -26.5 -76t-66.5 -60l-36 33q37 27 55.5 49t13.5 54q-3 15 -12 21t-18.5 6t-18 -5t-11.5 -11l-22 39q18 18 43 23.5t47 -1t37.5 -24.5t14.5 -48zM493 958q-12 -61 -53.5 -98t-104.5 -37q-26 0 -49 10t-41.5 27.5t-32 41t-19.5 49.5l42 37q16 -41 44 -71
t69 -30q20 0 36.5 8.5t30 23t23 32.5t16.5 37zM460 -18q-15 30 -30.5 89t-29.5 131q-27 -1 -60.5 -3t-65.5 -4.5t-61 -6t-47 -6.5l-32 56q-12 -27 -24 -58t-24 -61.5t-22.5 -60t-18.5 -54.5l-84 -13q25 80 64.5 179t86 202.5t96 205t94.5 185.5l76 14q24 -98 41 -206
t34.5 -211.5t37 -194.5t47.5 -155zM388 272q-10 43 -16 80.5t-12 79.5t-14 94.5t-23 125.5q-27 -53 -50 -99t-44.5 -92.5t-43.5 -97.5t-47 -112q57 8 116.5 15t133.5 6z" />
    <glyph glyph-name="uni1EB4" unicode="&#x1eb4;" horiz-adv-x="560" 
d="M480 1049q-10 -8 -25 -15t-32 -9q-19 -3 -36 1.5t-32.5 10.5t-31.5 11t-32 2q-19 -2 -33 -12t-25 -24l-10 55q25 32 65 39q16 2 32 -2.5t32.5 -10t33.5 -10t36 -2.5q12 2 22.5 7.5t18.5 11.5zM493 958q-12 -61 -53.5 -98t-104.5 -37q-26 0 -49 10t-41.5 27.5t-32 41
t-19.5 49.5l42 37q16 -41 44 -71t69 -30q20 0 36.5 8.5t30 23t23 32.5t16.5 37zM460 -18q-15 30 -30.5 89t-29.5 131q-27 -1 -60.5 -3t-65.5 -4.5t-61 -6t-47 -6.5l-32 56q-12 -27 -24 -58t-24 -61.5t-22.5 -60t-18.5 -54.5l-84 -13q25 80 64.5 179t86 202.5t96 205
t94.5 185.5l76 14q24 -98 41 -206t34.5 -211.5t37 -194.5t47.5 -155zM388 272q-10 43 -16 80.5t-12 79.5t-14 94.5t-23 125.5q-27 -53 -50 -99t-44.5 -92.5t-43.5 -97.5t-47 -112q57 8 116.5 15t133.5 6z" />
    <glyph glyph-name="uni1EB6" unicode="&#x1eb6;" horiz-adv-x="560" 
d="M311 -118q0 -26 -17 -44.5t-41 -18.5q-21 0 -32 13t-11 33q0 27 15 46t40 19q21 0 33.5 -13.5t12.5 -34.5zM493 958q-12 -61 -53.5 -98t-104.5 -37q-26 0 -49 10t-41.5 27.5t-32 41t-19.5 49.5l42 37q16 -41 44 -71t69 -30q20 0 36.5 8.5t30 23t23 32.5t16.5 37zM460 -18
q-15 30 -30.5 89t-29.5 131q-27 -1 -60.5 -3t-65.5 -4.5t-61 -6t-47 -6.5l-32 56q-12 -27 -24 -58t-24 -61.5t-22.5 -60t-18.5 -54.5l-84 -13q25 80 64.5 179t86 202.5t96 205t94.5 185.5l76 14q24 -98 41 -206t34.5 -211.5t37 -194.5t47.5 -155zM388 272q-10 43 -16 80.5
t-12 79.5t-14 94.5t-23 125.5q-27 -53 -50 -99t-44.5 -92.5t-43.5 -97.5t-47 -112q57 8 116.5 15t133.5 6z" />
    <glyph glyph-name="uni1EB8" unicode="&#x1eb8;" horiz-adv-x="544" 
d="M516 28q-18 -9 -43.5 -17t-55.5 -14t-63.5 -9.5t-66.5 -3.5q-39 0 -75.5 10t-64.5 34t-43.5 63t-13.5 97q1 42 8 98.5t16 117t18 120.5t15 109q6 4 12 9q5 5 12 10.5t15 13.5q-19 -5 -47.5 -10t-50.5 -4q-1 14 -1.5 33.5t-0.5 31.5q51 7 102 19t101.5 22.5t101 17
t101.5 3.5l18 -64q-39 2 -74.5 -2t-70 -10.5t-69 -14.5t-71.5 -14q-4 -68 -11 -129t-17 -135q24 3 57.5 7t70 8.5t74 8.5t70.5 6l-8 -71q-56 -4 -121 -12t-118 -13l-30 33q-6 -42 -11 -80.5t-6 -80.5q-1 -41 5.5 -70.5t23.5 -49.5t46 -29.5t73 -9.5q24 0 51 4t52.5 11t48 16
t38.5 19zM337 -118q0 -26 -17 -44.5t-41 -18.5q-21 0 -32 13t-11 33q0 27 15 46t40 19q21 0 33.5 -13.5t12.5 -34.5z" />
    <glyph glyph-name="uni1EBA" unicode="&#x1eba;" horiz-adv-x="544" 
d="M516 28q-18 -9 -43.5 -17t-55.5 -14t-63.5 -9.5t-66.5 -3.5q-39 0 -75.5 10t-64.5 34t-43.5 63t-13.5 97q1 42 8 98.5t16 117t18 120.5t15 109q6 4 12 9q5 5 12 10.5t15 13.5q-19 -5 -47.5 -10t-50.5 -4q-1 14 -1.5 33.5t-0.5 31.5q51 7 102 19t101.5 22.5t101 17
t101.5 3.5l18 -64q-39 2 -74.5 -2t-70 -10.5t-69 -14.5t-71.5 -14q-4 -68 -11 -129t-17 -135q24 3 57.5 7t70 8.5t74 8.5t70.5 6l-8 -71q-56 -4 -121 -12t-118 -13l-30 33q-6 -42 -11 -80.5t-6 -80.5q-1 -41 5.5 -70.5t23.5 -49.5t46 -29.5t73 -9.5q24 0 51 4t52.5 11t48 16
t38.5 19zM399 956q-1 -47 -28.5 -82.5t-71.5 -64.5l-39 36q40 29 60 53t14 58q-3 16 -12.5 22.5t-20 6.5t-19.5 -5t-12 -12l-24 42q20 19 46.5 25t50.5 -1t40.5 -26.5t15.5 -51.5z" />
    <glyph glyph-name="uni1EBC" unicode="&#x1ebc;" horiz-adv-x="544" 
d="M516 28q-18 -9 -43.5 -17t-55.5 -14t-63.5 -9.5t-66.5 -3.5q-39 0 -75.5 10t-64.5 34t-43.5 63t-13.5 97q1 42 8 98.5t16 117t18 120.5t15 109q6 4 12 9q5 5 12 10.5t15 13.5q-19 -5 -47.5 -10t-50.5 -4q-1 14 -1.5 33.5t-0.5 31.5q51 7 102 19t101.5 22.5t101 17
t101.5 3.5l18 -64q-39 2 -74.5 -2t-70 -10.5t-69 -14.5t-71.5 -14q-4 -68 -11 -129t-17 -135q24 3 57.5 7t70 8.5t74 8.5t70.5 6l-8 -71q-56 -4 -121 -12t-118 -13l-30 33q-6 -42 -11 -80.5t-6 -80.5q-1 -41 5.5 -70.5t23.5 -49.5t46 -29.5t73 -9.5q24 0 51 4t52.5 11t48 16
t38.5 19zM498 863q-11 -9 -28 -17t-36 -10q-22 -3 -41 2.5t-36.5 12t-35 12t-36.5 2.5q-21 -2 -37 -13.5t-28 -27.5l-12 62q15 19 32.5 29.5t40.5 14.5q19 3 37 -2t36.5 -12t38 -12t40.5 -2q13 2 24.5 8t21.5 13z" />
    <glyph glyph-name="uni1EBE" unicode="&#x1ebe;" horiz-adv-x="544" 
d="M516 28q-18 -9 -43.5 -17t-55.5 -14t-63.5 -9.5t-66.5 -3.5q-39 0 -75.5 10t-64.5 34t-43.5 63t-13.5 97q1 42 8 98.5t16 117t18 120.5t15 109q6 4 12 9q5 5 12 10.5t15 13.5q-19 -5 -47.5 -10t-50.5 -4q-1 14 -1.5 33.5t-0.5 31.5q51 7 102 19t101.5 22.5t101 17
t101.5 3.5l18 -64q-39 2 -74.5 -2t-70 -10.5t-69 -14.5t-71.5 -14q-4 -68 -11 -129t-17 -135q24 3 57.5 7t70 8.5t74 8.5t70.5 6l-8 -71q-56 -4 -121 -12t-118 -13l-30 33q-6 -42 -11 -80.5t-6 -80.5q-1 -41 5.5 -70.5t23.5 -49.5t46 -29.5t73 -9.5q24 0 51 4t52.5 11t48 16
t38.5 19zM414 815q-22 21 -45 43t-53 48q-29 -18 -58.5 -41.5t-54.5 -44.5l-46 26q31 31 69 62.5t70 54.5l60 4q9 -14 22.5 -30.5t29 -33.5t31.5 -33t31 -28zM624 1108q-9 -28 -25.5 -55.5t-37 -52.5t-43.5 -45t-45 -32l-39 22q37 31 72.5 78t55.5 95z" />
    <glyph glyph-name="uni1EC0" unicode="&#x1ec0;" horiz-adv-x="544" 
d="M516 28q-18 -9 -43.5 -17t-55.5 -14t-63.5 -9.5t-66.5 -3.5q-39 0 -75.5 10t-64.5 34t-43.5 63t-13.5 97q1 42 8 98.5t16 117t18 120.5t15 109q6 4 12 9q5 5 12 10.5t15 13.5q-19 -5 -47.5 -10t-50.5 -4q-1 14 -1.5 33.5t-0.5 31.5q51 7 102 19t101.5 22.5t101 17
t101.5 3.5l18 -64q-39 2 -74.5 -2t-70 -10.5t-69 -14.5t-71.5 -14q-4 -68 -11 -129t-17 -135q24 3 57.5 7t70 8.5t74 8.5t70.5 6l-8 -71q-56 -4 -121 -12t-118 -13l-30 33q-6 -42 -11 -80.5t-6 -80.5q-1 -41 5.5 -70.5t23.5 -49.5t46 -29.5t73 -9.5q24 0 51 4t52.5 11t48 16
t38.5 19zM414 815q-22 21 -45 43t-53 48q-29 -18 -58.5 -41.5t-54.5 -44.5l-46 26q31 31 69 62.5t70 54.5l60 4q9 -14 22.5 -30.5t29 -33.5t31.5 -33t31 -28zM527 885q-22 12 -42 32.5t-36.5 47t-29.5 55.5t-20 57l67 7q14 -47 41.5 -97t63.5 -85z" />
    <glyph glyph-name="uni1EC2" unicode="&#x1ec2;" horiz-adv-x="544" 
d="M516 28q-18 -9 -43.5 -17t-55.5 -14t-63.5 -9.5t-66.5 -3.5q-39 0 -75.5 10t-64.5 34t-43.5 63t-13.5 97q1 42 8 98.5t16 117t18 120.5t15 109q6 4 12 9q5 5 12 10.5t15 13.5q-19 -5 -47.5 -10t-50.5 -4q-1 14 -1.5 33.5t-0.5 31.5q51 7 102 19t101.5 22.5t101 17
t101.5 3.5l18 -64q-39 2 -74.5 -2t-70 -10.5t-69 -14.5t-71.5 -14q-4 -68 -11 -129t-17 -135q24 3 57.5 7t70 8.5t74 8.5t70.5 6l-8 -71q-56 -4 -121 -12t-118 -13l-30 33q-6 -42 -11 -80.5t-6 -80.5q-1 -41 5.5 -70.5t23.5 -49.5t46 -29.5t73 -9.5q24 0 51 4t52.5 11t48 16
t38.5 19zM414 815q-22 21 -45 43t-53 48q-29 -18 -58.5 -41.5t-54.5 -44.5l-46 26q31 31 69 62.5t70 54.5l60 4q9 -14 22.5 -30.5t29 -33.5t31.5 -33t31 -28zM560 1043q-1 -43 -26.5 -76t-66.5 -60l-36 33q37 27 55.5 49t13.5 54q-3 15 -12 21t-18.5 6t-18 -5t-11.5 -11
l-22 39q18 18 43 23.5t47 -1t37.5 -24.5t14.5 -48z" />
    <glyph glyph-name="uni1EC4" unicode="&#x1ec4;" horiz-adv-x="544" 
d="M516 28q-18 -9 -43.5 -17t-55.5 -14t-63.5 -9.5t-66.5 -3.5q-39 0 -75.5 10t-64.5 34t-43.5 63t-13.5 97q1 42 8 98.5t16 117t18 120.5t15 109q6 4 12 9q5 5 12 10.5t15 13.5q-19 -5 -47.5 -10t-50.5 -4q-1 14 -1.5 33.5t-0.5 31.5q51 7 102 19t101.5 22.5t101 17
t101.5 3.5l18 -64q-39 2 -74.5 -2t-70 -10.5t-69 -14.5t-71.5 -14q-4 -68 -11 -129t-17 -135q24 3 57.5 7t70 8.5t74 8.5t70.5 6l-8 -71q-56 -4 -121 -12t-118 -13l-30 33q-6 -42 -11 -80.5t-6 -80.5q-1 -41 5.5 -70.5t23.5 -49.5t46 -29.5t73 -9.5q24 0 51 4t52.5 11t48 16
t38.5 19zM414 815q-22 21 -45 43t-53 48q-29 -18 -58.5 -41.5t-54.5 -44.5l-46 26q31 31 69 62.5t70 54.5l60 4q9 -14 22.5 -30.5t29 -33.5t31.5 -33t31 -28zM458 1035q-10 -8 -25 -15t-32 -9q-19 -3 -36 1.5t-32.5 10.5t-31.5 11t-32 2q-19 -2 -33 -12t-25 -24l-10 55
q25 32 65 39q16 2 32 -2.5t32.5 -10t33.5 -10t36 -2.5q12 2 22.5 7.5t18.5 11.5z" />
    <glyph glyph-name="uni1EC6" unicode="&#x1ec6;" horiz-adv-x="544" 
d="M516 28q-18 -9 -43.5 -17t-55.5 -14t-63.5 -9.5t-66.5 -3.5q-39 0 -75.5 10t-64.5 34t-43.5 63t-13.5 97q1 42 8 98.5t16 117t18 120.5t15 109q6 4 12 9q5 5 12 10.5t15 13.5q-19 -5 -47.5 -10t-50.5 -4q-1 14 -1.5 33.5t-0.5 31.5q51 7 102 19t101.5 22.5t101 17
t101.5 3.5l18 -64q-39 2 -74.5 -2t-70 -10.5t-69 -14.5t-71.5 -14q-4 -68 -11 -129t-17 -135q24 3 57.5 7t70 8.5t74 8.5t70.5 6l-8 -71q-56 -4 -121 -12t-118 -13l-30 33q-6 -42 -11 -80.5t-6 -80.5q-1 -41 5.5 -70.5t23.5 -49.5t46 -29.5t73 -9.5q24 0 51 4t52.5 11t48 16
t38.5 19zM414 815q-22 21 -45 43t-53 48q-29 -18 -58.5 -41.5t-54.5 -44.5l-46 26q31 31 69 62.5t70 54.5l60 4q9 -14 22.5 -30.5t29 -33.5t31.5 -33t31 -28zM304 -118q0 -26 -17 -44.5t-41 -18.5q-21 0 -32 13t-11 33q0 27 15 46t40 19q21 0 33.5 -13.5t12.5 -34.5z" />
    <glyph glyph-name="uni1EC8" unicode="&#x1ec8;" horiz-adv-x="284" 
d="M228 767q-5 -96 -17 -191t-24.5 -190t-22 -190t-7.5 -191l-80 -18q-4 96 4 191t21 190t27 189.5t23 189.5zM280 939q-1 -47 -28.5 -82.5t-71.5 -64.5l-39 36q40 29 60 53t14 58q-3 16 -12.5 22.5t-20 6.5t-19.5 -5t-12 -12l-24 42q20 19 46.5 25t50.5 -1t40.5 -26.5
t15.5 -51.5z" />
    <glyph glyph-name="uni1ECA" unicode="&#x1eca;" horiz-adv-x="284" 
d="M245 767q-5 -96 -17 -191t-24.5 -190t-22 -190t-7.5 -191l-80 -18q-4 96 4 191t21 190t27 189.5t23 189.5zM174 -118q0 -26 -17 -44.5t-41 -18.5q-21 0 -32 13t-11 33q0 27 15 46t40 19q21 0 33.5 -13.5t12.5 -34.5z" />
    <glyph glyph-name="uni1ECC" unicode="&#x1ecc;" horiz-adv-x="660" 
d="M625 468q0 -54 -8.5 -111t-26 -110.5t-45.5 -101.5t-67 -83.5t-90 -56.5t-115 -21q-71 0 -117 25.5t-73 68.5t-37.5 99t-10.5 117q0 55 8 111.5t25.5 110t45.5 100.5t67 82t90 55.5t116 20.5q69 0 115 -25.5t73 -68t38.5 -97.5t11.5 -115zM532 458q0 44 -6.5 89.5t-25 83
t-52.5 61t-89 23.5q-48 0 -83.5 -20.5t-61.5 -55t-42.5 -78t-26.5 -89.5t-14 -90.5t-4 -80.5q0 -41 6 -85.5t24 -82t50 -62t84 -24.5q50 0 87.5 20t64 52.5t44 75.5t27.5 88.5t14 91t4 83.5zM334 -118q0 -26 -17 -44.5t-41 -18.5q-21 0 -32 13t-11 33q0 27 15 46t40 19
q21 0 33.5 -13.5t12.5 -34.5z" />
    <glyph glyph-name="uni1ECE" unicode="&#x1ece;" horiz-adv-x="660" 
d="M474 961q-1 -47 -28.5 -82.5t-71.5 -64.5l-39 36q40 29 60 53t14 58q-3 16 -12.5 22.5t-20 6.5t-19.5 -5t-12 -12l-24 42q20 19 46.5 25t50.5 -1t40.5 -26.5t15.5 -51.5zM625 468q0 -54 -8.5 -111t-26 -110.5t-45.5 -101.5t-67 -83.5t-90 -56.5t-115 -21q-71 0 -117 25.5
t-73 68.5t-37.5 99t-10.5 117q0 55 8 111.5t25.5 110t45.5 100.5t67 82t90 55.5t116 20.5q69 0 115 -25.5t73 -68t38.5 -97.5t11.5 -115zM532 458q0 44 -6.5 89.5t-25 83t-52.5 61t-89 23.5q-48 0 -83.5 -20.5t-61.5 -55t-42.5 -78t-26.5 -89.5t-14 -90.5t-4 -80.5
q0 -41 6 -85.5t24 -82t50 -62t84 -24.5q50 0 87.5 20t64 52.5t44 75.5t27.5 88.5t14 91t4 83.5z" />
    <glyph glyph-name="uni1ED0" unicode="&#x1ed0;" horiz-adv-x="660" 
d="M625 468q0 -54 -8.5 -111t-26 -110.5t-45.5 -101.5t-67 -83.5t-90 -56.5t-115 -21q-71 0 -117 25.5t-73 68.5t-37.5 99t-10.5 117q0 55 8 111.5t25.5 110t45.5 100.5t67 82t90 55.5t116 20.5q69 0 115 -25.5t73 -68t38.5 -97.5t11.5 -115zM532 458q0 44 -6.5 89.5t-25 83
t-52.5 61t-89 23.5q-48 0 -83.5 -20.5t-61.5 -55t-42.5 -78t-26.5 -89.5t-14 -90.5t-4 -80.5q0 -41 6 -85.5t24 -82t50 -62t84 -24.5q50 0 87.5 20t64 52.5t44 75.5t27.5 88.5t14 91t4 83.5zM507 815q-22 21 -45.5 43t-53.5 48q-29 -18 -58.5 -41.5t-54.5 -44.5l-45 26
q31 31 69 62.5t70 54.5l60 4q9 -14 22.5 -30.5t29 -33.5t31.5 -33t31 -28zM718 1096q-9 -28 -25.5 -55.5t-37 -52.5t-43.5 -45t-45 -32l-39 22q37 31 72.5 78t55.5 95z" />
    <glyph glyph-name="uni1ED2" unicode="&#x1ed2;" horiz-adv-x="660" 
d="M625 468q0 -54 -8.5 -111t-26 -110.5t-45.5 -101.5t-67 -83.5t-90 -56.5t-115 -21q-71 0 -117 25.5t-73 68.5t-37.5 99t-10.5 117q0 55 8 111.5t25.5 110t45.5 100.5t67 82t90 55.5t116 20.5q69 0 115 -25.5t73 -68t38.5 -97.5t11.5 -115zM532 458q0 44 -6.5 89.5t-25 83
t-52.5 61t-89 23.5q-48 0 -83.5 -20.5t-61.5 -55t-42.5 -78t-26.5 -89.5t-14 -90.5t-4 -80.5q0 -41 6 -85.5t24 -82t50 -62t84 -24.5q50 0 87.5 20t64 52.5t44 75.5t27.5 88.5t14 91t4 83.5zM507 815q-22 21 -45.5 43t-53.5 48q-29 -18 -58.5 -41.5t-54.5 -44.5l-45 26
q31 31 69 62.5t70 54.5l60 4q9 -14 22.5 -30.5t29 -33.5t31.5 -33t31 -28zM609 886q-22 12 -42 32.5t-36.5 47t-29.5 55.5t-20 57l67 7q14 -47 41.5 -97t63.5 -85z" />
    <glyph glyph-name="uni1ED4" unicode="&#x1ed4;" horiz-adv-x="660" 
d="M625 468q0 -54 -8.5 -111t-26 -110.5t-45.5 -101.5t-67 -83.5t-90 -56.5t-115 -21q-71 0 -117 25.5t-73 68.5t-37.5 99t-10.5 117q0 55 8 111.5t25.5 110t45.5 100.5t67 82t90 55.5t116 20.5q69 0 115 -25.5t73 -68t38.5 -97.5t11.5 -115zM532 458q0 44 -6.5 89.5t-25 83
t-52.5 61t-89 23.5q-48 0 -83.5 -20.5t-61.5 -55t-42.5 -78t-26.5 -89.5t-14 -90.5t-4 -80.5q0 -41 6 -85.5t24 -82t50 -62t84 -24.5q50 0 87.5 20t64 52.5t44 75.5t27.5 88.5t14 91t4 83.5zM507 815q-22 21 -45.5 43t-53.5 48q-29 -18 -58.5 -41.5t-54.5 -44.5l-45 26
q31 31 69 62.5t70 54.5l60 4q9 -14 22.5 -30.5t29 -33.5t31.5 -33t31 -28zM657 1049q-1 -43 -26.5 -76t-66.5 -60l-36 33q37 27 55.5 49t13.5 54q-3 15 -12 21t-18.5 6t-18 -5t-11.5 -11l-22 39q18 18 43 23.5t47 -1t37.5 -24.5t14.5 -48z" />
    <glyph glyph-name="uni1ED6" unicode="&#x1ed6;" horiz-adv-x="660" 
d="M625 468q0 -54 -8.5 -111t-26 -110.5t-45.5 -101.5t-67 -83.5t-90 -56.5t-115 -21q-71 0 -117 25.5t-73 68.5t-37.5 99t-10.5 117q0 55 8 111.5t25.5 110t45.5 100.5t67 82t90 55.5t116 20.5q69 0 115 -25.5t73 -68t38.5 -97.5t11.5 -115zM532 458q0 44 -6.5 89.5t-25 83
t-52.5 61t-89 23.5q-48 0 -83.5 -20.5t-61.5 -55t-42.5 -78t-26.5 -89.5t-14 -90.5t-4 -80.5q0 -41 6 -85.5t24 -82t50 -62t84 -24.5q50 0 87.5 20t64 52.5t44 75.5t27.5 88.5t14 91t4 83.5zM507 815q-22 21 -45.5 43t-53.5 48q-29 -18 -58.5 -41.5t-54.5 -44.5l-45 26
q31 31 69 62.5t70 54.5l60 4q9 -14 22.5 -30.5t29 -33.5t31.5 -33t31 -28zM562 1037q-10 -8 -25 -15t-32 -9q-19 -3 -36 1.5t-32.5 10.5t-31.5 11t-32 2q-19 -2 -33 -12t-25 -24l-10 55q25 32 65 39q16 2 32 -2.5t32.5 -10t33.5 -10t36 -2.5q12 2 22.5 7.5t18.5 11.5z" />
    <glyph glyph-name="uni1ED8" unicode="&#x1ed8;" horiz-adv-x="660" 
d="M625 468q0 -54 -8.5 -111t-26 -110.5t-45.5 -101.5t-67 -83.5t-90 -56.5t-115 -21q-71 0 -117 25.5t-73 68.5t-37.5 99t-10.5 117q0 55 8 111.5t25.5 110t45.5 100.5t67 82t90 55.5t116 20.5q69 0 115 -25.5t73 -68t38.5 -97.5t11.5 -115zM532 458q0 44 -6.5 89.5t-25 83
t-52.5 61t-89 23.5q-48 0 -83.5 -20.5t-61.5 -55t-42.5 -78t-26.5 -89.5t-14 -90.5t-4 -80.5q0 -41 6 -85.5t24 -82t50 -62t84 -24.5q50 0 87.5 20t64 52.5t44 75.5t27.5 88.5t14 91t4 83.5zM507 815q-22 21 -45.5 43t-53.5 48q-29 -18 -58.5 -41.5t-54.5 -44.5l-45 26
q31 31 69 62.5t70 54.5l60 4q9 -14 22.5 -30.5t29 -33.5t31.5 -33t31 -28zM334 -118q0 -26 -17 -44.5t-41 -18.5q-21 0 -32 13t-11 33q0 27 15 46t40 19q21 0 33.5 -13.5t12.5 -34.5z" />
    <glyph glyph-name="uni1EDA" unicode="&#x1eda;" horiz-adv-x="660" 
d="M535 1012q-11 -31 -29 -61.5t-40.5 -58t-48 -50t-50.5 -35.5l-43 24q41 35 80.5 86.5t61.5 105.5zM625 468q0 -54 -8.5 -111t-26 -110.5t-45.5 -101.5t-67 -83.5t-90 -56.5t-115 -21q-71 0 -117 25.5t-73 68.5t-37.5 99t-10.5 117q0 55 8 111.5t25.5 110t45.5 100.5
t67 82t90 55.5t116 20.5q74 0 121 -28.5t74 -76.5q16 13 25 28.5t10.5 28.5t-6 21.5t-24.5 8.5l-14 49q15 3 34 1t34.5 -10.5t25.5 -25t7 -43.5q-4 -32 -24 -59t-48 -45q12 -35 17.5 -74t5.5 -81zM532 458q0 44 -6.5 89.5t-25 83t-52.5 61t-89 23.5q-48 0 -83.5 -20.5
t-61.5 -55t-42.5 -78t-26.5 -89.5t-14 -90.5t-4 -80.5q0 -41 6 -85.5t24 -82t50 -62t84 -24.5q50 0 87.5 20t64 52.5t44 75.5t27.5 88.5t14 91t4 83.5z" />
    <glyph glyph-name="uni1EDC" unicode="&#x1edc;" horiz-adv-x="660" 
d="M429 816q-23 13 -43.5 36t-38 51.5t-31 61t-20.5 63.5l70 7q14 -52 42.5 -106.5t66.5 -93.5zM625 468q0 -54 -8.5 -111t-26 -110.5t-45.5 -101.5t-67 -83.5t-90 -56.5t-115 -21q-71 0 -117 25.5t-73 68.5t-37.5 99t-10.5 117q0 55 8 111.5t25.5 110t45.5 100.5t67 82
t90 55.5t116 20.5q74 0 121 -28.5t74 -76.5q16 13 25 28.5t10.5 28.5t-6 21.5t-24.5 8.5l-14 49q15 3 34 1t34.5 -10.5t25.5 -25t7 -43.5q-4 -32 -24 -59t-48 -45q12 -35 17.5 -74t5.5 -81zM532 458q0 44 -6.5 89.5t-25 83t-52.5 61t-89 23.5q-48 0 -83.5 -20.5t-61.5 -55
t-42.5 -78t-26.5 -89.5t-14 -90.5t-4 -80.5q0 -41 6 -85.5t24 -82t50 -62t84 -24.5q50 0 87.5 20t64 52.5t44 75.5t27.5 88.5t14 91t4 83.5z" />
    <glyph glyph-name="uni1EDE" unicode="&#x1ede;" horiz-adv-x="660" 
d="M483 966q-1 -47 -28.5 -82.5t-71.5 -64.5l-39 36q40 29 60 53t14 58q-3 16 -12.5 22.5t-20 6.5t-19.5 -5t-12 -12l-24 42q20 19 46.5 25t50.5 -1t40.5 -26.5t15.5 -51.5zM625 468q0 -54 -8.5 -111t-26 -110.5t-45.5 -101.5t-67 -83.5t-90 -56.5t-115 -21q-71 0 -117 25.5
t-73 68.5t-37.5 99t-10.5 117q0 55 8 111.5t25.5 110t45.5 100.5t67 82t90 55.5t116 20.5q74 0 121 -28.5t74 -76.5q16 13 25 28.5t10.5 28.5t-6 21.5t-24.5 8.5l-14 49q15 3 34 1t34.5 -10.5t25.5 -25t7 -43.5q-4 -32 -24 -59t-48 -45q12 -35 17.5 -74t5.5 -81zM532 458
q0 44 -6.5 89.5t-25 83t-52.5 61t-89 23.5q-48 0 -83.5 -20.5t-61.5 -55t-42.5 -78t-26.5 -89.5t-14 -90.5t-4 -80.5q0 -41 6 -85.5t24 -82t50 -62t84 -24.5q50 0 87.5 20t64 52.5t44 75.5t27.5 88.5t14 91t4 83.5z" />
    <glyph glyph-name="uni1EE0" unicode="&#x1ee0;" horiz-adv-x="660" 
d="M522 860q-11 -9 -28 -17t-36 -10q-22 -3 -41 2.5t-36.5 12t-35 12t-36.5 2.5q-21 -2 -37 -13.5t-28 -27.5l-12 62q15 19 32.5 29.5t40.5 14.5q19 3 37 -2t36.5 -12t38 -12t40.5 -2q13 2 24.5 8t21.5 13zM625 468q0 -54 -8.5 -111t-26 -110.5t-45.5 -101.5t-67 -83.5
t-90 -56.5t-115 -21q-71 0 -117 25.5t-73 68.5t-37.5 99t-10.5 117q0 55 8 111.5t25.5 110t45.5 100.5t67 82t90 55.5t116 20.5q74 0 121 -28.5t74 -76.5q16 13 25 28.5t10.5 28.5t-6 21.5t-24.5 8.5l-14 49q15 3 34 1t34.5 -10.5t25.5 -25t7 -43.5q-4 -32 -24 -59t-48 -45
q12 -35 17.5 -74t5.5 -81zM532 458q0 44 -6.5 89.5t-25 83t-52.5 61t-89 23.5q-48 0 -83.5 -20.5t-61.5 -55t-42.5 -78t-26.5 -89.5t-14 -90.5t-4 -80.5q0 -41 6 -85.5t24 -82t50 -62t84 -24.5q50 0 87.5 20t64 52.5t44 75.5t27.5 88.5t14 91t4 83.5z" />
    <glyph glyph-name="uni1EE2" unicode="&#x1ee2;" horiz-adv-x="660" 
d="M334 -118q0 -26 -17 -44.5t-41 -18.5q-21 0 -32 13t-11 33q0 27 15 46t40 19q21 0 33.5 -13.5t12.5 -34.5zM625 468q0 -54 -8.5 -111t-26 -110.5t-45.5 -101.5t-67 -83.5t-90 -56.5t-115 -21q-71 0 -117 25.5t-73 68.5t-37.5 99t-10.5 117q0 55 8 111.5t25.5 110
t45.5 100.5t67 82t90 55.5t116 20.5q74 0 121 -28.5t74 -76.5q16 13 25 28.5t10.5 28.5t-6 21.5t-24.5 8.5l-14 49q15 3 34 1t34.5 -10.5t25.5 -25t7 -43.5q-4 -32 -24 -59t-48 -45q12 -35 17.5 -74t5.5 -81zM532 458q0 44 -6.5 89.5t-25 83t-52.5 61t-89 23.5
q-48 0 -83.5 -20.5t-61.5 -55t-42.5 -78t-26.5 -89.5t-14 -90.5t-4 -80.5q0 -41 6 -85.5t24 -82t50 -62t84 -24.5q50 0 87.5 20t64 52.5t44 75.5t27.5 88.5t14 91t4 83.5z" />
    <glyph glyph-name="uni1EE4" unicode="&#x1ee4;" horiz-adv-x="699" 
d="M642 770q-9 -57 -16.5 -122.5t-13 -131.5t-9.5 -128t-5 -111q-1 -31 0 -66.5t4 -72t9 -71t17 -62.5l-80 -19q-3 9 -6 17.5t-6.5 22t-7.5 34.5t-8 53q-67 -74 -131.5 -101.5t-127.5 -27.5q-39 0 -73 14.5t-57.5 45.5t-35.5 79.5t-8 116.5q4 64 13.5 127t19.5 126
t17.5 126.5t7.5 127.5l79 20q2 -30 0.5 -63t-4.5 -67.5t-8 -68.5t-9 -66q-11 -78 -19.5 -150t-8.5 -139q0 -76 29.5 -118.5t96.5 -42.5q31 0 62.5 11.5t60 31t51.5 44.5t38 51q1 70 5.5 148.5t11 154.5t15 144.5t17.5 119.5zM377 -118q0 -26 -17 -44.5t-41 -18.5
q-21 0 -32 13t-11 33q0 27 15 46t40 19q21 0 33.5 -13.5t12.5 -34.5z" />
    <glyph glyph-name="uni1EE6" unicode="&#x1ee6;" horiz-adv-x="699" 
d="M642 770q-9 -57 -16.5 -122.5t-13 -131.5t-9.5 -128t-5 -111q-1 -31 0 -66.5t4 -72t9 -71t17 -62.5l-80 -19q-3 9 -6 17.5t-6.5 22t-7.5 34.5t-8 53q-67 -74 -131.5 -101.5t-127.5 -27.5q-39 0 -73 14.5t-57.5 45.5t-35.5 79.5t-8 116.5q4 64 13.5 127t19.5 126
t17.5 126.5t7.5 127.5l79 20q2 -30 0.5 -63t-4.5 -67.5t-8 -68.5t-9 -66q-11 -78 -19.5 -150t-8.5 -139q0 -76 29.5 -118.5t96.5 -42.5q31 0 62.5 11.5t60 31t51.5 44.5t38 51q1 70 5.5 148.5t11 154.5t15 144.5t17.5 119.5zM483 926q-1 -47 -28.5 -82.5t-71.5 -64.5l-39 36
q40 29 60 53t14 58q-3 16 -12.5 22.5t-20 6.5t-19.5 -5t-12 -12l-24 42q20 19 46.5 25t50.5 -1t40.5 -26.5t15.5 -51.5z" />
    <glyph glyph-name="uni1EE8" unicode="&#x1ee8;" horiz-adv-x="699" 
d="M552 981q-11 -31 -29 -61.5t-40.5 -58t-48 -50t-50.5 -35.5l-43 24q41 35 80.5 86.5t61.5 105.5zM636 727q19 13 31 29.5t15 31t-4.5 24.5t-25.5 10l-14 49q15 3 34 1t34.5 -10.5t25.5 -25t7 -43.5q-3 -21 -13 -40.5t-25 -35.5t-34 -28.5t-39 -19.5q-6 -50 -11 -103
t-9 -104t-6.5 -98.5t-3.5 -86.5q-1 -31 0 -66.5t4 -72t9 -71t17 -62.5l-80 -19q-3 9 -6 17.5t-6.5 22t-7.5 34.5t-8 53q-67 -74 -131.5 -101.5t-127.5 -27.5q-39 0 -73 14.5t-57.5 45.5t-35.5 79.5t-8 116.5q4 64 13.5 127t19.5 126t17.5 126.5t7.5 127.5l79 20
q2 -30 0.5 -63t-4.5 -67.5t-8 -68.5t-9 -66q-11 -78 -19.5 -150t-8.5 -139q0 -76 29.5 -118.5t96.5 -42.5q31 0 62.5 11.5t60 31t51.5 44.5t38 51q1 70 5.5 148.5t11 154.5t15 144.5t17.5 119.5l80 13z" />
    <glyph glyph-name="uni1EEA" unicode="&#x1eea;" horiz-adv-x="699" 
d="M456 778q-23 13 -43.5 36t-38 51.5t-31 61t-20.5 63.5l70 7q14 -52 42.5 -106.5t66.5 -93.5zM636 727q19 13 31 29.5t15 31t-4.5 24.5t-25.5 10l-14 49q15 3 34 1t34.5 -10.5t25.5 -25t7 -43.5q-3 -21 -13 -40.5t-25 -35.5t-34 -28.5t-39 -19.5q-6 -50 -11 -103t-9 -104
t-6.5 -98.5t-3.5 -86.5q-1 -31 0 -66.5t4 -72t9 -71t17 -62.5l-80 -19q-3 9 -6 17.5t-6.5 22t-7.5 34.5t-8 53q-67 -74 -131.5 -101.5t-127.5 -27.5q-39 0 -73 14.5t-57.5 45.5t-35.5 79.5t-8 116.5q4 64 13.5 127t19.5 126t17.5 126.5t7.5 127.5l79 20q2 -30 0.5 -63
t-4.5 -67.5t-8 -68.5t-9 -66q-11 -78 -19.5 -150t-8.5 -139q0 -76 29.5 -118.5t96.5 -42.5q31 0 62.5 11.5t60 31t51.5 44.5t38 51q1 70 5.5 148.5t11 154.5t15 144.5t17.5 119.5l80 13z" />
    <glyph glyph-name="uni1EEC" unicode="&#x1eec;" horiz-adv-x="699" 
d="M490 942q-1 -47 -28.5 -82.5t-71.5 -64.5l-39 36q40 29 60 53t14 58q-3 16 -12.5 22.5t-20 6.5t-19.5 -5t-12 -12l-24 42q20 19 46.5 25t50.5 -1t40.5 -26.5t15.5 -51.5zM636 727q19 13 31 29.5t15 31t-4.5 24.5t-25.5 10l-14 49q15 3 34 1t34.5 -10.5t25.5 -25t7 -43.5
q-3 -21 -13 -40.5t-25 -35.5t-34 -28.5t-39 -19.5q-6 -50 -11 -103t-9 -104t-6.5 -98.5t-3.5 -86.5q-1 -31 0 -66.5t4 -72t9 -71t17 -62.5l-80 -19q-3 9 -6 17.5t-6.5 22t-7.5 34.5t-8 53q-67 -74 -131.5 -101.5t-127.5 -27.5q-39 0 -73 14.5t-57.5 45.5t-35.5 79.5
t-8 116.5q4 64 13.5 127t19.5 126t17.5 126.5t7.5 127.5l79 20q2 -30 0.5 -63t-4.5 -67.5t-8 -68.5t-9 -66q-11 -78 -19.5 -150t-8.5 -139q0 -76 29.5 -118.5t96.5 -42.5q31 0 62.5 11.5t60 31t51.5 44.5t38 51q1 70 5.5 148.5t11 154.5t15 144.5t17.5 119.5l80 13z" />
    <glyph glyph-name="uni1EEE" unicode="&#x1eee;" horiz-adv-x="699" 
d="M552 870q-11 -9 -28 -17t-36 -10q-22 -3 -41 2.5t-36.5 12t-35 12t-36.5 2.5q-21 -2 -37 -13.5t-28 -27.5l-12 62q15 19 32.5 29.5t40.5 14.5q19 3 37 -2t36.5 -12t38 -12t40.5 -2q13 2 24.5 8t21.5 13zM636 727q19 13 31 29.5t15 31t-4.5 24.5t-25.5 10l-14 49
q15 3 34 1t34.5 -10.5t25.5 -25t7 -43.5q-3 -21 -13 -40.5t-25 -35.5t-34 -28.5t-39 -19.5q-6 -50 -11 -103t-9 -104t-6.5 -98.5t-3.5 -86.5q-1 -31 0 -66.5t4 -72t9 -71t17 -62.5l-80 -19q-3 9 -6 17.5t-6.5 22t-7.5 34.5t-8 53q-67 -74 -131.5 -101.5t-127.5 -27.5
q-39 0 -73 14.5t-57.5 45.5t-35.5 79.5t-8 116.5q4 64 13.5 127t19.5 126t17.5 126.5t7.5 127.5l79 20q2 -30 0.5 -63t-4.5 -67.5t-8 -68.5t-9 -66q-11 -78 -19.5 -150t-8.5 -139q0 -76 29.5 -118.5t96.5 -42.5q31 0 62.5 11.5t60 31t51.5 44.5t38 51q1 70 5.5 148.5
t11 154.5t15 144.5t17.5 119.5l80 13z" />
    <glyph glyph-name="uni1EF0" unicode="&#x1ef0;" horiz-adv-x="699" 
d="M377 -118q0 -26 -17 -44.5t-41 -18.5q-21 0 -32 13t-11 33q0 27 15 46t40 19q21 0 33.5 -13.5t12.5 -34.5zM636 727q19 13 31 29.5t15 31t-4.5 24.5t-25.5 10l-14 49q15 3 34 1t34.5 -10.5t25.5 -25t7 -43.5q-3 -21 -13 -40.5t-25 -35.5t-34 -28.5t-39 -19.5
q-6 -50 -11 -103t-9 -104t-6.5 -98.5t-3.5 -86.5q-1 -31 0 -66.5t4 -72t9 -71t17 -62.5l-80 -19q-3 9 -6 17.5t-6.5 22t-7.5 34.5t-8 53q-67 -74 -131.5 -101.5t-127.5 -27.5q-39 0 -73 14.5t-57.5 45.5t-35.5 79.5t-8 116.5q4 64 13.5 127t19.5 126t17.5 126.5t7.5 127.5
l79 20q2 -30 0.5 -63t-4.5 -67.5t-8 -68.5t-9 -66q-11 -78 -19.5 -150t-8.5 -139q0 -76 29.5 -118.5t96.5 -42.5q31 0 62.5 11.5t60 31t51.5 44.5t38 51q1 70 5.5 148.5t11 154.5t15 144.5t17.5 119.5l80 13z" />
    <glyph glyph-name="uni1EF4" unicode="&#x1ef4;" horiz-adv-x="529" 
d="M287 -118q0 -26 -17 -44.5t-41 -18.5q-21 0 -32 13t-11 33q0 27 15 46t40 19q21 0 33.5 -13.5t12.5 -34.5zM563 766q-24 -108 -69 -205.5t-97.5 -191.5t-106 -188t-95.5 -194l-80 9q27 67 62.5 135.5t73.5 131.5l-50 -5q-18 54 -41.5 115t-48.5 124.5t-48.5 127.5
t-39.5 124l78 19q13 -49 33.5 -105.5t44 -117.5t48 -124t44.5 -124q34 55 67 116t60.5 120.5t47.5 114.5t29 98z" />
    <glyph glyph-name="uni1EF6" unicode="&#x1ef6;" horiz-adv-x="529" 
d="M563 766q-24 -108 -69 -205.5t-97.5 -191.5t-106 -188t-95.5 -194l-80 9q27 67 62.5 135.5t73.5 131.5l-50 -5q-18 54 -41.5 115t-48.5 124.5t-48.5 127.5t-39.5 124l78 19q13 -49 33.5 -105.5t44 -117.5t48 -124t44.5 -124q34 55 67 116t60.5 120.5t47.5 114.5t29 98z
M370 890q-1 -47 -28.5 -82.5t-71.5 -64.5l-39 36q40 29 60 53t14 58q-3 16 -12.5 22.5t-20 6.5t-19.5 -5t-12 -12l-24 42q20 19 46.5 25t50.5 -1t40.5 -26.5t15.5 -51.5z" />
    <glyph glyph-name="uni1EF8" unicode="&#x1ef8;" horiz-adv-x="529" 
d="M563 766q-24 -108 -69 -205.5t-97.5 -191.5t-106 -188t-95.5 -194l-80 9q27 67 62.5 135.5t73.5 131.5l-50 -5q-18 54 -41.5 115t-48.5 124.5t-48.5 127.5t-39.5 124l78 19q13 -49 33.5 -105.5t44 -117.5t48 -124t44.5 -124q34 55 67 116t60.5 120.5t47.5 114.5t29 98z
M439 858q-11 -9 -28 -17t-36 -10q-22 -3 -41 2.5t-36.5 12t-35 12t-36.5 2.5q-21 -2 -37 -13.5t-28 -27.5l-12 62q15 19 32.5 29.5t40.5 14.5q19 3 37 -2t36.5 -12t38 -12t40.5 -2q13 2 24.5 8t21.5 13z" />
    <glyph glyph-name="uni1EA1" unicode="&#x1ea1;" horiz-adv-x="493" 
d="M273 -118q0 -26 -17 -44.5t-41 -18.5q-21 0 -32 13t-11 33q0 27 15 46t40 19q21 0 33.5 -13.5t12.5 -34.5zM448 521q-7 -34 -14.5 -77t-13.5 -87t-11 -86t-8 -73q-2 -28 -2 -55.5t3.5 -52.5t9.5 -46t16 -34l-64 -27q-12 13 -21.5 35.5t-15.5 58.5q-32 -30 -62.5 -52.5
t-62.5 -36.5q-8 -2 -22.5 -3t-19.5 -1q-57 0 -92.5 50t-35.5 138t25.5 159t65.5 121.5t89.5 77.5t97.5 27q38 0 70 -8t68 -28zM365 483q-14 9 -32.5 14.5t-38.5 5.5q-32 0 -64.5 -21.5t-58 -61.5t-41.5 -97t-16 -128q0 -27 4.5 -53.5t15.5 -48.5t29.5 -35.5t45.5 -13.5
q17 0 34 7t32 19t26.5 26.5t19.5 29.5q1 39 5 84t10 91.5t13.5 93t15.5 88.5z" />
    <glyph glyph-name="uni1EA3" unicode="&#x1ea3;" horiz-adv-x="493" 
d="M448 521q-7 -34 -14.5 -77t-13.5 -87t-11 -86t-8 -73q-2 -28 -2 -55.5t3.5 -52.5t9.5 -46t16 -34l-64 -27q-12 13 -21.5 35.5t-15.5 58.5q-32 -30 -62.5 -52.5t-62.5 -36.5q-8 -2 -22.5 -3t-19.5 -1q-57 0 -92.5 50t-35.5 138t25.5 159t65.5 121.5t89.5 77.5t97.5 27
q38 0 70 -8t68 -28zM365 483q-14 9 -32.5 14.5t-38.5 5.5q-32 0 -64.5 -21.5t-58 -61.5t-41.5 -97t-16 -128q0 -27 4.5 -53.5t15.5 -48.5t29.5 -35.5t45.5 -13.5q17 0 34 7t32 19t26.5 26.5t19.5 29.5q1 39 5 84t10 91.5t13.5 93t15.5 88.5zM401 757q-1 -47 -28.5 -82.5
t-71.5 -64.5l-39 36q40 29 60 53t14 58q-3 16 -12.5 22.5t-20 6.5t-19.5 -5t-12 -12l-24 42q20 19 46.5 25t50.5 -1t40.5 -26.5t15.5 -51.5z" />
    <glyph glyph-name="uni1EA5" unicode="&#x1ea5;" horiz-adv-x="493" 
d="M448 521q-7 -34 -14.5 -77t-13.5 -87t-11 -86t-8 -73q-2 -28 -2 -55.5t3.5 -52.5t9.5 -46t16 -34l-64 -27q-12 13 -21.5 35.5t-15.5 58.5q-32 -30 -62.5 -52.5t-62.5 -36.5q-8 -2 -22.5 -3t-19.5 -1q-57 0 -92.5 50t-35.5 138t25.5 159t65.5 121.5t89.5 77.5t97.5 27
q38 0 70 -8t68 -28zM365 483q-14 9 -32.5 14.5t-38.5 5.5q-32 0 -64.5 -21.5t-58 -61.5t-41.5 -97t-16 -128q0 -27 4.5 -53.5t15.5 -48.5t29.5 -35.5t45.5 -13.5q17 0 34 7t32 19t26.5 26.5t19.5 29.5q1 39 5 84t10 91.5t13.5 93t15.5 88.5zM415 589q-21 26 -43.5 52.5
t-51.5 58.5q-29 -22 -57 -50.5t-52 -54.5l-44 31q30 38 67 76.5t67 67.5l58 5q9 -17 21.5 -37.5t27.5 -41.5t31 -40t30 -34zM621 884q-9 -28 -25.5 -55.5t-37 -52.5t-43.5 -45t-45 -32l-39 22q37 31 72.5 78t55.5 95z" />
    <glyph glyph-name="uni1EA7" unicode="&#x1ea7;" horiz-adv-x="493" 
d="M448 521q-7 -34 -14.5 -77t-13.5 -87t-11 -86t-8 -73q-2 -28 -2 -55.5t3.5 -52.5t9.5 -46t16 -34l-64 -27q-12 13 -21.5 35.5t-15.5 58.5q-32 -30 -62.5 -52.5t-62.5 -36.5q-8 -2 -22.5 -3t-19.5 -1q-57 0 -92.5 50t-35.5 138t25.5 159t65.5 121.5t89.5 77.5t97.5 27
q38 0 70 -8t68 -28zM365 483q-14 9 -32.5 14.5t-38.5 5.5q-32 0 -64.5 -21.5t-58 -61.5t-41.5 -97t-16 -128q0 -27 4.5 -53.5t15.5 -48.5t29.5 -35.5t45.5 -13.5q17 0 34 7t32 19t26.5 26.5t19.5 29.5q1 39 5 84t10 91.5t13.5 93t15.5 88.5zM415 589q-21 26 -43.5 52.5
t-51.5 58.5q-29 -22 -57 -50.5t-52 -54.5l-44 31q30 38 67 76.5t67 67.5l58 5q9 -17 21.5 -37.5t27.5 -41.5t31 -40t30 -34zM498 707q-22 12 -42 32.5t-36.5 47t-29.5 55.5t-20 57l67 7q14 -47 41.5 -97t63.5 -85z" />
    <glyph glyph-name="uni1EA9" unicode="&#x1ea9;" horiz-adv-x="493" 
d="M448 521q-7 -34 -14.5 -77t-13.5 -87t-11 -86t-8 -73q-2 -28 -2 -55.5t3.5 -52.5t9.5 -46t16 -34l-64 -27q-12 13 -21.5 35.5t-15.5 58.5q-32 -30 -62.5 -52.5t-62.5 -36.5q-8 -2 -22.5 -3t-19.5 -1q-57 0 -92.5 50t-35.5 138t25.5 159t65.5 121.5t89.5 77.5t97.5 27
q38 0 70 -8t68 -28zM365 483q-14 9 -32.5 14.5t-38.5 5.5q-32 0 -64.5 -21.5t-58 -61.5t-41.5 -97t-16 -128q0 -27 4.5 -53.5t15.5 -48.5t29.5 -35.5t45.5 -13.5q17 0 34 7t32 19t26.5 26.5t19.5 29.5q1 39 5 84t10 91.5t13.5 93t15.5 88.5zM415 589q-21 26 -43.5 52.5
t-51.5 58.5q-29 -22 -57 -50.5t-52 -54.5l-44 31q30 38 67 76.5t67 67.5l58 5q9 -17 21.5 -37.5t27.5 -41.5t31 -40t30 -34zM560 836q-1 -43 -26.5 -76t-66.5 -60l-36 33q37 27 55.5 49t13.5 54q-3 15 -12 21t-18.5 6t-18 -5t-11.5 -11l-22 39q18 18 43 23.5t47 -1
t37.5 -24.5t14.5 -48z" />
    <glyph glyph-name="uni1EAB" unicode="&#x1eab;" horiz-adv-x="493" 
d="M448 521q-7 -34 -14.5 -77t-13.5 -87t-11 -86t-8 -73q-2 -28 -2 -55.5t3.5 -52.5t9.5 -46t16 -34l-64 -27q-12 13 -21.5 35.5t-15.5 58.5q-32 -30 -62.5 -52.5t-62.5 -36.5q-8 -2 -22.5 -3t-19.5 -1q-57 0 -92.5 50t-35.5 138t25.5 159t65.5 121.5t89.5 77.5t97.5 27
q38 0 70 -8t68 -28zM365 483q-14 9 -32.5 14.5t-38.5 5.5q-32 0 -64.5 -21.5t-58 -61.5t-41.5 -97t-16 -128q0 -27 4.5 -53.5t15.5 -48.5t29.5 -35.5t45.5 -13.5q17 0 34 7t32 19t26.5 26.5t19.5 29.5q1 39 5 84t10 91.5t13.5 93t15.5 88.5zM415 589q-21 26 -43.5 52.5
t-51.5 58.5q-29 -22 -57 -50.5t-52 -54.5l-44 31q30 38 67 76.5t67 67.5l58 5q9 -17 21.5 -37.5t27.5 -41.5t31 -40t30 -34zM477 847q-10 -8 -25 -15t-32 -9q-19 -3 -36 1.5t-32.5 10.5t-31.5 11t-32 2q-19 -2 -33 -12t-25 -24l-10 55q25 32 65 39q16 2 32 -2.5t32.5 -10
t33.5 -10t36 -2.5q12 2 22.5 7.5t18.5 11.5z" />
    <glyph glyph-name="uni1EAD" unicode="&#x1ead;" horiz-adv-x="493" 
d="M448 521q-7 -34 -14.5 -77t-13.5 -87t-11 -86t-8 -73q-2 -28 -2 -55.5t3.5 -52.5t9.5 -46t16 -34l-64 -27q-12 13 -21.5 35.5t-15.5 58.5q-32 -30 -62.5 -52.5t-62.5 -36.5q-8 -2 -22.5 -3t-19.5 -1q-57 0 -92.5 50t-35.5 138t25.5 159t65.5 121.5t89.5 77.5t97.5 27
q38 0 70 -8t68 -28zM365 483q-14 9 -32.5 14.5t-38.5 5.5q-32 0 -64.5 -21.5t-58 -61.5t-41.5 -97t-16 -128q0 -27 4.5 -53.5t15.5 -48.5t29.5 -35.5t45.5 -13.5q17 0 34 7t32 19t26.5 26.5t19.5 29.5q1 39 5 84t10 91.5t13.5 93t15.5 88.5zM415 589q-21 26 -43.5 52.5
t-51.5 58.5q-29 -22 -57 -50.5t-52 -54.5l-44 31q30 38 67 76.5t67 67.5l58 5q9 -17 21.5 -37.5t27.5 -41.5t31 -40t30 -34zM273 -118q0 -26 -17 -44.5t-41 -18.5q-21 0 -32 13t-11 33q0 27 15 46t40 19q21 0 33.5 -13.5t12.5 -34.5z" />
    <glyph glyph-name="uni1EAF" unicode="&#x1eaf;" horiz-adv-x="493" 
d="M448 521q-7 -34 -14.5 -77t-13.5 -87t-11 -86t-8 -73q-2 -28 -2 -55.5t3.5 -52.5t9.5 -46t16 -34l-64 -27q-12 13 -21.5 35.5t-15.5 58.5q-32 -30 -62.5 -52.5t-62.5 -36.5q-8 -2 -22.5 -3t-19.5 -1q-57 0 -92.5 50t-35.5 138t25.5 159t65.5 121.5t89.5 77.5t97.5 27
q38 0 70 -8t68 -28zM365 483q-14 9 -32.5 14.5t-38.5 5.5q-32 0 -64.5 -21.5t-58 -61.5t-41.5 -97t-16 -128q0 -27 4.5 -53.5t15.5 -48.5t29.5 -35.5t45.5 -13.5q17 0 34 7t32 19t26.5 26.5t19.5 29.5q1 39 5 84t10 91.5t13.5 93t15.5 88.5zM470 742q-12 -61 -53.5 -98
t-104.5 -37q-26 0 -49 10t-41.5 27.5t-32 41t-19.5 49.5l42 37q16 -41 44 -71t69 -30q20 0 36.5 8.5t30 23t23 32.5t16.5 37zM472 951q-9 -28 -25.5 -55.5t-37 -52.5t-43.5 -45t-45 -32l-39 22q37 31 72.5 78t55.5 95z" />
    <glyph glyph-name="uni1EB1" unicode="&#x1eb1;" horiz-adv-x="493" 
d="M448 521q-7 -34 -14.5 -77t-13.5 -87t-11 -86t-8 -73q-2 -28 -2 -55.5t3.5 -52.5t9.5 -46t16 -34l-64 -27q-12 13 -21.5 35.5t-15.5 58.5q-32 -30 -62.5 -52.5t-62.5 -36.5q-8 -2 -22.5 -3t-19.5 -1q-57 0 -92.5 50t-35.5 138t25.5 159t65.5 121.5t89.5 77.5t97.5 27
q38 0 70 -8t68 -28zM365 483q-14 9 -32.5 14.5t-38.5 5.5q-32 0 -64.5 -21.5t-58 -61.5t-41.5 -97t-16 -128q0 -27 4.5 -53.5t15.5 -48.5t29.5 -35.5t45.5 -13.5q17 0 34 7t32 19t26.5 26.5t19.5 29.5q1 39 5 84t10 91.5t13.5 93t15.5 88.5zM470 742q-12 -61 -53.5 -98
t-104.5 -37q-26 0 -49 10t-41.5 27.5t-32 41t-19.5 49.5l42 37q16 -41 44 -71t69 -30q20 0 36.5 8.5t30 23t23 32.5t16.5 37zM353 771q-22 12 -42 32.5t-36.5 47t-29.5 55.5t-20 57l67 7q14 -47 41.5 -97t63.5 -85z" />
    <glyph glyph-name="uni1EB3" unicode="&#x1eb3;" horiz-adv-x="493" 
d="M448 521q-7 -34 -14.5 -77t-13.5 -87t-11 -86t-8 -73q-2 -28 -2 -55.5t3.5 -52.5t9.5 -46t16 -34l-64 -27q-12 13 -21.5 35.5t-15.5 58.5q-32 -30 -62.5 -52.5t-62.5 -36.5q-8 -2 -22.5 -3t-19.5 -1q-57 0 -92.5 50t-35.5 138t25.5 159t65.5 121.5t89.5 77.5t97.5 27
q38 0 70 -8t68 -28zM365 483q-14 9 -32.5 14.5t-38.5 5.5q-32 0 -64.5 -21.5t-58 -61.5t-41.5 -97t-16 -128q0 -27 4.5 -53.5t15.5 -48.5t29.5 -35.5t45.5 -13.5q17 0 34 7t32 19t26.5 26.5t19.5 29.5q1 39 5 84t10 91.5t13.5 93t15.5 88.5zM470 742q-12 -61 -53.5 -98
t-104.5 -37q-26 0 -49 10t-41.5 27.5t-32 41t-19.5 49.5l42 37q16 -41 44 -71t69 -30q20 0 36.5 8.5t30 23t23 32.5t16.5 37zM406 902q-1 -43 -26.5 -76t-66.5 -60l-36 33q37 27 55.5 49t13.5 54q-3 15 -12 21t-18.5 6t-18 -5t-11.5 -11l-22 39q18 18 43 23.5t47 -1
t37.5 -24.5t14.5 -48z" />
    <glyph glyph-name="uni1EB5" unicode="&#x1eb5;" horiz-adv-x="493" 
d="M448 521q-7 -34 -14.5 -77t-13.5 -87t-11 -86t-8 -73q-2 -28 -2 -55.5t3.5 -52.5t9.5 -46t16 -34l-64 -27q-12 13 -21.5 35.5t-15.5 58.5q-32 -30 -62.5 -52.5t-62.5 -36.5q-8 -2 -22.5 -3t-19.5 -1q-57 0 -92.5 50t-35.5 138t25.5 159t65.5 121.5t89.5 77.5t97.5 27
q38 0 70 -8t68 -28zM365 483q-14 9 -32.5 14.5t-38.5 5.5q-32 0 -64.5 -21.5t-58 -61.5t-41.5 -97t-16 -128q0 -27 4.5 -53.5t15.5 -48.5t29.5 -35.5t45.5 -13.5q17 0 34 7t32 19t26.5 26.5t19.5 29.5q1 39 5 84t10 91.5t13.5 93t15.5 88.5zM470 742q-12 -61 -53.5 -98
t-104.5 -37q-26 0 -49 10t-41.5 27.5t-32 41t-19.5 49.5l42 37q16 -41 44 -71t69 -30q20 0 36.5 8.5t30 23t23 32.5t16.5 37zM468 840q-10 -8 -25 -15t-32 -9q-19 -3 -36 1.5t-32.5 10.5t-31.5 11t-32 2q-19 -2 -33 -12t-25 -24l-10 55q25 32 65 39q16 2 32 -2.5t32.5 -10
t33.5 -10t36 -2.5q12 2 22.5 7.5t18.5 11.5z" />
    <glyph glyph-name="uni1EB7" unicode="&#x1eb7;" horiz-adv-x="493" 
d="M448 521q-7 -34 -14.5 -77t-13.5 -87t-11 -86t-8 -73q-2 -28 -2 -55.5t3.5 -52.5t9.5 -46t16 -34l-64 -27q-12 13 -21.5 35.5t-15.5 58.5q-32 -30 -62.5 -52.5t-62.5 -36.5q-8 -2 -22.5 -3t-19.5 -1q-57 0 -92.5 50t-35.5 138t25.5 159t65.5 121.5t89.5 77.5t97.5 27
q38 0 70 -8t68 -28zM365 483q-14 9 -32.5 14.5t-38.5 5.5q-32 0 -64.5 -21.5t-58 -61.5t-41.5 -97t-16 -128q0 -27 4.5 -53.5t15.5 -48.5t29.5 -35.5t45.5 -13.5q17 0 34 7t32 19t26.5 26.5t19.5 29.5q1 39 5 84t10 91.5t13.5 93t15.5 88.5zM470 742q-12 -61 -53.5 -98
t-104.5 -37q-26 0 -49 10t-41.5 27.5t-32 41t-19.5 49.5l42 37q16 -41 44 -71t69 -30q20 0 36.5 8.5t30 23t23 32.5t16.5 37zM273 -118q0 -26 -17 -44.5t-41 -18.5q-21 0 -32 13t-11 33q0 27 15 46t40 19q21 0 33.5 -13.5t12.5 -34.5z" />
    <glyph glyph-name="uni1EB9" unicode="&#x1eb9;" horiz-adv-x="436" 
d="M403 433q0 -42 -19.5 -80.5t-51 -68t-70 -46.5t-77.5 -17h-16q-4 0 -9 1l-44 35q-5 -53 2 -93t22.5 -66t38 -39t48.5 -13q28 0 63 13t62 34l5 -67q-33 -22 -78 -32t-84 -10q-72 0 -117 50.5t-45 146.5q0 79 19.5 147.5t53 119.5t79 80t96.5 29q57 0 89.5 -30t32.5 -94z
M320 433q0 31 -15 50.5t-42 19.5q-26 0 -50 -18.5t-43 -50t-32.5 -73.5t-19.5 -90q32 -5 67.5 4.5t65.5 31.5t49.5 54t19.5 72zM277 -118q0 -26 -17 -44.5t-41 -18.5q-21 0 -32 13t-11 33q0 27 15 46t40 19q21 0 33.5 -13.5t12.5 -34.5z" />
    <glyph glyph-name="uni1EBB" unicode="&#x1ebb;" horiz-adv-x="436" 
d="M403 433q0 -42 -19.5 -80.5t-51 -68t-70 -46.5t-77.5 -17h-16q-4 0 -9 1l-44 35q-5 -53 2 -93t22.5 -66t38 -39t48.5 -13q28 0 63 13t62 34l5 -67q-33 -22 -78 -32t-84 -10q-72 0 -117 50.5t-45 146.5q0 79 19.5 147.5t53 119.5t79 80t96.5 29q57 0 89.5 -30t32.5 -94z
M320 433q0 31 -15 50.5t-42 19.5q-26 0 -50 -18.5t-43 -50t-32.5 -73.5t-19.5 -90q32 -5 67.5 4.5t65.5 31.5t49.5 54t19.5 72zM359 750q-1 -47 -28.5 -82.5t-71.5 -64.5l-39 36q40 29 60 53t14 58q-3 16 -12.5 22.5t-20 6.5t-19.5 -5t-12 -12l-24 42q20 19 46.5 25t50.5 -1
t40.5 -26.5t15.5 -51.5z" />
    <glyph glyph-name="uni1EBD" unicode="&#x1ebd;" horiz-adv-x="436" 
d="M403 433q0 -42 -19.5 -80.5t-51 -68t-70 -46.5t-77.5 -17h-16q-4 0 -9 1l-44 35q-5 -53 2 -93t22.5 -66t38 -39t48.5 -13q28 0 63 13t62 34l5 -67q-33 -22 -78 -32t-84 -10q-72 0 -117 50.5t-45 146.5q0 79 19.5 147.5t53 119.5t79 80t96.5 29q57 0 89.5 -30t32.5 -94z
M320 433q0 31 -15 50.5t-42 19.5q-26 0 -50 -18.5t-43 -50t-32.5 -73.5t-19.5 -90q32 -5 67.5 4.5t65.5 31.5t49.5 54t19.5 72zM421 651q-11 -9 -28 -17t-36 -10q-22 -3 -41 2.5t-36.5 12t-35 12t-36.5 2.5q-21 -2 -37 -13.5t-28 -27.5l-12 62q15 19 32.5 29.5t40.5 14.5
q19 3 37 -2t36.5 -12t38 -12t40.5 -2q13 2 24.5 8t21.5 13z" />
    <glyph glyph-name="uni1EBF" unicode="&#x1ebf;" horiz-adv-x="436" 
d="M403 433q0 -42 -19.5 -80.5t-51 -68t-70 -46.5t-77.5 -17h-16q-4 0 -9 1l-44 35q-5 -53 2 -93t22.5 -66t38 -39t48.5 -13q28 0 63 13t62 34l5 -67q-33 -22 -78 -32t-84 -10q-72 0 -117 50.5t-45 146.5q0 79 19.5 147.5t53 119.5t79 80t96.5 29q57 0 89.5 -30t32.5 -94z
M320 433q0 31 -15 50.5t-42 19.5q-26 0 -50 -18.5t-43 -50t-32.5 -73.5t-19.5 -90q32 -5 67.5 4.5t65.5 31.5t49.5 54t19.5 72zM375 586q-21 26 -43.5 52.5t-51.5 58.5q-29 -22 -57 -50.5t-52 -54.5l-44 31q30 38 67 76.5t67 67.5l58 5q9 -17 21.5 -37.5t27.5 -41.5t31 -40
t30 -34zM587 894q-9 -28 -25.5 -55.5t-37 -52.5t-43.5 -45t-45 -32l-39 22q37 31 72.5 78t55.5 95z" />
    <glyph glyph-name="uni1EC1" unicode="&#x1ec1;" horiz-adv-x="436" 
d="M403 433q0 -42 -19.5 -80.5t-51 -68t-70 -46.5t-77.5 -17h-16q-4 0 -9 1l-44 35q-5 -53 2 -93t22.5 -66t38 -39t48.5 -13q28 0 63 13t62 34l5 -67q-33 -22 -78 -32t-84 -10q-72 0 -117 50.5t-45 146.5q0 79 19.5 147.5t53 119.5t79 80t96.5 29q57 0 89.5 -30t32.5 -94z
M320 433q0 31 -15 50.5t-42 19.5q-26 0 -50 -18.5t-43 -50t-32.5 -73.5t-19.5 -90q32 -5 67.5 4.5t65.5 31.5t49.5 54t19.5 72zM375 586q-21 26 -43.5 52.5t-51.5 58.5q-29 -22 -57 -50.5t-52 -54.5l-44 31q30 38 67 76.5t67 67.5l58 5q9 -17 21.5 -37.5t27.5 -41.5t31 -40
t30 -34zM470 693q-22 12 -42 32.5t-36.5 47t-29.5 55.5t-20 57l67 7q14 -47 41.5 -97t63.5 -85z" />
    <glyph glyph-name="uni1EC3" unicode="&#x1ec3;" horiz-adv-x="436" 
d="M403 433q0 -42 -19.5 -80.5t-51 -68t-70 -46.5t-77.5 -17h-16q-4 0 -9 1l-44 35q-5 -53 2 -93t22.5 -66t38 -39t48.5 -13q28 0 63 13t62 34l5 -67q-33 -22 -78 -32t-84 -10q-72 0 -117 50.5t-45 146.5q0 79 19.5 147.5t53 119.5t79 80t96.5 29q57 0 89.5 -30t32.5 -94z
M320 433q0 31 -15 50.5t-42 19.5q-26 0 -50 -18.5t-43 -50t-32.5 -73.5t-19.5 -90q32 -5 67.5 4.5t65.5 31.5t49.5 54t19.5 72zM375 586q-21 26 -43.5 52.5t-51.5 58.5q-29 -22 -57 -50.5t-52 -54.5l-44 31q30 38 67 76.5t67 67.5l58 5q9 -17 21.5 -37.5t27.5 -41.5t31 -40
t30 -34zM525 839q-1 -43 -26.5 -76t-66.5 -60l-36 33q37 27 55.5 49t13.5 54q-3 15 -12 21t-18.5 6t-18 -5t-11.5 -11l-22 39q18 18 43 23.5t47 -1t37.5 -24.5t14.5 -48z" />
    <glyph glyph-name="uni1EC5" unicode="&#x1ec5;" horiz-adv-x="436" 
d="M403 433q0 -42 -19.5 -80.5t-51 -68t-70 -46.5t-77.5 -17h-16q-4 0 -9 1l-44 35q-5 -53 2 -93t22.5 -66t38 -39t48.5 -13q28 0 63 13t62 34l5 -67q-33 -22 -78 -32t-84 -10q-72 0 -117 50.5t-45 146.5q0 79 19.5 147.5t53 119.5t79 80t96.5 29q57 0 89.5 -30t32.5 -94z
M320 433q0 31 -15 50.5t-42 19.5q-26 0 -50 -18.5t-43 -50t-32.5 -73.5t-19.5 -90q32 -5 67.5 4.5t65.5 31.5t49.5 54t19.5 72zM375 586q-21 26 -43.5 52.5t-51.5 58.5q-29 -22 -57 -50.5t-52 -54.5l-44 31q30 38 67 76.5t67 67.5l58 5q9 -17 21.5 -37.5t27.5 -41.5t31 -40
t30 -34zM425 840q-10 -8 -25 -15t-32 -9q-19 -3 -36 1.5t-32.5 10.5t-31.5 11t-32 2q-19 -2 -33 -12t-25 -24l-10 55q25 32 65 39q16 2 32 -2.5t32.5 -10t33.5 -10t36 -2.5q12 2 22.5 7.5t18.5 11.5z" />
    <glyph glyph-name="uni1EC7" unicode="&#x1ec7;" horiz-adv-x="436" 
d="M403 433q0 -42 -19.5 -80.5t-51 -68t-70 -46.5t-77.5 -17h-16q-4 0 -9 1l-44 35q-5 -53 2 -93t22.5 -66t38 -39t48.5 -13q28 0 63 13t62 34l5 -67q-33 -22 -78 -32t-84 -10q-72 0 -117 50.5t-45 146.5q0 79 19.5 147.5t53 119.5t79 80t96.5 29q57 0 89.5 -30t32.5 -94z
M320 433q0 31 -15 50.5t-42 19.5q-26 0 -50 -18.5t-43 -50t-32.5 -73.5t-19.5 -90q32 -5 67.5 4.5t65.5 31.5t49.5 54t19.5 72zM375 586q-21 26 -43.5 52.5t-51.5 58.5q-29 -22 -57 -50.5t-52 -54.5l-44 31q30 38 67 76.5t67 67.5l58 5q9 -17 21.5 -37.5t27.5 -41.5t31 -40
t30 -34zM277 -118q0 -26 -17 -44.5t-41 -18.5q-21 0 -32 13t-11 33q0 27 15 46t40 19q21 0 33.5 -13.5t12.5 -34.5z" />
    <glyph glyph-name="uni1EC9" unicode="&#x1ec9;" horiz-adv-x="259" 
d="M234 557q0 -39 -4.5 -86t-10.5 -95.5t-13 -94t-11 -81.5q-8 -63 -9.5 -112.5t2.5 -84.5l-78 -18q-2 31 -2 74t5 89q4 42 12 94.5t15 106.5t11.5 105t3.5 89zM291 752q-1 -47 -28.5 -82.5t-71.5 -64.5l-39 36q40 29 60 53t14 58q-3 16 -12.5 22.5t-20 6.5t-19.5 -5
t-12 -12l-24 42q20 19 46.5 25t50.5 -1t40.5 -26.5t15.5 -51.5z" />
    <glyph glyph-name="uni1ECB" unicode="&#x1ecb;" horiz-adv-x="259" 
d="M204 557q0 -39 -4.5 -86t-10.5 -95.5t-13 -94t-11 -81.5q-8 -63 -9.5 -112.5t2.5 -84.5l-78 -18q-2 31 -2 74t5 89q4 42 12 94.5t15 106.5t11.5 105t3.5 89zM242 736q0 -26 -18.5 -45.5t-44.5 -19.5q-21 0 -34 14.5t-13 36.5q0 27 20 44t46 17q20 0 32 -13.5t12 -33.5z
M167 -118q0 -26 -17 -44.5t-41 -18.5q-21 0 -32 13t-11 33q0 27 15 46t40 19q21 0 33.5 -13.5t12.5 -34.5z" />
    <glyph glyph-name="uni1ECD" unicode="&#x1ecd;" horiz-adv-x="476" 
d="M444 360q0 -69 -15.5 -136.5t-48 -120.5t-83.5 -85.5t-122 -32.5q-77 0 -110 51.5t-33 137.5q0 66 15.5 134.5t47.5 123.5t81.5 90t117.5 35q39 0 67 -14t46.5 -40t27.5 -62.5t9 -80.5zM361 343q0 79 -21.5 120t-78.5 41q-32 0 -58.5 -24t-46 -66t-30.5 -98.5t-11 -122.5
q0 -33 4.5 -61t15.5 -48.5t30.5 -32t49.5 -11.5q36 0 63.5 24t46 65t27.5 96t9 118zM262 -118q0 -26 -17 -44.5t-41 -18.5q-21 0 -32 13t-11 33q0 27 15 46t40 19q21 0 33.5 -13.5t12.5 -34.5z" />
    <glyph glyph-name="uni1ECF" unicode="&#x1ecf;" horiz-adv-x="476" 
d="M444 360q0 -69 -15.5 -136.5t-48 -120.5t-83.5 -85.5t-122 -32.5q-77 0 -110 51.5t-33 137.5q0 66 15.5 134.5t47.5 123.5t81.5 90t117.5 35q39 0 67 -14t46.5 -40t27.5 -62.5t9 -80.5zM361 343q0 79 -21.5 120t-78.5 41q-32 0 -58.5 -24t-46 -66t-30.5 -98.5t-11 -122.5
q0 -33 4.5 -61t15.5 -48.5t30.5 -32t49.5 -11.5q36 0 63.5 24t46 65t27.5 96t9 118zM370 745q-1 -47 -28.5 -82.5t-71.5 -64.5l-39 36q40 29 60 53t14 58q-3 16 -12.5 22.5t-20 6.5t-19.5 -5t-12 -12l-24 42q20 19 46.5 25t50.5 -1t40.5 -26.5t15.5 -51.5z" />
    <glyph glyph-name="uni1ED1" unicode="&#x1ed1;" horiz-adv-x="476" 
d="M444 360q0 -69 -15.5 -136.5t-48 -120.5t-83.5 -85.5t-122 -32.5q-77 0 -110 51.5t-33 137.5q0 66 15.5 134.5t47.5 123.5t81.5 90t117.5 35q39 0 67 -14t46.5 -40t27.5 -62.5t9 -80.5zM361 343q0 79 -21.5 120t-78.5 41q-32 0 -58.5 -24t-46 -66t-30.5 -98.5t-11 -122.5
q0 -33 4.5 -61t15.5 -48.5t30.5 -32t49.5 -11.5q36 0 63.5 24t46 65t27.5 96t9 118zM379 594q-21 26 -43.5 52.5t-51.5 58.5q-29 -22 -57 -50.5t-52 -54.5l-44 31q30 38 67 76.5t67 67.5l58 5q9 -17 21.5 -37.5t27.5 -41.5t31 -40t30 -34zM589 891q-9 -28 -25.5 -55.5
t-37 -52.5t-43.5 -45t-45 -32l-39 22q37 31 72.5 78t55.5 95z" />
    <glyph glyph-name="uni1ED3" unicode="&#x1ed3;" horiz-adv-x="476" 
d="M444 360q0 -69 -15.5 -136.5t-48 -120.5t-83.5 -85.5t-122 -32.5q-77 0 -110 51.5t-33 137.5q0 66 15.5 134.5t47.5 123.5t81.5 90t117.5 35q39 0 67 -14t46.5 -40t27.5 -62.5t9 -80.5zM361 343q0 79 -21.5 120t-78.5 41q-32 0 -58.5 -24t-46 -66t-30.5 -98.5t-11 -122.5
q0 -33 4.5 -61t15.5 -48.5t30.5 -32t49.5 -11.5q36 0 63.5 24t46 65t27.5 96t9 118zM379 594q-21 26 -43.5 52.5t-51.5 58.5q-29 -22 -57 -50.5t-52 -54.5l-44 31q30 38 67 76.5t67 67.5l58 5q9 -17 21.5 -37.5t27.5 -41.5t31 -40t30 -34zM470 691q-22 12 -42 32.5t-36.5 47
t-29.5 55.5t-20 57l67 7q14 -47 41.5 -97t63.5 -85z" />
    <glyph glyph-name="uni1ED5" unicode="&#x1ed5;" horiz-adv-x="476" 
d="M444 360q0 -69 -15.5 -136.5t-48 -120.5t-83.5 -85.5t-122 -32.5q-77 0 -110 51.5t-33 137.5q0 66 15.5 134.5t47.5 123.5t81.5 90t117.5 35q39 0 67 -14t46.5 -40t27.5 -62.5t9 -80.5zM361 343q0 79 -21.5 120t-78.5 41q-32 0 -58.5 -24t-46 -66t-30.5 -98.5t-11 -122.5
q0 -33 4.5 -61t15.5 -48.5t30.5 -32t49.5 -11.5q36 0 63.5 24t46 65t27.5 96t9 118zM379 594q-21 26 -43.5 52.5t-51.5 58.5q-29 -22 -57 -50.5t-52 -54.5l-44 31q30 38 67 76.5t67 67.5l58 5q9 -17 21.5 -37.5t27.5 -41.5t31 -40t30 -34zM519 843q-1 -43 -26.5 -76
t-66.5 -60l-36 33q37 27 55.5 49t13.5 54q-3 15 -12 21t-18.5 6t-18 -5t-11.5 -11l-22 39q18 18 43 23.5t47 -1t37.5 -24.5t14.5 -48z" />
    </font>
</defs>
</svg>
